<svg width="153" height="157" viewBox="0 0 153 157" fill="none" xmlns="http://www.w3.org/2000/svg">
<g id="Graphic 01">
<g id="circle-light">
<path id="Vector" d="M113.95 31.5293C135.941 12.905 138.67 -20.02 120.045 -42.0107C101.421 -64.0014 68.4961 -66.7304 46.5054 -48.1061C24.5147 -29.4818 21.7857 3.44317 40.41 25.4339C59.0343 47.4246 91.9593 50.1536 113.95 31.5293Z" fill="#FFA972"/>
<path id="Vector_2" d="M110.362 -53.878C109.513 -54.591 108.778 -55.0804 108.018 -55.5106C107.201 -55.9865 106.219 -56.3229 105.535 -56.8182C104.885 -57.3414 104.173 -57.7371 103.448 -58.1032C102.724 -58.4694 101.988 -58.8262 101.24 -59.1534C99.7798 -59.8764 98.1678 -60.2446 96.5812 -60.672C95.7604 -60.8624 94.9556 -61.123 94.1442 -61.3024C93.3124 -61.4836 92.5153 -61.7129 91.7172 -62.0545C90.958 -62.3725 90.1423 -62.6238 89.3199 -62.7939C88.4721 -62.905 87.61 -62.9663 86.7589 -63.0368C86.059 -63.0846 85.3167 -63.3604 84.8759 -63.4581C83.3097 -63.3941 82.0028 -63.1351 80.7778 -63.002C80.7424 -62.8213 80.7087 -62.6609 80.6842 -62.4895C79.9556 -62.4377 79.3215 -62.5413 77.8153 -62.3396C77.7097 -62.4198 77.3389 -62.7464 76.985 -63.0308C75.6993 -62.6578 74.8323 -62.4134 73.8918 -62.1445C73.603 -62.3521 73.3622 -62.5251 73.1587 -62.6542C71.6567 -62.6257 70.2061 -62.6031 68.7759 -62.5788C68.2205 -62.0331 67.3973 -62.0707 66.6417 -61.9395C65.6564 -61.7457 64.6602 -61.5426 63.7687 -61.3717C63.41 -61.1056 63.0858 -60.8876 62.8225 -60.6646C62.0559 -60.5241 61.4751 -60.409 60.9474 -60.3201C60.5524 -59.9856 60.2343 -59.7161 59.8064 -59.3537C55.8628 -58.6706 52.3011 -55.8236 48.5056 -54.3427C47.9328 -53.2169 46.3872 -52.4166 45.2722 -51.6419C45.3703 -51.3481 45.4176 -51.181 45.459 -51.0653C43.8107 -49.7635 42.5119 -48.2491 40.8502 -46.5403C39.5603 -45.9942 38.2875 -45.1611 36.7098 -44.2207C36.4449 -43.7326 36.0602 -43.0299 35.6612 -42.2774C34.7615 -41.5155 34.1194 -40.5383 33.5178 -39.5578C32.9365 -38.5756 32.3679 -37.6229 31.8634 -36.7058C31.7083 -36.0657 31.6637 -35.6511 31.5052 -35.2153C31.3576 -34.7889 31.0851 -34.332 30.9021 -33.9697C30.518 -33.8894 30.3305 -33.8437 30.0603 -33.7844C29.4723 -32.7212 29.1317 -31.566 28.5633 -30.1237C28.2122 -29.8263 27.7438 -29.4673 27.4053 -29.1995C27.0199 -28.1194 26.7156 -27.0326 26.429 -26.0362C26.1627 -25.038 25.9731 -24.105 26.0554 -23.2514C25.3014 -21.2939 24.8852 -19.2268 24.6404 -17.1353C24.5624 -16.0706 24.4717 -14.9763 24.3794 -13.6169C24.1415 -13.2082 23.8201 -12.6533 23.7112 -12.4481C23.5568 -10.3389 23.6371 -8.35306 23.7823 -6.53529C24.0398 -4.71842 24.2279 -3.05016 24.1155 -1.44758C24.6466 0.514392 25.0297 1.92342 25.2496 2.71699C25.1847 4.97643 25.5985 7.00009 26.0426 8.90384C26.6742 10.7619 27.5344 12.4451 28.5872 14.0218C28.7275 14.5436 28.8756 15.0966 29.0083 15.5871C29.4256 15.9685 29.7187 16.2478 29.8986 16.4158C30.749 18.7103 31.8729 20.6602 32.9232 22.6346C32.8592 22.9149 32.8078 23.1657 32.7354 23.5474C33.6156 24.4977 34.4897 25.1516 35.3133 25.9238C35.9555 27.038 36.5378 28.2595 37.1782 29.1492C38.5691 29.9684 39.7675 30.6492 41.0715 31.4102C41.2254 32.0147 41.4528 32.5946 41.6464 33.0902C42.3451 34.1377 43.2945 34.9917 44.2971 35.8195C45.2667 36.6752 46.4609 37.2843 47.4398 38.151C49.3057 39.8869 52.1345 40.4683 53.8103 41.913C55.3708 42.5321 56.7531 42.718 57.6559 43.2723C58.9937 44.1178 60.458 44.6676 61.9273 45.1567C62.662 45.4012 63.4076 45.6364 64.144 45.8607C64.904 46.0461 65.6707 46.1505 66.445 46.2861C67.2193 46.4217 67.9936 46.5572 68.6978 46.6768C68.9766 47.006 69.1608 47.2457 69.4657 47.6281C71.0233 47.1757 72.783 47.3623 74.53 47.5785C74.7327 47.8402 74.8611 48.014 75.1323 48.3119C75.9174 48.1934 76.6824 48.0732 77.4582 47.9436C77.7985 47.9004 78.1683 47.8699 78.3118 47.8614C79.1158 48.2545 79.8032 48.5767 80.0971 48.7235C81.9874 48.4415 83.459 48.288 84.6603 47.9489C85.941 47.6368 86.9835 46.9988 88.5058 46.972C88.776 47.1576 89.0091 47.2993 89.2313 47.4504C90.7535 47.1787 92.035 46.734 93.2928 46.3282C93.9024 46.3583 94.4808 46.396 95.0702 46.4245C95.4036 46.2175 95.6939 45.9151 96.0907 45.8051C98.5498 44.8153 101.084 44.0256 103.421 42.7809C103.805 42.5882 104.283 42.5973 104.657 42.5262C105.567 41.7549 106.052 41.0809 107.38 40.5585C108.001 40.3345 108.765 39.8571 109.372 39.4178L110.779 38.4529C111.244 38.1344 111.673 37.7518 112.12 37.4113L114.822 35.3297C115.754 34.6724 116.51 33.8066 117.339 33.0286C118.13 32.227 118.941 31.4271 119.617 30.5343C119.872 30.1678 120.317 29.8476 120.663 29.4784C121.693 28.3804 122.908 27.3895 123.756 26.1437C124.371 25.2459 124.742 24.2156 125.321 23.0088C125.742 22.7275 126.307 22.4377 126.873 22.0153C127.192 20.9909 127.48 20.1068 127.739 19.3223C128.152 18.7649 128.537 18.3071 128.877 17.7742C130.323 15.0987 131.508 12.2486 132.728 9.46262C133.125 8.61812 133.257 7.39464 133.311 6.61361C133.628 5.25242 133.94 3.95203 134.252 2.65163C134.514 1.3369 134.647 -0.0191574 134.855 -1.41998C134.677 -3.09757 134.727 -5.17463 135.608 -8.04994C135.57 -8.94069 135.431 -9.72754 135.362 -10.4984C135.079 -10.6545 134.835 -10.7869 134.338 -11.0628C134.752 -12.2425 135.064 -13.0532 135.345 -13.9888C134.622 -16.334 134.401 -18.8416 133.675 -21.2788C133.337 -22.5004 133.106 -23.7744 132.644 -24.9655C132.181 -26.1566 131.688 -27.3402 131.139 -28.4772C130.849 -29.1543 130.464 -29.8084 130.113 -30.4905C129.772 -31.1818 129.446 -31.923 129.187 -32.7402C128.991 -33.3277 128.647 -33.9786 128.139 -34.6226C127.621 -35.2573 127.033 -35.9283 126.49 -36.6364C126.133 -37.8597 125.549 -38.5712 124.817 -39.1011C124.064 -39.6124 123.271 -40.0148 122.588 -40.755C122.142 -40.0574 120.997 -41.2541 119.929 -41.9139C120.346 -40.6653 120.665 -39.7105 121.01 -38.7026C120.502 -39.1017 120.108 -39.3894 119.591 -39.7996C119.556 -38.6394 120.7 -37.1776 120.656 -36.161C120.602 -35.38 121.947 -34.0136 121.954 -32.8704C121.957 -32.1561 123.289 -31.2499 123.222 -30.1945C123.773 -29.2102 124.335 -28.2353 124.86 -27.3042C125.363 -26.3546 125.722 -25.3964 126.102 -24.5692C126.517 -22.4332 126.576 -21.0511 126.822 -19.9595C127.027 -18.8712 127.492 -18.0778 127.911 -16.982C127.646 -15.6268 127.797 -14.2472 128.119 -12.7107C128.291 -11.462 128.316 -10.1642 128.342 -8.8868C128.369 -7.60935 128.223 -6.33607 128.402 -5.05615C128.29 -4.56555 128.23 -4.08088 128.18 -3.60551C128.099 -3.12252 128.039 -2.63784 127.998 -2.15149C127.918 -1.1788 127.887 -0.191773 127.795 0.790218C127.672 1.66752 127.316 2.51538 127.069 3.40287C127.135 3.70427 127.219 4.04789 127.262 4.27584C126.855 5.48679 126.284 6.59226 125.747 7.64959C125.191 8.70524 124.776 9.77264 124.115 10.7279C124.201 11.5409 123.948 12.3769 123.645 13.1986C123.479 13.6031 123.322 14.0185 123.156 14.423C122.96 14.8149 122.775 15.1975 122.642 15.5741C122.137 16.0016 121.686 16.4028 120.982 17.0178C120.844 17.4552 120.695 17.9019 120.534 18.3579C120.335 18.7903 120.134 19.243 119.934 19.6956C119.52 20.6305 119.071 21.6135 118.608 22.6463C118.171 22.8651 117.51 23.0858 116.784 23.3622C116.037 24.8612 114.204 25.6785 113.34 27.2392C113.545 27.4806 113.751 27.7017 113.938 27.9009C112.762 28.5583 111.811 29.1937 110.548 29.7928C110.271 31.29 108.445 32.271 107.177 32.7984C105.607 33.2804 105.187 34.0312 104.608 34.6157C101.235 36.4173 97.7762 36.9162 94.7503 39.0832C93.5734 39.2509 92.35 39.3637 91.0845 39.7383C90.4395 39.8889 89.7954 40.1518 89.0787 40.3066C88.3712 40.4724 87.6215 40.6551 86.8203 40.8438C86.6666 40.729 86.2705 40.4615 85.8372 40.1502C85.0581 40.5651 84.593 40.8836 84.0029 40.9877C82.8598 41.2398 81.8225 42.0618 80.3413 41.4698C77.7712 41.7056 75.4776 40.8218 73.0139 40.7604C72.7723 40.4751 72.5957 40.2667 72.3837 39.994C71.1713 40.0976 69.6684 40.2587 68.9126 39.9002C67.7371 39.3131 66.6623 39.3566 65.6084 39.0244C64.7521 38.7698 63.8942 38.5354 62.9645 38.3053C62.5051 38.1857 62.0145 38.0736 61.5273 37.921C61.0417 37.7481 60.5376 37.5533 60.0132 37.3568C59.8493 37.1188 59.5586 36.6866 59.3145 36.3093C58.5714 36.1661 57.8545 36.0761 57.1942 35.9194C56.5355 35.7423 55.9081 35.5577 55.29 35.384C54.7806 34.7603 54.1168 34.3992 53.4201 34.066C52.7217 33.7531 52.0705 33.3625 51.5164 32.9085C50.3888 31.8663 49.4013 30.856 48.5337 29.6313C47.3429 28.9817 46.1252 28.6563 45.1983 27.1614C44.8046 26.4963 43.6701 25.2902 42.7785 25.2163C42.1651 24.2473 41.7036 23.1685 41.2159 22.0365C40.0503 21.0829 39.1286 19.7721 38.4305 18.3472C37.6903 16.9392 36.8167 15.663 35.7642 14.5759C35.9785 14.206 36.1582 13.8843 36.4357 13.3666C35.8167 13.0806 35.3936 12.8925 35.0296 12.7297C34.8091 12.3136 34.6105 11.8788 34.4321 11.4457C34.285 11.0051 34.1801 10.5475 34.0549 10.0882C33.8342 9.18236 33.6117 8.29681 33.4003 7.40192C32.9866 5.62311 32.632 3.86958 31.4737 2.21269C31.6406 1.67562 31.7983 1.12759 31.9079 0.789816C31.6842 -0.942638 31.1306 -2.26377 31.3165 -3.89086C31.3559 -4.48951 31.229 -5.17334 31.0429 -5.88249C30.9499 -6.23707 30.8585 -6.61192 30.7655 -6.96649C30.6944 -7.33965 30.6529 -7.70016 30.6316 -8.05898C30.5925 -8.57232 30.713 -9.16423 30.7879 -9.69873C30.9142 -10.484 30.9029 -11.2093 30.879 -11.905C30.8862 -12.6083 30.8074 -13.2576 30.6475 -13.9135C30.8735 -14.6701 31.1104 -15.4361 31.3473 -16.202C31.6248 -16.9645 31.9723 -17.7111 32.292 -18.4905C32.223 -19.7511 31.9641 -21.058 32.9969 -22.4414C33.2846 -22.8358 33.3729 -23.7773 33.5625 -24.4655L33.8306 -25.4839L34.1982 -26.4736L34.9336 -28.453C35.3835 -28.834 35.7346 -29.1314 35.987 -29.3451C36.5403 -30.6051 37.0954 -31.6405 37.8107 -33.1319C37.7447 -33.321 37.5909 -33.6806 37.4481 -34.0495C37.5628 -34.2032 37.6852 -34.3257 37.8295 -34.4667C38.2467 -34.3301 38.6748 -34.2028 39.2507 -34.0123C39.2328 -36.2582 41.8108 -37.5748 42.445 -39.3178C42.3335 -39.4494 42.2313 -39.5701 42.1383 -39.6798C42.4276 -40.3394 42.8513 -40.7735 43.3121 -41.1638C43.5425 -41.3589 43.7822 -41.5431 44.0219 -41.7273C44.2802 -41.8895 44.5402 -42.072 44.8019 -42.2748C45.035 -42.133 45.279 -42.0006 45.5712 -41.8335C46.0809 -42.5666 46.5779 -43.2702 47.0732 -43.9534C47.3263 -44.2997 47.5702 -44.657 47.8124 -44.994L48.6461 -45.9451L49.7598 -45.965C50.6908 -46.7346 51.5287 -47.6139 52.523 -48.2864C53.4988 -48.9809 54.4728 -49.6551 55.4376 -50.3403C56.7049 -50.4903 58.0252 -50.9113 59.2703 -51.5325C60.5078 -52.1848 61.8425 -52.6557 63.1224 -52.8353C63.5248 -53.6283 64.8889 -54.3314 65.5855 -54.243C67.2742 -54.1847 68.4939 -54.9915 69.9198 -55.3324C71.5138 -55.6084 73.02 -55.5652 74.6722 -55.9281C76.1505 -56.1627 77.7123 -56.5433 79.4492 -56.2055C80.4212 -55.9923 81.9434 -56.264 83.1034 -56.4739C83.9324 -56.6297 84.4872 -56.5531 85.3544 -56.3077C86.4564 -55.941 87.7348 -55.8554 88.9085 -55.4929C90.0967 -55.1802 91.305 -54.8658 92.5024 -54.5421C92.7126 -54.494 92.885 -54.3573 93.042 -54.2831C93.108 -54.094 93.1646 -53.9159 93.2475 -53.6846C93.7254 -53.5429 94.1536 -53.4156 94.7717 -53.242C95.5104 -53.4154 96.3116 -53.604 97.2487 -53.8324C97.9472 -53.2746 98.4667 -52.7725 99.1323 -52.1868C100.065 -51.8647 101.074 -51.6076 102.06 -51.1994C103.045 -50.7709 104.05 -50.3408 105.093 -49.887C105.093 -49.6422 105.094 -49.285 105.082 -48.7657C106.106 -48.4462 106.898 -48.0236 107.767 -47.6862C108.162 -47.1536 108.575 -46.5991 109.042 -45.9584C110.734 -45.808 112.066 -44.0347 113.598 -43.3161C115.05 -42.3795 116.5 -41.4024 118.086 -40.3528C118.329 -40.8223 118.545 -41.2125 118.717 -41.5655C118.308 -42.0483 118.065 -42.3133 117.747 -42.6661C118.21 -43.454 118.65 -44.2031 119.113 -44.9911C118.704 -45.7187 118.315 -46.4446 117.916 -47.1613C117.496 -47.8796 117.008 -48.522 116.537 -49.2344C115.364 -50.1069 114.293 -51.0833 113.077 -51.8063C113.04 -52.0951 113.005 -52.2918 112.927 -52.8287C111.863 -53.2842 111.015 -53.6401 110.395 -53.9058L110.362 -53.878ZM93.3322 -55.0752L93.5719 -55.0145L93.573 -54.6574L93.3441 -54.7274L93.3431 -55.0845L93.3322 -55.0752Z" fill="#FFA972"/>
</g>
<g id="circle-dark">
<path id="Vector_3" d="M79.6119 163.517C108.43 163.517 131.791 140.156 131.791 111.338C131.791 82.5205 108.43 59.1592 79.6119 59.1592C50.7943 59.1592 27.433 82.5205 27.433 111.338C27.433 140.156 50.7943 163.517 79.6119 163.517Z" fill="#FF8241"/>
<path id="Vector_4" d="M132.071 96.024C131.884 94.9312 131.64 94.0829 131.338 93.2634C131.022 92.3719 130.49 91.4805 130.288 90.6609C130.13 89.8413 129.843 89.0792 129.526 88.3316C129.21 87.5839 128.879 86.8362 128.52 86.1029C127.873 84.6076 126.881 83.2848 125.946 81.9332C125.443 81.2575 124.997 80.5386 124.494 79.8772C123.976 79.2014 123.516 78.5112 123.128 77.7348C122.754 77.0015 122.294 76.2825 121.776 75.6211C121.201 74.9885 120.583 74.3846 119.979 73.7807C119.476 73.2919 119.088 72.6017 118.814 72.2423C117.578 71.2789 116.413 70.6319 115.392 69.9417C115.249 70.0568 115.119 70.1574 114.99 70.2724C114.4 69.8411 113.983 69.3522 112.704 68.5326C112.675 68.4032 112.603 67.9144 112.517 67.4687C111.295 66.9223 110.475 66.5484 109.584 66.1458C109.497 65.8007 109.425 65.5132 109.353 65.2831C108.189 64.3342 107.067 63.4139 105.96 62.5081C105.184 62.5656 104.58 62.0049 103.918 61.6167C103.041 61.1278 102.15 60.639 101.359 60.1932C100.913 60.1645 100.525 60.1213 100.18 60.1213C99.5043 59.7331 98.9867 59.4455 98.5266 59.1723C98.009 59.1723 97.592 59.1723 97.0313 59.1723C93.5805 57.145 89.0225 57.0156 85.1692 55.6928C84.0045 56.1817 82.3078 55.7935 80.9563 55.6641C80.8412 55.9516 80.7693 56.1098 80.7262 56.2248C78.627 56.1529 76.6572 56.4692 74.2847 56.6993C72.9476 56.2823 71.4378 56.0954 69.6261 55.7935C69.1085 55.9948 68.3609 56.2823 67.5701 56.5986C66.391 56.5986 65.2695 56.9293 64.1768 57.2888C63.0984 57.6626 62.0488 58.0221 61.0711 58.3959C60.5391 58.7841 60.2371 59.0717 59.8345 59.3018C59.4463 59.5318 58.9431 59.7043 58.5693 59.8625C58.2242 59.6756 58.0516 59.5893 57.8072 59.4599C56.6713 59.8913 55.6648 60.5527 54.2989 61.2859C53.8388 61.2859 53.2493 61.2572 52.8179 61.2428C51.8258 61.8179 50.8912 62.4506 50.0285 63.0258C49.1802 63.6153 48.4325 64.2048 47.9437 64.9093C46.1032 65.9158 44.4497 67.2242 42.9112 68.662C42.1636 69.4241 41.3871 70.2005 40.4382 71.1782C39.9924 71.3364 39.3885 71.5521 39.1729 71.6384C37.6919 73.1481 36.4697 74.7153 35.4058 76.1963C34.428 77.7492 33.4935 79.1438 32.3719 80.2941C31.5092 82.1345 30.891 83.4573 30.5459 84.205C29.0361 85.8873 28.0441 87.699 27.1526 89.4387C26.4337 91.2648 26.0023 93.1052 25.7866 94.9887C25.5566 95.4776 25.3121 95.9953 25.0965 96.4554C25.1684 97.0161 25.2115 97.4187 25.2403 97.6631C24.4063 99.9637 24.0037 102.178 23.5292 104.363C23.2992 104.536 23.0979 104.694 22.796 104.939C22.8535 106.233 23.0979 107.297 23.2273 108.418C22.9973 109.683 22.6522 110.992 22.5659 112.085C23.0979 113.609 23.5724 114.903 24.0756 116.326C23.8024 116.887 23.6012 117.476 23.4286 117.98C23.2848 119.231 23.4574 120.496 23.6874 121.776C23.8743 123.055 24.392 124.292 24.5789 125.586C24.8808 128.116 26.6637 130.388 27.0088 132.574C27.7996 134.055 28.7342 135.09 29.0649 136.096C29.5394 137.606 30.3015 138.972 31.1066 140.295C31.5092 140.956 31.9262 141.618 32.3432 142.265C32.8033 142.897 33.3209 143.472 33.8241 144.076C34.3274 144.68 34.8306 145.284 35.2907 145.831C35.2907 146.262 35.2763 146.564 35.262 147.053C36.7429 147.714 37.9651 148.994 39.1585 150.288C39.1441 150.618 39.1297 150.834 39.1441 151.237C39.8199 151.654 40.4813 152.056 41.1571 152.459C41.4446 152.646 41.7466 152.861 41.8616 152.948C42.2211 153.767 42.5374 154.457 42.6668 154.759C44.2915 155.766 45.5137 156.6 46.6496 157.118C47.8286 157.707 49.0364 157.894 50.2154 158.857C50.3017 159.174 50.388 159.432 50.4599 159.691C51.797 160.468 53.0623 160.956 54.2845 161.46C54.7302 161.877 55.1472 162.279 55.5785 162.682C55.9668 162.739 56.3837 162.696 56.7576 162.869C59.2738 163.703 61.7181 164.738 64.3062 165.299C64.7232 165.399 65.0826 165.716 65.4133 165.903C66.6067 165.903 67.4119 165.701 68.7635 166.161C69.3817 166.391 70.2732 166.521 71.0208 166.578L72.7175 166.751C73.2783 166.808 73.8534 166.794 74.4142 166.823L77.8218 166.981C78.9577 167.082 80.0936 166.909 81.2295 166.852C82.351 166.751 83.4869 166.665 84.5796 166.42C85.011 166.305 85.5574 166.348 86.0606 166.291C87.5559 166.118 89.1232 166.147 90.5754 165.744C91.625 165.457 92.574 164.911 93.7961 164.364C94.2994 164.422 94.9176 164.565 95.6222 164.609C96.528 164.033 97.3188 163.545 98.0233 163.113C98.6991 162.955 99.2887 162.854 99.8925 162.668C102.725 161.56 105.471 160.151 108.203 158.814C109.052 158.426 109.943 157.578 110.489 157.017C111.611 156.183 112.689 155.392 113.768 154.601C114.817 153.767 115.795 152.818 116.859 151.884C117.808 150.489 119.188 148.936 121.719 147.311C122.265 146.607 122.668 145.917 123.114 145.284C122.998 144.982 122.898 144.723 122.697 144.191C123.775 143.559 124.537 143.142 125.357 142.61C126.32 140.352 127.772 138.296 128.793 135.967C129.325 134.817 129.972 133.695 130.389 132.487C130.806 131.28 131.194 130.057 131.51 128.835C131.726 128.131 131.856 127.383 132.028 126.635C132.215 125.888 132.445 125.111 132.776 124.321C133.006 123.745 133.164 123.027 133.193 122.207C133.207 121.387 133.193 120.496 133.236 119.604C133.753 118.44 133.768 117.52 133.552 116.642C133.308 115.765 132.963 114.946 132.92 113.939C132.129 114.184 132.028 112.53 131.64 111.337C131.151 112.559 130.777 113.494 130.389 114.486C130.26 113.853 130.145 113.379 130.015 112.732C129.239 113.594 129.167 115.449 128.477 116.197C127.93 116.758 128.074 118.67 127.341 119.547C126.881 120.093 127.312 121.646 126.579 122.408C126.363 123.515 126.162 124.622 125.96 125.672C125.73 126.722 125.385 127.685 125.141 128.562C124.077 130.46 123.229 131.553 122.711 132.545C122.165 133.508 122.006 134.414 121.618 135.521C120.54 136.384 119.763 137.534 119.016 138.915C118.34 139.979 117.52 140.985 116.715 141.977C115.91 142.969 114.975 143.846 114.285 144.939C113.883 145.241 113.523 145.572 113.178 145.902C112.804 146.219 112.445 146.549 112.1 146.894C111.41 147.585 110.748 148.318 110.044 149.008C109.382 149.598 108.563 150.015 107.801 150.532C107.657 150.805 107.499 151.122 107.384 151.323C106.291 151.984 105.141 152.459 104.048 152.919C102.941 153.365 101.934 153.911 100.813 154.213C100.353 154.889 99.6193 155.363 98.8573 155.795C98.4691 155.996 98.0809 156.212 97.6927 156.413C97.2901 156.585 96.9018 156.758 96.5568 156.959C95.8954 156.959 95.2915 156.974 94.3569 156.988C93.9687 157.232 93.5661 157.477 93.1491 157.721C92.7178 157.923 92.272 158.138 91.8263 158.354C90.9061 158.8 89.9283 159.26 88.9075 159.749C88.433 159.634 87.786 159.375 87.0527 159.116C85.5142 159.777 83.5875 159.217 81.9196 159.849C81.9196 160.166 81.934 160.468 81.9484 160.741C80.6256 160.482 79.4897 160.353 78.1381 159.993C76.9591 160.957 74.9317 160.525 73.6233 160.108C72.1136 159.461 71.3084 159.763 70.4888 159.835C66.7505 159.03 63.7886 157.175 60.079 156.873C59.0725 156.24 58.066 155.536 56.8582 155.004C56.2687 154.702 55.6073 154.486 54.9603 154.141C54.3133 153.81 53.6231 153.465 52.8898 153.092C52.8467 152.905 52.7173 152.445 52.5879 151.927C51.7252 151.74 51.1644 151.682 50.6468 151.381C49.6115 150.834 48.2887 150.791 47.5411 149.382C45.4274 147.901 44.2484 145.744 42.408 144.105C42.408 143.731 42.408 143.458 42.4224 143.113C41.4303 142.408 40.1793 141.56 39.8343 140.798C39.3166 139.59 38.4683 138.929 37.8788 137.994C37.39 137.247 36.8867 136.513 36.326 135.737C36.0528 135.349 35.7508 134.946 35.4776 134.515C35.2188 134.069 34.96 133.595 34.6868 133.106C34.7156 132.818 34.7731 132.301 34.8306 131.855C34.3561 131.265 33.8673 130.733 33.4647 130.187C33.0765 129.626 32.717 129.08 32.3576 128.548C32.3719 127.743 32.0988 127.038 31.7824 126.334C31.4517 125.643 31.2073 124.924 31.0779 124.22C30.8909 122.696 30.7903 121.287 30.9197 119.791C30.4309 118.526 29.7119 117.491 29.9707 115.751C30.1002 114.989 30.0139 113.335 29.3812 112.703C29.5394 111.567 29.8845 110.445 30.2439 109.266C29.9707 107.785 30.1145 106.189 30.5027 104.651C30.8478 103.098 31.006 101.56 30.9053 100.05C31.3079 99.9062 31.653 99.7768 32.1994 99.5611C31.9118 98.9428 31.7105 98.5258 31.538 98.1664C31.6386 97.7063 31.768 97.2462 31.9118 96.8004C32.0844 96.3691 32.3 95.9521 32.5013 95.5207C32.9183 94.6868 33.3209 93.8673 33.7379 93.0477C34.5718 91.423 35.4345 89.8557 35.6214 87.8427C36.0959 87.5408 36.5704 87.2244 36.8723 87.0375C37.8213 85.5709 38.2527 84.205 39.4461 83.0835C39.863 82.6521 40.2081 82.0483 40.5244 81.3869C40.6826 81.0562 40.8551 80.7111 41.0133 80.3804C41.2002 80.0497 41.4015 79.7477 41.6172 79.4602C41.9191 79.0432 42.3936 78.6694 42.7962 78.3099C43.4001 77.7923 43.8602 77.2315 44.2915 76.6852C44.7516 76.1532 45.1111 75.6068 45.4131 75.0029C46.0745 74.5715 46.7503 74.1402 47.4261 73.7088C48.1306 73.3062 48.8783 72.9612 49.6259 72.5729C50.388 71.5665 51.035 70.4018 52.7173 70.0136C53.1917 69.8986 53.8675 69.2372 54.457 68.8346L55.3197 68.2307L56.2399 67.7131L58.0803 66.6778C58.6699 66.6778 59.13 66.6778 59.4607 66.6778C60.6972 66.0739 61.79 65.6426 63.2997 64.9668C63.3716 64.7799 63.4866 64.406 63.616 64.0322C63.8029 63.9891 63.9755 63.9747 64.1768 63.9603C64.4068 64.3342 64.6513 64.708 64.9676 65.2256C66.4054 63.5002 69.2236 64.1616 70.834 63.2414C70.834 63.0689 70.834 62.9107 70.834 62.7669C71.481 62.4506 72.0848 62.3931 72.6887 62.3931C72.9907 62.3931 73.2926 62.4075 73.5946 62.4218C73.8965 62.465 74.2128 62.4937 74.5435 62.5081C74.6298 62.7669 74.7305 63.0258 74.8455 63.3421C75.7082 63.112 76.5421 62.8963 77.3617 62.695C77.7787 62.5944 78.1957 62.4794 78.5982 62.3787L79.8492 62.1918L80.7119 62.8964C81.9196 62.9107 83.1274 62.7813 84.3208 62.9107C85.5142 63.0114 86.6932 63.1264 87.8722 63.227C88.9362 63.9316 90.2159 64.4636 91.5675 64.7943C92.9334 65.0962 94.2562 65.5995 95.349 66.2896C96.1685 65.9445 97.6639 66.2896 98.1384 66.8073C99.3893 67.9431 100.842 68.1157 102.15 68.7771C103.545 69.5967 104.666 70.6031 106.161 71.3939C107.441 72.1703 108.879 72.8893 109.986 74.2696C110.59 75.0604 111.927 75.8368 112.948 76.4263C113.681 76.8433 114.055 77.2603 114.558 78.0079C115.162 79 116.083 79.8915 116.744 80.9267C117.448 81.9332 118.167 82.9541 118.872 83.9749C119.001 84.1475 119.044 84.3632 119.116 84.5213C119.044 84.7082 118.973 84.8808 118.886 85.1108C119.159 85.5278 119.404 85.9017 119.763 86.4337C120.439 86.7787 121.172 87.1526 122.035 87.5839C122.208 88.461 122.28 89.1799 122.409 90.057C122.912 90.9053 123.516 91.7536 124.005 92.7026C124.479 93.6659 124.968 94.6437 125.472 95.6645C125.313 95.8514 125.083 96.1246 124.738 96.5128C125.313 97.4187 125.644 98.2526 126.09 99.0722C126.047 99.7336 126.004 100.424 125.946 101.215C127.139 102.422 127.01 104.637 127.715 106.175C128.218 107.829 128.692 109.511 129.224 111.337C129.713 111.136 130.13 110.977 130.49 110.819C130.49 110.187 130.475 109.827 130.461 109.353C131.324 109.051 132.143 108.763 133.006 108.461C133.164 107.642 133.337 106.837 133.495 106.031C133.638 105.212 133.682 104.407 133.782 103.558C133.452 102.135 133.265 100.697 132.804 99.3598C132.963 99.1153 133.063 98.9428 133.351 98.4827C132.833 97.4475 132.416 96.6279 132.114 96.024H132.071ZM119.85 84.1044L119.993 84.3057L119.763 84.5788L119.634 84.3775L119.864 84.1044H119.85Z" fill="#FF8241"/>
</g>
<g id="lines">
<path id="Vector_5" d="M130.012 68.8853C129.804 68.8491 129.632 68.8038 129.469 68.8038C129.288 68.8038 129.089 68.9215 128.935 68.8581C128.31 68.6046 127.695 68.659 127.07 68.7948C126.744 68.8672 126.427 68.9577 126.101 68.7676C125.794 68.5866 125.459 68.6499 125.133 68.7042C124.997 68.7314 124.852 68.6228 124.771 68.5956C124.472 68.7586 124.227 68.8944 123.992 69.0211C123.992 69.1388 123.983 69.2384 123.974 69.347C123.829 69.3742 123.711 69.3923 123.413 69.4466C123.395 69.3832 123.322 69.175 123.259 68.9849C123.005 69.1659 122.833 69.2836 122.652 69.4194C122.598 69.2745 122.562 69.1569 122.516 69.0573C122.227 68.9215 121.955 68.7948 121.684 68.6771C121.557 68.9759 121.403 68.8129 121.258 68.7767C121.068 68.7314 120.878 68.7043 120.697 68.6681C120.615 68.7676 120.543 68.8672 120.489 68.9396C120.344 68.8581 120.226 68.7948 120.127 68.7404C120.036 68.8491 119.955 68.9396 119.855 69.0573C119.104 68.6228 118.253 69.1298 117.492 68.6228C117.284 69.0664 116.949 68.8129 116.687 68.7857C116.668 68.9758 116.65 69.0754 116.641 69.1478C116.234 69.2202 115.854 69.2927 115.392 69.3741C115.139 69.1026 114.858 68.7948 114.523 68.4508C114.414 68.5232 114.27 68.6318 114.107 68.7495C113.663 68.4327 113.219 68.7948 112.821 68.7767C112.703 68.8944 112.631 68.9939 112.54 69.0392C112.45 69.0845 112.35 69.0844 112.278 69.0935C112.233 68.9124 112.206 68.8129 112.169 68.6861C111.934 68.7314 111.708 68.7676 111.418 68.8219C111.336 68.6861 111.246 68.5142 111.174 68.3965C110.739 68.5594 110.323 68.4236 110.024 68.8491C109.626 68.7133 109.227 68.7405 108.82 68.8491C108.612 68.9034 108.403 68.9305 108.141 68.9758C108.059 68.8581 107.951 68.7133 107.905 68.6499C107.1 68.5685 106.403 69.1116 105.805 68.8219C105.416 68.9577 105.135 69.0664 104.981 69.1207C104.131 68.5594 103.424 68.5322 102.7 69.0844C102.601 69.0211 102.492 68.9577 102.392 68.8944C102.293 69.0211 102.22 69.1116 102.175 69.175C101.704 69.0845 101.27 69.003 100.844 68.9124C100.808 68.7857 100.772 68.6681 100.718 68.5051C100.473 68.6681 100.274 68.7948 100.066 68.9306C99.8215 68.8129 99.568 68.6861 99.3597 68.5866C99.061 68.8762 98.8075 69.1297 98.5269 69.4013C98.4273 69.2203 98.3187 69.0392 98.2192 68.8853C97.7484 68.4689 97.2415 68.831 96.7436 68.6771C96.2638 68.5323 95.7478 69.003 95.3314 68.7586C95.0145 68.8672 94.7519 69.0754 94.5528 68.9939C93.9553 68.7767 93.3578 68.7857 92.7604 68.9306C92.6065 68.9668 92.4616 68.9849 92.3168 69.0121C92.2534 68.8491 92.2082 68.7223 92.1357 68.5322C91.8551 68.9487 91.5202 68.9668 91.1762 68.9758C91.1309 68.831 91.1037 68.7405 91.0494 68.5504C90.9046 68.6499 90.7597 68.7405 90.6058 68.831C90.5425 68.8672 90.47 68.8944 90.4429 68.9034C90.289 68.6771 90.1623 68.487 90.0989 68.3965C89.7368 68.5232 89.4561 68.5504 89.2298 68.7133C88.9854 68.8853 88.7682 69.1116 88.4785 68.9939C88.4332 68.8581 88.397 68.7405 88.3608 68.6228C88.0711 68.6771 87.8086 68.7224 87.5551 68.7676C87.4465 68.6499 87.3378 68.5413 87.2383 68.4327C87.1658 68.5051 87.0934 68.6409 87.021 68.6499C86.5141 68.6861 86.0161 68.7042 85.5092 68.7042C85.4277 68.7042 85.3462 68.5685 85.2738 68.5051C85.0565 68.6952 84.9117 68.9668 84.6402 68.7857C84.5134 68.7043 84.3414 68.7042 84.2056 68.7404C83.3456 68.9215 82.4584 68.6771 81.5984 68.9849C81.5169 69.012 81.4083 68.9396 81.3087 68.9215C81.019 68.8672 80.7294 68.7586 80.4397 68.7857C80.2315 68.8038 80.0323 68.9849 79.7698 69.1207C79.6793 68.9939 79.5706 68.84 79.4529 68.659C79.2538 68.8038 79.0818 68.9215 78.9279 69.0301C78.7921 68.9758 78.6835 68.9125 78.5658 68.8944C77.9864 68.8038 77.3889 68.8672 76.8096 68.6318C76.6376 68.5594 76.4022 68.7495 76.2574 68.8038C75.7233 68.7948 75.2344 68.7857 74.6912 68.7676C74.3744 69.0754 73.967 69.012 73.4239 68.5413C73.2519 68.5685 73.107 68.5956 72.9531 68.6228C72.9169 68.7948 72.8897 68.9396 72.8354 69.2474C72.6091 68.9306 72.4643 68.7314 72.2923 68.487C71.378 68.8672 70.3731 68.5051 69.4136 68.8038C69.1329 68.8943 68.8432 68.9577 68.5173 68.8038C68.282 68.6952 67.9561 68.9578 67.6121 69.0754C67.1413 68.6228 66.915 69.5099 66.5257 69.6276C66.5801 70.1165 66.2542 70.2341 66.0188 70.5148C66.2723 70.7864 66.4624 70.9855 66.6706 71.2028C66.5438 71.3114 66.4442 71.3839 66.3175 71.4925C66.4986 71.9542 66.8969 71.9451 67.0598 72.3525C67.1956 72.6784 67.5939 72.3706 67.8021 72.7598C67.9379 73.0042 68.2457 72.5878 68.4449 72.8866C68.9338 72.796 69.4135 72.7055 69.8028 72.6331C70.7262 73.1582 70.9887 73.1853 71.4866 72.8232C71.7672 73.1129 72.075 73.1763 72.41 73.0948C72.9622 72.9681 73.5325 73.2577 74.0756 73.0043C74.5011 73.2487 74.9266 73.0224 75.3521 73.0043C75.5422 72.9952 75.7413 73.0586 75.9405 73.0948C76.0039 73.0133 76.0672 72.9138 76.1125 72.8504C76.6647 73.0676 77.1717 73.2759 77.6696 73.475C77.9864 72.959 78.4209 73.1853 78.7649 73.0043C78.9007 73.1401 79.0274 73.2668 79.2176 73.4569C79.6068 73.2306 80.0413 72.9862 80.5211 72.7146C80.6207 72.8685 80.7475 73.0676 80.8923 73.294C81.2454 73.0043 81.6528 73.6198 82.033 73.2125C82.033 73.0133 82.033 72.8232 82.033 72.6512C82.3136 72.8413 82.558 73.0042 82.8567 73.2125C83.1102 72.5607 83.5448 72.7779 83.8435 72.9952C84.1875 73.2577 84.3505 72.9952 84.5225 72.8685C85.3372 73.0133 86.0976 73.5565 86.8761 72.8956C87.3831 73.2306 87.9353 73.131 88.6414 72.9499C88.6686 73.0314 88.7501 73.2397 88.8315 73.475C89.0126 73.303 89.1212 73.1491 89.257 73.0858C89.5105 72.9681 89.7458 72.4973 90.0627 72.9228C90.6149 72.7237 91.1218 73.294 91.665 73.0676C91.7283 73.2306 91.7737 73.3482 91.828 73.4931C92.0905 73.3573 92.4073 73.0405 92.5793 73.1491C92.8599 73.3211 93.0863 73.2125 93.3307 73.1853C93.72 73.1401 94.1092 73.0495 94.6071 72.959C94.6614 73.0495 94.7519 73.2306 94.8425 73.3755C95.1684 73.1401 95.449 72.9409 95.7206 72.7418C96.0465 73.1129 96.3814 72.7146 96.6983 72.8051C97.0242 72.9047 97.332 73.1401 97.6488 73.3211C97.9476 73.122 98.1829 72.8232 98.5541 73.0767C98.717 73.1853 99.0791 73.1763 99.224 72.8051C99.4684 72.9771 99.7128 73.14 99.9754 73.3301C100.618 72.8866 101.369 73.6561 101.994 72.959C102.048 73.1763 102.094 73.3664 102.166 73.6742C102.284 73.4026 102.356 73.2125 102.429 73.0495C103.252 72.9771 104.031 73.8824 104.846 73.0133C104.954 73.1672 105.063 73.3211 105.135 73.4207C105.525 73.4388 105.823 73.294 106.176 73.4207C106.439 73.5203 106.783 73.1853 107.1 73.0858C107.208 73.0496 107.344 73.1129 107.462 73.1491C107.806 73.2578 108.105 73.1491 108.376 72.8413C108.72 73.0043 109.064 73.1763 109.426 73.3483C109.698 73.131 109.951 72.8142 110.304 73.131C110.404 73.2215 110.612 73.0948 110.766 73.0676C111.074 73.0133 111.373 72.959 111.68 72.8956C111.798 73.0586 111.889 73.1853 111.961 73.2758C112.26 73.2215 112.522 73.1763 112.884 73.1038C112.912 73.0042 112.966 72.8142 113.011 72.6241C113.047 72.6422 113.093 72.6603 113.129 72.6784C113.156 72.9409 113.183 73.2125 113.219 73.5746C113.627 72.7327 114.188 73.647 114.577 73.1491C114.577 73.0496 114.586 72.9409 114.595 72.8594C114.894 72.5969 115.12 72.9409 115.401 72.9952C115.419 73.1581 115.437 73.3302 115.455 73.5293C115.845 73.303 116.198 73.0948 116.56 72.8775C116.623 73.0133 116.687 73.1491 116.75 73.294C117.284 73.1944 117.8 73.1038 118.316 73.0043C118.832 73.7013 119.529 73.2306 120.081 73.5836C120.226 73.1853 120.552 73.131 120.697 73.2487C121.05 73.5384 121.358 73.2759 121.675 73.2487C122.028 73.2125 122.354 73.4388 122.725 73.3121C123.051 73.1944 123.395 73.0767 123.775 73.2758C123.992 73.3845 124.318 73.1853 124.571 73.0314C124.753 72.9228 124.87 72.8866 125.06 72.9771C125.305 73.0948 125.585 73.1129 125.848 73.1491C126.119 73.1853 126.391 73.1944 126.663 73.2215C126.708 73.2215 126.753 73.2668 126.789 73.2849C126.817 73.3845 126.844 73.4841 126.871 73.6018C126.979 73.5927 127.079 73.5836 127.224 73.5655C127.36 73.312 127.514 73.0405 127.695 72.7236C127.876 72.8956 128.021 73.0314 128.211 73.2035C128.645 73.0677 129.107 72.9228 129.596 72.7689C129.623 72.9047 129.668 73.1038 129.722 73.3845C129.949 73.2396 130.148 73.1129 130.347 72.9861C130.483 73.1219 130.628 73.2577 130.8 73.4116C131.117 72.8323 131.578 73.0857 131.931 72.8141C132.293 72.5607 132.665 72.3072 133.054 72.0356C133.009 71.7188 132.981 71.4563 132.945 71.2209C132.818 71.2119 132.737 71.2028 132.646 71.1937C132.592 70.6415 132.547 70.1165 132.493 69.5643C132.176 69.3017 131.877 69.0483 131.56 68.7857C131.279 68.8401 130.999 68.8853 130.736 68.9396C130.7 68.8129 130.673 68.7133 130.601 68.4689C130.383 68.6228 130.211 68.7495 130.085 68.8401L130.012 68.8853ZM126.762 72.7961C126.762 72.7961 126.798 72.7961 126.817 72.787C126.817 72.8594 126.835 72.9318 126.835 73.0043C126.817 73.0043 126.798 73.0043 126.78 73.0133C126.78 72.9409 126.762 72.8685 126.762 72.7961Z" fill="#FFE4D5"/>
<path id="Vector_6" d="M77.3616 84.99C77.5879 85.0262 77.769 85.0715 77.95 85.0715C78.1401 85.0715 78.3574 84.9538 78.5294 85.0172C79.1993 85.2707 79.8692 85.2164 80.5481 85.0806C80.8921 85.0082 81.2452 84.9176 81.5982 85.1077C81.9332 85.2888 82.2863 85.2254 82.6484 85.1711C82.7932 85.1439 82.9562 85.2525 83.0467 85.2797C83.3635 85.1168 83.6351 84.981 83.8886 84.8543C83.8886 84.7366 83.8976 84.637 83.9067 84.5283C84.0606 84.5012 84.1964 84.4831 84.5132 84.4288C84.5313 84.4921 84.6128 84.7003 84.6762 84.8904C84.9477 84.7094 85.1378 84.5917 85.337 84.4559C85.3913 84.6008 85.4366 84.7184 85.4819 84.818C85.7896 84.9538 86.0884 85.0806 86.3781 85.1983C86.5138 84.8995 86.6768 85.0624 86.8398 85.0986C87.048 85.1439 87.2562 85.1711 87.4463 85.2073C87.5368 85.1077 87.6092 85.0081 87.6726 84.9357C87.8355 85.0172 87.9532 85.0806 88.0618 85.1349C88.1614 85.0263 88.2429 84.9357 88.3515 84.818C89.1572 85.2525 90.0806 84.7456 90.9135 85.2526C91.1398 84.809 91.5018 85.0625 91.7825 85.0896C91.8096 84.8995 91.8187 84.7999 91.8278 84.7275C92.2623 84.6551 92.6787 84.5827 93.1766 84.5012C93.4482 84.7728 93.756 85.0806 94.1181 85.4246C94.2358 85.3522 94.3897 85.2435 94.5617 85.1258C95.0414 85.4427 95.5213 85.0805 95.9558 85.0986C96.0825 84.981 96.164 84.8814 96.2636 84.8361C96.3541 84.7909 96.4627 84.7909 96.5533 84.7818C96.6076 84.9629 96.6347 85.0625 96.6709 85.1892C96.9244 85.1439 97.1689 85.1077 97.4857 85.0534C97.5672 85.1892 97.6758 85.3612 97.7573 85.4789C98.228 85.3159 98.6807 85.4517 99.0065 85.0263C99.4411 85.1621 99.8756 85.1349 100.31 85.0263C100.536 84.9719 100.763 84.9448 101.043 84.8995C101.134 85.0172 101.252 85.162 101.297 85.2254C102.166 85.3069 102.917 84.7637 103.569 85.0534C103.985 84.9176 104.293 84.809 104.456 84.7546C105.38 85.3159 106.14 85.3431 106.919 84.7909C107.027 84.8543 107.145 84.9176 107.254 84.981C107.362 84.8542 107.444 84.7637 107.489 84.7003C107.996 84.7908 108.467 84.8724 108.928 84.9629C108.973 85.0896 109.01 85.2073 109.064 85.3703C109.327 85.2073 109.544 85.0806 109.77 84.9448C110.033 85.0624 110.304 85.1892 110.531 85.2888C110.847 84.9991 111.128 84.7456 111.427 84.474C111.535 84.6551 111.653 84.8361 111.753 84.99C112.26 85.4064 112.803 85.0444 113.346 85.1983C113.862 85.3431 114.423 84.8723 114.876 85.1168C115.22 85.0081 115.5 84.7999 115.718 84.8814C116.37 85.0987 117.003 85.0896 117.655 84.9448C117.818 84.9086 117.981 84.8905 118.126 84.8633C118.189 85.0263 118.243 85.153 118.316 85.3431C118.615 84.9267 118.986 84.9086 119.348 84.8995C119.393 85.0444 119.42 85.1349 119.484 85.325C119.647 85.2254 119.8 85.1349 119.963 85.0443C120.036 85.0081 120.108 84.981 120.145 84.9719C120.307 85.1983 120.452 85.3884 120.516 85.4789C120.905 85.3522 121.204 85.325 121.457 85.162C121.729 84.99 121.964 84.7637 122.272 84.8814C122.317 85.0172 122.362 85.1349 122.399 85.2526C122.715 85.1983 122.996 85.153 123.268 85.1077C123.385 85.2254 123.503 85.334 123.612 85.4426C123.693 85.3702 123.766 85.2344 123.847 85.2254C124.39 85.1892 124.933 85.1711 125.486 85.1711C125.576 85.1711 125.667 85.3069 125.739 85.3703C125.974 85.1802 126.128 84.9086 126.427 85.0896C126.563 85.1711 126.744 85.1711 126.898 85.1349C127.83 84.9538 128.79 85.1982 129.713 84.8904C129.804 84.8633 129.921 84.9357 130.021 84.9538C130.338 85.0081 130.655 85.1168 130.962 85.0896C131.189 85.0715 131.406 84.8904 131.678 84.7546C131.777 84.8814 131.895 85.0353 132.022 85.2163C132.239 85.0715 132.429 84.9538 132.592 84.8452C132.737 84.8995 132.854 84.9628 132.99 84.981C133.624 85.0715 134.258 85.0081 134.882 85.2435C135.072 85.3159 135.317 85.1258 135.48 85.0715C136.059 85.0806 136.584 85.0896 137.173 85.1077C137.508 84.7999 137.951 84.8633 138.549 85.334C138.73 85.3069 138.893 85.2797 139.056 85.2526C139.092 85.0806 139.119 84.9357 139.182 84.6279C139.427 84.9448 139.581 85.1439 139.771 85.3883C140.766 85.0081 141.844 85.3703 142.885 85.0715C143.193 84.981 143.5 84.9176 143.853 85.0715C144.107 85.1801 144.46 84.9176 144.84 84.7999C145.356 85.2526 145.592 84.3654 146.017 84.2477C145.954 83.7588 146.307 83.6412 146.569 83.3605C146.298 83.089 146.089 82.8898 145.872 82.6725C146.008 82.5639 146.117 82.4915 146.261 82.3828C146.062 81.9212 145.637 81.9303 145.456 81.5229C145.311 81.197 144.885 81.5048 144.65 81.1155C144.505 80.8711 144.17 81.2875 143.953 80.9887C143.428 81.0793 142.903 81.1698 142.477 81.2423C141.482 80.7172 141.201 80.69 140.658 81.0521C140.359 80.7624 140.024 80.6991 139.653 80.7806C139.056 80.9073 138.44 80.6176 137.852 80.8711C137.39 80.6266 136.928 80.853 136.467 80.8711C136.258 80.8801 136.05 80.8168 135.833 80.7806C135.769 80.862 135.697 80.9616 135.643 81.0249C135.045 80.8077 134.493 80.5995 133.959 80.4003C133.615 80.9163 133.144 80.69 132.773 80.8711C132.628 80.7353 132.492 80.6085 132.284 80.4184C131.859 80.6447 131.397 80.8892 130.872 81.1608C130.772 81.0069 130.628 80.8077 130.474 80.5814C130.093 80.8711 129.65 80.2555 129.242 80.6629C129.242 80.862 129.242 81.0521 129.242 81.2241C128.935 81.034 128.672 80.8711 128.355 80.6629C128.084 81.3147 127.613 81.0974 127.296 80.8801C126.925 80.6176 126.744 80.8801 126.563 81.0069C125.676 80.862 124.861 80.3188 124.019 80.9797C123.467 80.6447 122.878 80.7443 122.109 80.9254C122.073 80.8439 121.991 80.6357 121.901 80.4003C121.702 80.5723 121.584 80.7262 121.448 80.7896C121.167 80.9073 120.923 81.378 120.579 80.9526C119.982 81.1517 119.429 80.5814 118.85 80.8077C118.787 80.6447 118.741 80.5271 118.678 80.3822C118.397 80.518 118.053 80.8349 117.863 80.7262C117.564 80.5542 117.32 80.6628 117.058 80.69C116.632 80.7353 116.216 80.8258 115.682 80.9163C115.627 80.8258 115.519 80.6448 115.428 80.4999C115.075 80.7353 114.776 80.9344 114.478 81.1336C114.124 80.7624 113.762 81.1608 113.427 81.0702C113.074 80.9707 112.739 80.7353 112.395 80.5542C112.079 80.7534 111.816 81.0521 111.418 80.7986C111.246 80.69 110.847 80.6991 110.694 81.0702C110.431 80.8982 110.168 80.7353 109.879 80.5452C109.182 80.9888 108.376 80.2193 107.697 80.9163C107.643 80.699 107.588 80.509 107.516 80.2012C107.389 80.4728 107.308 80.6629 107.235 80.8258C106.348 80.8982 105.497 79.9929 104.619 80.862C104.501 80.7081 104.384 80.5542 104.311 80.4546C103.895 80.4365 103.569 80.5814 103.189 80.4546C102.908 80.355 102.537 80.69 102.193 80.7896C102.075 80.8258 101.931 80.7625 101.804 80.7262C101.433 80.6176 101.107 80.7262 100.817 81.034C100.446 80.8711 100.075 80.6991 99.6855 80.5271C99.3958 80.7443 99.1242 81.0612 98.7349 80.7443C98.6263 80.6538 98.409 80.7805 98.237 80.8077C97.9111 80.862 97.5762 80.9163 97.2503 80.9797C97.1236 80.8167 97.024 80.69 96.9516 80.5995C96.6257 80.6538 96.3451 80.6991 95.9558 80.7715C95.9286 80.8711 95.8743 81.0612 95.82 81.2513C95.7747 81.2332 95.7385 81.215 95.6932 81.1969C95.6661 80.9344 95.6389 80.6628 95.6027 80.3007C95.1682 81.1426 94.5526 80.2283 94.1362 80.7262C94.1362 80.8258 94.1271 80.9345 94.1181 81.0159C93.8012 81.2785 93.5568 80.9344 93.249 80.8801C93.2309 80.7172 93.2128 80.5451 93.1947 80.346C92.7783 80.5723 92.3891 80.7805 91.9998 80.9978C91.9274 80.862 91.864 80.7262 91.7915 80.5814C91.2212 80.6809 90.66 80.7715 90.0987 80.8711C89.5374 80.174 88.7951 80.6447 88.1886 80.2917C88.0347 80.69 87.6726 80.7443 87.5278 80.6266C87.1476 80.3369 86.8126 80.5995 86.4686 80.6266C86.0884 80.6628 85.7353 80.4366 85.3279 80.5633C84.9749 80.681 84.6038 80.7987 84.1873 80.5995C83.952 80.4909 83.5989 80.69 83.3273 80.8439C83.1372 80.9526 83.0105 80.9888 82.8022 80.8982C82.5307 80.7806 82.2319 80.7625 81.9422 80.7262C81.6525 80.69 81.3538 80.681 81.0641 80.6538C81.0098 80.6538 80.9645 80.6085 80.9193 80.5904C80.8921 80.4909 80.865 80.3913 80.8288 80.2736C80.7111 80.2827 80.6025 80.2917 80.4486 80.3098C80.2947 80.5633 80.1317 80.8348 79.9416 81.1517C79.7425 80.9797 79.5885 80.8439 79.3894 80.6719C78.9277 80.8077 78.4208 80.9525 77.8957 81.1064C77.8686 80.9706 77.8233 80.7715 77.7599 80.4909C77.5155 80.6357 77.2982 80.7624 77.09 80.8892C76.9361 80.7534 76.7822 80.6176 76.6012 80.4637C76.2572 81.0431 75.7593 80.7896 75.379 81.0612C74.9807 81.3147 74.5915 81.5681 74.166 81.8397C74.2113 82.1565 74.2475 82.4191 74.2837 82.6545C74.4285 82.6635 74.501 82.6725 74.6096 82.6816C74.6639 83.2338 74.7182 83.7589 74.7816 84.3111C75.1165 84.5736 75.4515 84.8271 75.7864 85.0896C76.0852 85.0353 76.3929 84.99 76.6826 84.9357C76.7279 85.0624 76.7551 85.162 76.8366 85.4065C77.0719 85.2526 77.253 85.1258 77.3888 85.0353L77.3616 84.99ZM80.874 81.0793C80.874 81.0793 80.8378 81.0793 80.8197 81.0883C80.8197 81.0159 80.8016 80.9435 80.8016 80.8711C80.8197 80.8711 80.8378 80.8711 80.8559 80.862C80.8559 80.9344 80.874 81.0068 80.874 81.0793Z" fill="#FFE4D5"/>
<path id="Vector_7" d="M86.4054 96.7586C86.6679 96.7948 86.8671 96.8401 87.0753 96.8401C87.2926 96.8401 87.537 96.7224 87.7361 96.7858C88.5056 97.0392 89.266 96.9849 90.0355 96.8491C90.4338 96.7767 90.8231 96.6862 91.2305 96.8763C91.6107 97.0573 92.018 96.994 92.4164 96.9396C92.5793 96.9125 92.7604 97.0211 92.869 97.0483C93.2311 96.8853 93.5389 96.7496 93.8286 96.6228C93.8286 96.5051 93.8376 96.4055 93.8467 96.2969C94.0187 96.2697 94.1726 96.2516 94.5347 96.1973C94.5619 96.2607 94.6433 96.4689 94.7248 96.659C95.0326 96.478 95.2498 96.3603 95.4762 96.2245C95.5395 96.3693 95.5938 96.487 95.6391 96.5866C95.9922 96.7224 96.3271 96.8491 96.6621 96.9668C96.816 96.6681 97.0061 96.831 97.1871 96.8672C97.4225 96.9125 97.6579 96.9396 97.8751 96.9758C97.9747 96.8762 98.0652 96.7767 98.1377 96.7043C98.3187 96.7857 98.4545 96.8491 98.5812 96.9034C98.6989 96.7948 98.7894 96.7043 98.9162 96.5866C99.8395 97.0211 100.89 96.5142 101.831 97.0211C102.085 96.5776 102.501 96.831 102.818 96.8582C102.845 96.6681 102.854 96.5685 102.872 96.4961C103.37 96.4236 103.841 96.3512 104.411 96.2697C104.719 96.5413 105.072 96.8491 105.479 97.1931C105.606 97.1207 105.796 97.0121 105.986 96.8944C106.529 97.2112 107.082 96.8491 107.571 96.8672C107.715 96.7495 107.806 96.65 107.915 96.6047C108.023 96.5594 108.15 96.5594 108.24 96.5504C108.295 96.7314 108.331 96.831 108.367 96.9578C108.648 96.9125 108.928 96.8763 109.3 96.8219C109.399 96.9577 109.517 97.1298 109.607 97.2474C110.141 97.0845 110.657 97.2203 111.029 96.7948C111.517 96.9306 112.015 96.9034 112.504 96.7948C112.758 96.7405 113.011 96.7133 113.337 96.6681C113.437 96.7857 113.572 96.9306 113.627 96.9939C114.623 97.0754 115.474 96.5323 116.216 96.8219C116.696 96.6862 117.04 96.5775 117.23 96.5232C118.28 97.0845 119.149 97.1117 120.036 96.5594C120.163 96.6228 120.299 96.6861 120.416 96.7495C120.543 96.6228 120.634 96.5322 120.688 96.4689C121.267 96.5594 121.801 96.6409 122.326 96.7314C122.372 96.8582 122.417 96.9759 122.48 97.1388C122.779 96.9759 123.023 96.8491 123.286 96.7133C123.585 96.831 123.892 96.9577 124.155 97.0573C124.517 96.7676 124.834 96.5141 125.178 96.2426C125.305 96.4236 125.441 96.6047 125.549 96.7586C126.129 97.175 126.744 96.8129 127.36 96.9668C127.948 97.1117 128.582 96.6409 129.098 96.8853C129.487 96.7767 129.804 96.5685 130.057 96.6499C130.8 96.8672 131.524 96.8582 132.257 96.7133C132.438 96.6771 132.628 96.659 132.8 96.6319C132.873 96.7948 132.927 96.9215 133.018 97.1116C133.362 96.6952 133.778 96.6771 134.194 96.6681C134.249 96.8129 134.285 96.9034 134.348 97.0935C134.529 96.9939 134.71 96.9034 134.891 96.8129C134.973 96.7767 135.054 96.7496 135.091 96.7405C135.281 96.9668 135.444 97.1569 135.516 97.2474C135.96 97.1207 136.304 97.0935 136.593 96.9306C136.901 96.7586 137.164 96.5323 137.517 96.6499C137.571 96.7857 137.616 96.9034 137.662 97.0211C138.024 96.9668 138.341 96.9215 138.648 96.8763C138.784 96.9939 138.911 97.1026 139.038 97.2112C139.128 97.1388 139.21 97.003 139.309 96.9939C139.925 96.9577 140.549 96.9396 141.174 96.9396C141.274 96.9396 141.373 97.0755 141.464 97.1388C141.735 96.9487 141.907 96.6771 142.242 96.8582C142.396 96.9397 142.604 96.9397 142.776 96.9034C143.836 96.7224 144.922 96.9668 145.981 96.659C146.09 96.6318 146.216 96.7043 146.334 96.7224C146.687 96.7767 147.049 96.8853 147.402 96.8582C147.656 96.8401 147.909 96.659 148.217 96.5232C148.326 96.6499 148.461 96.8038 148.615 96.9849C148.86 96.84 149.077 96.7224 149.267 96.6138C149.43 96.6681 149.566 96.7314 149.72 96.7495C150.435 96.84 151.168 96.7767 151.874 97.0121C152.092 97.0845 152.372 96.8944 152.553 96.8401C153.214 96.8491 153.812 96.8582 154.481 96.8763C154.871 96.5685 155.369 96.6318 156.048 97.1026C156.256 97.0754 156.446 97.0483 156.618 97.0211C156.654 96.8491 156.69 96.7043 156.763 96.3965C157.034 96.7133 157.215 96.9125 157.433 97.1569C158.564 96.7767 159.786 97.1388 160.972 96.8401C161.325 96.7495 161.678 96.6862 162.077 96.8401C162.366 96.9487 162.774 96.6862 163.19 96.5685C163.77 97.0211 164.041 96.1339 164.53 96.0162C164.458 95.5274 164.865 95.4097 165.155 95.1291C164.847 94.8575 164.611 94.6584 164.358 94.4411C164.521 94.3325 164.639 94.26 164.792 94.1514C164.566 93.6897 164.086 93.6988 163.878 93.2914C163.715 92.9655 163.226 93.2733 162.964 92.8841C162.801 92.6396 162.412 93.056 162.176 92.7573C161.579 92.8478 160.981 92.9384 160.502 93.0108C159.37 92.4858 159.044 92.4586 158.437 92.8207C158.093 92.531 157.722 92.4676 157.297 92.5491C156.618 92.6758 155.921 92.3861 155.242 92.6396C154.717 92.3952 154.192 92.6215 153.667 92.6396C153.431 92.6487 153.187 92.5853 152.943 92.5491C152.87 92.6306 152.78 92.7301 152.725 92.7935C152.046 92.5762 151.422 92.368 150.806 92.1689C150.417 92.6849 149.883 92.4586 149.457 92.6396C149.294 92.5038 149.14 92.3771 148.896 92.187C148.416 92.4133 147.882 92.6577 147.285 92.9293C147.167 92.7754 147.013 92.5762 146.832 92.3499C146.397 92.6396 145.9 92.0241 145.429 92.4314C145.429 92.6306 145.429 92.8207 145.429 92.9927C145.085 92.8026 144.786 92.6396 144.415 92.4314C144.107 93.0832 143.573 92.8659 143.211 92.6487C142.785 92.3861 142.586 92.6487 142.369 92.7754C141.364 92.6306 140.432 92.0874 139.481 92.7482C138.857 92.4133 138.178 92.5129 137.309 92.6939C137.272 92.6125 137.182 92.4042 137.073 92.1689C136.847 92.3409 136.711 92.4948 136.557 92.5582C136.24 92.6759 135.96 93.1466 135.57 92.7211C134.891 92.9203 134.267 92.3499 133.606 92.5762C133.534 92.4133 133.479 92.2956 133.407 92.1508C133.081 92.2866 132.701 92.6034 132.474 92.4948C132.13 92.3228 131.85 92.4314 131.551 92.4586C131.071 92.5038 130.591 92.5943 129.985 92.6849C129.922 92.5943 129.804 92.4133 129.695 92.2685C129.297 92.5038 128.953 92.703 128.618 92.9021C128.22 92.531 127.803 92.9293 127.423 92.8388C127.016 92.7392 126.645 92.5038 126.255 92.3228C125.893 92.522 125.603 92.8207 125.142 92.5672C124.943 92.4585 124.49 92.4676 124.318 92.8388C124.019 92.6668 123.721 92.5038 123.395 92.3137C122.607 92.7573 121.684 91.9878 120.914 92.6849C120.851 92.4676 120.796 92.2775 120.706 91.9697C120.561 92.2413 120.471 92.4314 120.389 92.5944C119.375 92.6668 118.416 91.7615 117.411 92.6306C117.275 92.4767 117.139 92.3228 117.058 92.2232C116.587 92.2051 116.216 92.3499 115.781 92.2232C115.455 92.1236 115.039 92.4586 114.65 92.5582C114.514 92.5944 114.351 92.531 114.206 92.4948C113.781 92.3862 113.419 92.4948 113.084 92.8026C112.667 92.6396 112.242 92.4676 111.798 92.2956C111.463 92.5129 111.155 92.8297 110.721 92.5129C110.594 92.4223 110.35 92.5491 110.16 92.5762C109.788 92.6306 109.408 92.6849 109.037 92.7482C108.892 92.5853 108.775 92.4586 108.693 92.368C108.322 92.4224 108.005 92.4676 107.561 92.54C107.525 92.6396 107.462 92.8297 107.408 93.0198C107.362 93.0017 107.308 92.9836 107.263 92.9655C107.236 92.703 107.199 92.4314 107.154 92.0693C106.656 92.9112 105.959 91.9969 105.488 92.4948C105.488 92.5944 105.47 92.703 105.47 92.7845C105.108 93.047 104.828 92.703 104.475 92.6487C104.456 92.4857 104.438 92.3137 104.411 92.1145C103.931 92.3409 103.497 92.5491 103.053 92.7664C102.972 92.6306 102.899 92.4948 102.818 92.3499C102.166 92.4495 101.532 92.54 100.899 92.6396C100.265 91.9426 99.4141 92.4133 98.7261 92.0602C98.545 92.4585 98.1467 92.5129 97.9747 92.3952C97.5402 92.1055 97.16 92.368 96.7707 92.3952C96.3362 92.4314 95.9288 92.2051 95.4762 92.3319C95.0688 92.4495 94.6524 92.5672 94.1816 92.368C93.9191 92.2594 93.5117 92.4586 93.2039 92.6125C92.9867 92.7211 92.8418 92.7573 92.5974 92.6668C92.2896 92.5491 91.9547 92.531 91.6197 92.4948C91.2848 92.4586 90.9498 92.4495 90.6239 92.4224C90.5696 92.4224 90.5153 92.3771 90.461 92.359C90.4248 92.2594 90.3976 92.1598 90.3614 92.0422C90.2256 92.0512 90.0989 92.0602 89.9269 92.0784C89.7549 92.3318 89.5648 92.6034 89.3565 92.9202C89.1302 92.7482 88.9492 92.6125 88.7229 92.4405C88.1978 92.5763 87.6275 92.7211 87.021 92.875C86.9848 92.7392 86.9395 92.5401 86.8671 92.2594C86.5864 92.4043 86.342 92.531 86.1067 92.6577C85.9347 92.5219 85.7626 92.3861 85.5544 92.2322C85.1652 92.8116 84.5949 92.5582 84.1603 92.8297C83.7077 93.0832 83.2641 93.3367 82.7843 93.6083C82.8386 93.9251 82.8748 94.1877 82.9111 94.423C83.074 94.4321 83.1646 94.4411 83.2822 94.4501C83.3456 95.0024 83.4089 95.5274 83.4723 96.0796C83.8616 96.3421 84.2328 96.5957 84.622 96.8582C84.966 96.8039 85.31 96.7586 85.6359 96.7043C85.6812 96.831 85.7174 96.9306 85.8079 97.175C86.0704 97.0211 86.2787 96.8943 86.4416 96.8038L86.4054 96.7586ZM90.4067 92.8478C90.4067 92.8478 90.3614 92.8478 90.3433 92.8569C90.3433 92.7844 90.3252 92.712 90.3161 92.6396C90.3342 92.6396 90.3614 92.6396 90.3795 92.6306C90.3795 92.703 90.3976 92.7754 90.4067 92.8478Z" fill="#FFE4D5"/>
</g>
</g>
</svg>
