<svg width="159" height="157" viewBox="0 0 159 157" fill="none" xmlns="http://www.w3.org/2000/svg">
<g id="Graphic 06">
<g id="circle-dark">
<path id="Vector" d="M98.1368 158.959H70.7183C70.7183 107.673 112.288 65.9478 163.383 65.9478V93.4689C127.401 93.4689 98.1368 122.855 98.1368 158.959Z" fill="#FF8241"/>
<path id="Vector_2" d="M102.568 146.202C102.853 145.329 103.1 144.65 103.269 143.946C103.464 143.202 103.503 142.329 103.776 141.689C104.218 140.424 104.842 139.224 105.283 137.959C105.777 136.72 106.063 135.403 106.57 134.137C107.077 132.846 107.571 131.529 108.415 130.394C109.169 129.285 109.923 128.098 110.546 126.82C110.819 126.312 111.274 125.855 111.495 125.568C111.911 124.329 112.417 123.377 112.872 122.464C112.755 122.346 112.651 122.242 112.534 122.138C112.872 121.616 113.171 121.172 113.873 120.103C113.99 120.09 114.406 120.038 114.796 119.986C115.211 118.916 115.64 118.303 116.03 117.573C116.329 117.546 116.589 117.52 116.81 117.494C117.771 116.712 118.707 115.955 119.616 115.212C119.694 114.533 120.37 114.26 120.864 113.868C121.501 113.36 122.15 112.838 122.735 112.368C122.891 112.016 123.034 111.716 123.151 111.455C123.697 111.103 124.113 110.855 124.528 110.673C124.749 110.307 124.931 110.021 125.178 109.616C125.919 109.251 126.634 108.808 127.322 108.325C128.024 107.842 128.687 107.281 129.44 106.851C130.909 105.938 132.416 105.025 133.988 104.49C134.495 103.538 135.964 103.238 136.977 102.782C136.951 102.495 136.925 102.351 136.912 102.234C137.679 101.816 138.42 101.36 139.212 100.969C140.031 100.616 140.876 100.238 141.798 99.8338C142.968 99.8468 144.241 99.7425 145.749 99.8729C146.151 99.6512 146.723 99.3512 147.334 99.0121C149.27 98.999 150.985 97.9164 152.714 97.7599C153.194 97.5121 153.48 97.3295 153.857 97.199C154.221 97.0686 154.65 97.0164 154.988 96.9512C155.222 97.186 155.352 97.3034 155.52 97.4599C156.001 97.3556 156.495 97.2512 157.002 97.1338C157.522 97.0686 158.08 97.0034 158.717 96.9382C159.068 97.1208 159.497 97.3425 159.822 97.499L159.991 97.473L160.341 97.4338L161.056 97.3686C161.524 97.3295 161.992 97.2903 162.46 97.2512C163.369 97.186 164.266 97.1077 165.123 97.0425C165.539 97.0034 165.942 96.9643 166.345 96.9251C166.54 96.899 166.722 96.886 166.917 96.8599C166.982 96.7295 166.917 96.4556 166.917 96.273C166.839 95.4382 166.748 94.6556 166.592 93.9382C166.644 93.1296 166.67 92.3078 166.696 91.4731L166.722 89.3731C166.722 88.4601 166.67 87.5601 166.592 86.6471C166.514 85.721 166.475 84.7689 166.41 83.5819C166.579 83.2037 166.787 82.708 166.878 82.5124C166.995 78.8472 166.215 75.7169 166.631 72.9778C166.527 72.1039 166.449 71.3474 166.371 70.7213C166.332 70.3952 166.306 70.1083 166.28 69.8474C166.254 69.417 166.228 69.0518 166.202 68.7518C166.41 67.0562 166.553 65.2692 166.67 63.5214C166.644 63.1432 166.904 62.4389 166.371 62.6215C166.007 62.6215 165.643 62.6084 165.279 62.5954C164.552 62.5954 163.811 62.5954 163.07 62.5954C161.602 62.6215 160.121 62.7128 158.73 62.8432C158.522 62.8563 158.418 62.8823 158.327 62.8954L158.015 62.9606L157.392 63.1041C156.976 63.2084 156.573 63.3258 156.157 63.4562C155.676 63.4041 155.157 63.3519 154.702 63.2997C154.247 63.5214 153.922 63.678 153.727 63.7693C151.557 63.9388 149.517 63.978 147.529 64.2519C147.321 64.1084 147.126 63.978 146.853 63.7823C145.762 64.2128 144.891 64.5519 143.942 64.9432C142.786 65.0345 141.603 65.1258 140.616 65.204C139.355 65.8953 138.303 66.6127 137.172 67.3431C136.639 67.2257 136.081 67.1214 135.6 67.017C134.456 67.017 133.378 67.4214 132.286 67.7996C131.195 68.1909 130.116 68.6474 128.999 68.9996C127.92 69.3257 126.867 69.8474 125.867 70.3822C124.879 70.943 123.918 71.4648 122.956 71.7126C121.644 72.443 120.747 73.3169 119.837 73.643C119.175 73.8908 118.525 74.1647 117.888 74.4517C117.265 74.7517 116.654 75.0908 116.043 75.4299C114.834 76.1212 113.639 76.8386 112.534 77.7125C111.963 78.1299 111.391 78.5472 110.871 78.9255C110.494 78.8864 110.221 78.8472 109.793 78.7951C109.052 80.0342 107.791 80.9994 106.505 81.9124C106.219 81.8602 106.037 81.8341 105.66 81.7689C105.193 82.3037 104.751 82.8385 104.283 83.3732C104.075 83.608 103.841 83.8297 103.75 83.9341C102.983 84.1297 102.321 84.2993 102.035 84.3645C100.878 85.6036 99.9037 86.5036 99.228 87.4036C98.5263 88.3688 98.0325 89.3209 96.941 90.1296C96.6421 90.1296 96.3952 90.1296 96.1613 90.1296C95.1997 91.1209 94.459 92.0861 93.6794 92.9861C93.1986 93.247 92.7437 93.4948 92.2889 93.7426C92.133 94.0556 92.068 94.4469 91.8341 94.7208L89.5601 97.4469L87.3769 100.251C87.143 100.551 86.7532 100.734 86.4803 100.942C86.0775 101.921 86.0126 102.716 85.0639 103.603C84.6351 104.008 84.1673 104.673 83.8164 105.247C81.8283 108.781 79.3463 112.147 77.9819 115.968C77.839 116.346 77.5271 116.725 77.2932 117.116C76.6435 118.303 75.9548 119.503 75.422 120.742C75.0192 121.629 74.9542 122.633 74.6813 123.807C74.3564 124.133 73.9666 124.525 73.5118 124.968C73.3428 125.907 73.2648 126.742 73.1739 127.485C72.901 128.046 72.6411 128.516 72.4332 129.038C71.9004 130.303 71.5496 131.633 71.1337 132.951C70.9258 133.603 70.7179 134.268 70.497 134.907C70.3021 135.559 70.0942 136.211 69.8603 136.863C69.5744 137.646 69.6004 138.768 69.5094 139.459C69.0546 141.924 68.5739 144.168 68.275 146.711C68.4049 147.468 68.3789 148.315 68.21 149.294C68.08 150.272 67.8072 151.368 67.3654 152.633C67.3654 153.024 67.3523 153.402 67.3393 153.767C67.3393 154.015 67.3393 154.263 67.3393 154.498C67.3393 154.798 67.3393 155.098 67.3393 155.385C67.5732 155.607 67.7811 155.815 68.21 156.128C67.7162 157.837 67.3913 159.167 67.0015 160.837L67.0535 162.167V162.506C67.1185 162.572 67.3133 162.506 67.4173 162.519L68.21 162.493C69.2365 162.467 70.2761 162.441 71.3157 162.415C72.901 162.415 74.5124 162.402 76.1237 162.389C78.3198 162.389 80.5288 162.428 82.7119 162.206C83.9984 162.076 85.2979 161.985 86.7792 162.206C87.8448 162.363 89.3261 161.985 90.8855 161.815C93.0296 162.467 94.0302 161.189 95.8105 161.019C95.5636 160.315 97.0319 160.146 98.1105 159.741C96.9669 159.35 96.0963 159.063 95.1867 158.75C95.7714 158.593 96.2003 158.489 96.798 158.333C95.9664 157.667 94.1991 157.68 93.4325 157.093C92.8347 156.624 91.0284 157.067 90.0668 156.507C89.4561 156.154 88.0527 156.754 87.1691 156.324C84.973 156.454 82.7769 156.585 81.0096 156.689C78.9305 156.311 77.592 156.115 76.4875 156.076C75.9417 156.063 75.4479 156.076 74.9541 156.141L74.5903 156.194L74.4863 156.259C74.3954 156.311 74.3044 156.363 74.2134 156.428C73.9925 155.946 73.7456 156.167 73.7456 155.528C73.7067 155.346 73.7067 155.111 73.7197 154.889L73.7456 154.55L73.8106 153.924C73.9406 152.698 74.0446 151.485 73.9536 150.259C74.5124 148.433 74.4084 146.542 74.6553 144.676C74.7852 143.842 75.0321 143.02 75.2401 142.159C75.1751 141.872 75.0841 141.546 75.0321 141.337C75.8638 139.042 76.5915 136.903 77.5011 134.907C77.3322 134.137 77.4621 133.316 77.644 132.494C77.8519 131.672 78.1639 130.877 78.2678 130.107C78.6447 129.611 78.9955 129.155 79.5152 128.438C79.8531 126.742 80.152 124.825 80.6718 122.725C81.0486 122.425 81.5294 122.046 82.1011 121.59C82.3351 119.986 83.9724 118.812 84.1933 117.064C83.9464 116.92 83.7125 116.79 83.4916 116.66C84.2713 115.668 85.0769 114.886 85.9476 113.894C85.6747 112.434 86.9742 110.973 87.9358 110.06C89.0403 108.99 89.1572 108.181 89.4431 107.464C90.5606 106.042 91.7561 104.79 92.9126 103.538C94.0172 102.247 95.0697 100.955 95.8364 99.3512C96.733 98.6468 97.5907 97.8773 98.4613 96.9512C99.306 95.9991 100.216 94.9686 101.255 93.8078C101.437 93.8078 101.879 93.7948 102.386 93.7817C102.802 93.0513 102.97 92.5426 103.36 92.1122C104.088 91.2513 104.413 90.0644 105.868 89.6209C107.597 87.8601 109.819 87.1166 111.573 85.5123C111.924 85.5514 112.171 85.5775 112.495 85.6167C113.301 84.7689 114.224 83.6602 114.964 83.3732C116.134 82.9298 116.849 82.2254 117.771 81.6776C119.214 80.7776 120.604 79.7733 122.488 78.7038C122.748 78.7168 123.242 78.7559 123.658 78.782C124.749 77.8038 125.776 77.0995 126.751 76.3169C128.245 76.1864 129.414 75.1169 130.74 74.7517C132.117 74.3343 133.508 74.2169 134.911 74.0212C136.029 73.3169 136.899 72.5865 138.576 72.5082C139.303 72.4691 140.824 71.9865 141.291 71.3474C142.383 71.3474 143.488 71.3474 144.657 71.3474C145.956 70.7213 147.49 70.617 148.984 70.4083C150.479 70.2126 151.973 70.1083 153.285 69.417C153.545 69.7039 153.766 69.9518 154.13 70.3431C154.585 69.9126 154.897 69.6126 155.17 69.3648C156.82 69.1953 159.315 69.2866 159.211 69.4822C159.432 69.5605 159.601 69.5865 159.874 69.5344C160.043 69.5344 160.121 69.5344 160.458 69.6257C160.238 69.8344 160.017 69.9387 159.874 69.9648C159.848 71.5691 160.056 73.043 159.874 74.6082C159.731 75.7951 160.212 77.3603 160.354 78.782C160.406 79.2777 160.315 79.8777 160.264 80.4124C160.108 81.9646 160.264 83.3211 160.705 84.5602C160.471 86.1123 160.224 87.6645 159.978 89.3209C160.134 90.1427 160.328 89.9861 160.419 90.234C160.51 90.4035 160.51 90.6514 160.29 90.6253C160.186 90.6122 160.108 90.7166 159.978 90.7948L159.757 90.86L159.627 90.8992H159.562L159.289 90.9514L157.145 91.1861C156.573 90.9644 156.118 90.834 155.793 90.7687C154.39 91.0687 153.194 91.3165 151.518 91.6687C151.414 91.8252 151.232 92.1383 151.037 92.4383H150.479C150.284 92.0861 150.089 91.7209 149.829 91.2252C148.205 92.8165 145.32 92.2557 143.708 93.4035C143.721 93.5469 143.747 93.7035 143.76 93.8339C142.526 94.5643 141.408 94.5382 140.109 94.9034C139.953 94.7078 139.797 94.4991 139.615 94.2643C137.991 95.2034 136.509 96.0382 135.145 97.1208L134.079 96.9773C132.975 97.5903 131.896 98.1903 130.818 98.7903C129.804 99.4947 128.791 100.186 127.79 100.877C126.517 101.112 125.165 101.699 124.009 102.612C122.826 103.473 121.657 104.399 120.435 105.012C120.201 105.847 119.11 106.929 118.512 107.268C116.992 108.09 116.16 109.368 115.068 110.412C113.951 111.664 112.69 112.616 111.638 114.038C110.663 115.264 109.858 116.699 108.558 117.977C107.83 118.707 107.077 120.116 106.635 121.225C106.336 122.033 106.089 122.542 105.504 123.246C104.751 124.159 104.049 125.281 103.347 126.325C102.724 127.446 102.165 128.607 101.567 129.742C101.463 129.938 101.32 130.107 101.216 130.264C101.034 130.316 100.852 130.355 100.644 130.42C100.424 130.903 100.242 131.346 99.9687 131.959C100.034 132.703 100.177 133.55 100.307 134.49C99.7738 135.22 99.3579 135.794 98.8252 136.537C98.2274 138.494 97.9416 140.698 97.5777 142.981C97.3438 143.059 97.0319 143.176 96.5771 143.346C96.5121 144.442 96.4342 145.381 96.4992 146.346C96.2133 146.972 95.9144 147.611 95.5636 148.355C96.1873 149.959 95.3946 152.085 95.7845 153.781C96.0574 155.502 96.3432 157.224 96.6421 159.05C97.1099 158.867 97.4998 158.711 97.8376 158.567C97.8896 157.967 97.9155 157.641 97.9415 157.198C98.7472 156.989 99.5139 156.794 100.32 156.572C100.761 155.241 101.19 153.95 101.645 152.594C101.749 151.394 101.866 150.194 101.97 149.033C102.178 148.902 102.334 148.798 102.724 148.55C102.659 147.611 102.555 146.828 102.555 146.281L102.568 146.202ZM101.905 130.551L101.814 130.772L101.489 130.733L101.58 130.511L101.905 130.551Z" fill="#FF8241"/>
</g>
<g id="circle-light">
<path id="Vector_3" d="M63.7703 114.507C76.0121 104.139 77.5313 85.8102 67.1635 73.5684C56.7957 61.3266 38.4671 59.8074 26.2253 70.1752C13.9835 80.543 12.4643 98.8717 22.8321 111.113C33.1999 123.355 51.5286 124.874 63.7703 114.507Z" fill="#FFA972"/>
<path id="Vector_4" d="M61.7728 66.9619C61.3003 66.5649 60.8912 66.2925 60.4681 66.053C60.013 65.7881 59.4663 65.6008 59.0859 65.3251C58.7239 65.0338 58.3276 64.8135 57.9242 64.6097C57.5208 64.4059 57.1114 64.2073 56.6949 64.0251C55.882 63.6227 54.9847 63.4177 54.1014 63.1798C53.6445 63.0737 53.1965 62.9287 52.7447 62.8288C52.2817 62.728 51.838 62.6003 51.3937 62.4101C50.9711 62.2331 50.517 62.0933 50.0592 61.9985C49.5872 61.9367 49.1073 61.9026 48.6335 61.8633C48.2439 61.8367 47.8307 61.6832 47.5853 61.6288C46.7134 61.6644 45.9859 61.8086 45.3039 61.8827C45.2842 61.9833 45.2655 62.0726 45.2519 62.168C44.8463 62.1968 44.4933 62.1392 43.6548 62.2514C43.596 62.2068 43.3896 62.025 43.1926 61.8667C42.4769 62.0743 41.9942 62.2103 41.4707 62.36C41.3099 62.2445 41.1759 62.1482 41.0626 62.0763C40.2264 62.0922 39.4189 62.1048 38.6227 62.1183C38.3136 62.4221 37.8553 62.4011 37.4347 62.4742C36.8862 62.582 36.3316 62.6951 35.8353 62.7903C35.6357 62.9384 35.4552 63.0597 35.3086 63.1839C34.8819 63.2621 34.5585 63.3262 34.2648 63.3757C34.0449 63.5619 33.8678 63.7119 33.6296 63.9136C31.4343 64.2939 29.4515 65.8788 27.3387 66.7032C27.0198 67.3299 26.1594 67.7754 25.5387 68.2066C25.5933 68.3702 25.6197 68.4632 25.6427 68.5276C24.7251 69.2523 24.0021 70.0954 23.0771 71.0466C22.359 71.3506 21.6504 71.8144 20.7722 72.3379C20.6247 72.6096 20.4106 73.0008 20.1885 73.4196C19.6876 73.8438 19.3302 74.3878 18.9953 74.9336C18.6717 75.4804 18.3551 76.0107 18.0743 76.5213C17.988 76.8776 17.9631 77.1084 17.8749 77.351C17.7927 77.5884 17.6411 77.8427 17.5391 78.0444C17.3253 78.0891 17.221 78.1146 17.0706 78.1475C16.7432 78.7394 16.5536 79.3825 16.2372 80.1854C16.0417 80.3509 15.781 80.5508 15.5926 80.6999C15.378 81.3012 15.2086 81.9062 15.0491 82.4608C14.9008 83.0165 14.7953 83.5359 14.8411 84.0111C14.4214 85.1008 14.1897 86.2515 14.0534 87.4158C14.01 88.0085 13.9595 88.6176 13.9081 89.3744C13.7757 89.6019 13.5967 89.9108 13.5361 90.0251C13.4502 91.1992 13.4949 92.3047 13.5757 93.3166C13.719 94.328 13.8238 95.2567 13.7612 96.1488C14.0569 97.241 14.2701 98.0254 14.3925 98.4671C14.3564 99.7249 14.5868 100.851 14.834 101.911C15.1856 102.946 15.6644 103.883 16.2505 104.76C16.3286 105.051 16.411 105.359 16.4849 105.632C16.7172 105.844 16.8804 106 16.9805 106.093C17.4539 107.37 18.0796 108.456 18.6643 109.555C18.6286 109.711 18.6 109.851 18.5597 110.063C19.0497 110.592 19.5363 110.956 19.9948 111.386C20.3523 112.006 20.6764 112.686 21.0329 113.181C21.8072 113.637 22.4743 114.016 23.2002 114.44C23.2859 114.777 23.4125 115.099 23.5203 115.375C23.9093 115.958 24.4378 116.434 24.9959 116.895C25.5357 117.371 26.2004 117.71 26.7454 118.193C27.7841 119.159 29.3588 119.483 30.2917 120.287C31.1604 120.631 31.9299 120.735 32.4325 121.044C33.1772 121.514 33.9923 121.82 34.8103 122.092C35.2193 122.229 35.6343 122.36 36.0443 122.484C36.4673 122.588 36.8941 122.646 37.3252 122.721C37.7562 122.797 38.1873 122.872 38.5793 122.939C38.7345 123.122 38.837 123.255 39.0068 123.468C39.8738 123.216 40.8534 123.32 41.8259 123.441C41.9388 123.586 42.0103 123.683 42.1612 123.849C42.5983 123.783 43.0241 123.716 43.456 123.644C43.6454 123.62 43.8513 123.603 43.9312 123.598C44.3787 123.817 44.7614 123.996 44.925 124.078C45.9773 123.921 46.7965 123.836 47.4653 123.647C48.1782 123.473 48.7585 123.118 49.606 123.103C49.7564 123.206 49.8862 123.285 50.0098 123.369C50.8572 123.218 51.5706 122.971 52.2708 122.745C52.6102 122.761 52.9322 122.782 53.2602 122.798C53.4459 122.683 53.6075 122.515 53.8284 122.453C55.1973 121.902 56.6081 121.463 57.9092 120.77C58.1226 120.663 58.3891 120.668 58.5968 120.628C59.1038 120.199 59.3734 119.824 60.1131 119.533C60.4585 119.408 60.8837 119.142 61.222 118.898L62.0048 118.361C62.2637 118.183 62.5029 117.97 62.7515 117.781L64.2559 116.622C64.7747 116.256 65.1951 115.774 65.657 115.341C66.0972 114.895 66.5487 114.449 66.9249 113.953C67.0668 113.748 67.3144 113.57 67.5075 113.365C68.0806 112.753 68.7567 112.202 69.2288 111.508C69.5712 111.009 69.7778 110.435 70.1004 109.763C70.3349 109.607 70.6492 109.445 70.964 109.21C71.1419 108.64 71.302 108.148 71.4461 107.711C71.6762 107.401 71.8905 107.146 72.0797 106.849C72.8847 105.36 73.5444 103.773 74.2238 102.222C74.4445 101.752 74.518 101.071 74.5483 100.636C74.7247 99.8786 74.8983 99.1547 75.0719 98.4308C75.2178 97.6989 75.2917 96.944 75.4074 96.1642C75.3088 95.2303 75.3365 94.074 75.8269 92.4734C75.8055 91.9776 75.7283 91.5395 75.69 91.1104C75.5325 91.0235 75.3966 90.9498 75.1197 90.7962C75.3502 90.1395 75.5239 89.6882 75.6807 89.1674C75.2778 87.8618 75.1549 86.4659 74.7506 85.1092C74.5627 84.4291 74.4341 83.7199 74.1767 83.0569C73.9193 82.3938 73.6445 81.7349 73.3392 81.102C73.1774 80.7251 72.9634 80.3609 72.7677 79.9812C72.5781 79.5963 72.3965 79.1838 72.2524 78.7288C72.1432 78.4018 71.9518 78.0395 71.6691 77.681C71.3804 77.3276 71.0536 76.9541 70.7512 76.5599C70.552 75.8789 70.2271 75.4828 69.8199 75.1878C69.4005 74.9032 68.9591 74.6792 68.5787 74.2672C68.3307 74.6555 67.693 73.9893 67.0987 73.622C67.3308 74.3171 67.5082 74.8486 67.7002 75.4097C67.4176 75.1875 67.1981 75.0273 66.9103 74.799C66.8909 75.4449 67.5276 76.2586 67.5034 76.8245C67.4731 77.2593 68.2222 78.02 68.2262 78.6564C68.2273 79.054 68.9692 79.5585 68.9319 80.146C69.2386 80.6939 69.5514 81.2366 69.8435 81.7549C70.1234 82.2836 70.3234 82.817 70.5351 83.2775C70.766 84.4665 70.7987 85.2359 70.9358 85.8436C71.0502 86.4494 71.309 86.8911 71.5424 87.5011C71.3946 88.2556 71.4786 89.0235 71.6576 89.8789C71.7534 90.574 71.7673 91.2964 71.7822 92.0076C71.7971 92.7187 71.7156 93.4275 71.8156 94.14C71.7532 94.4131 71.7195 94.6829 71.6918 94.9475C71.6468 95.2164 71.6131 95.4862 71.5907 95.757C71.5458 96.2984 71.5287 96.8479 71.4777 97.3946C71.4088 97.8829 71.2107 98.3549 71.0732 98.849C71.1104 99.0168 71.157 99.208 71.1805 99.3349C70.9543 100.009 70.6364 100.624 70.3377 101.213C70.0277 101.801 69.7967 102.395 69.429 102.927C69.4766 103.379 69.3358 103.845 69.1673 104.302C69.0748 104.527 68.9875 104.758 68.895 104.984C68.7861 105.202 68.6832 105.415 68.609 105.624C68.3281 105.862 68.0767 106.086 67.6849 106.428C67.6079 106.672 67.5248 106.92 67.4356 107.174C67.3248 107.415 67.2131 107.667 67.1013 107.919C66.8708 108.439 66.6209 108.986 66.3632 109.561C66.1202 109.683 65.7523 109.806 65.3476 109.96C64.932 110.794 63.9118 111.249 63.4309 112.118C63.5447 112.253 63.6595 112.376 63.7639 112.487C63.1088 112.852 62.5797 113.206 61.8763 113.54C61.722 114.373 60.7056 114.919 59.9997 115.213C59.1256 115.481 58.8922 115.899 58.5699 116.225C56.6922 117.227 54.7666 117.505 53.0822 118.711C52.427 118.805 51.746 118.868 51.0415 119.076C50.6825 119.16 50.3239 119.306 49.9249 119.393C49.5311 119.485 49.1137 119.587 48.6677 119.692C48.5821 119.628 48.3616 119.479 48.1205 119.305C47.6867 119.536 47.4278 119.714 47.0993 119.772C46.463 119.912 45.8855 120.37 45.061 120.04C43.6303 120.171 42.3535 119.679 40.9819 119.645C40.8475 119.486 40.7492 119.37 40.6311 119.219C39.9562 119.276 39.1196 119.366 38.6989 119.166C38.0444 118.839 37.4461 118.864 36.8595 118.679C36.3828 118.537 35.9052 118.407 35.3877 118.278C35.1319 118.212 34.8588 118.149 34.5876 118.065C34.3173 117.968 34.0366 117.86 33.7447 117.75C33.6535 117.618 33.4917 117.377 33.3557 117.167C32.9421 117.088 32.543 117.038 32.1754 116.95C31.8088 116.852 31.4595 116.749 31.1154 116.652C30.8318 116.305 30.4623 116.104 30.0745 115.919C29.6857 115.744 29.3232 115.527 29.0147 115.274C28.387 114.694 27.8373 114.132 27.3543 113.45C26.6914 113.088 26.0136 112.907 25.4976 112.075C25.2784 111.705 24.6469 111.033 24.1505 110.992C23.809 110.453 23.5521 109.852 23.2807 109.222C22.6318 108.691 22.1187 107.961 21.7301 107.168C21.318 106.384 20.8317 105.674 20.2458 105.069C20.3651 104.863 20.4651 104.684 20.6196 104.396C20.275 104.236 20.0395 104.132 19.8369 104.041C19.7141 103.809 19.6035 103.567 19.5043 103.326C19.4224 103.081 19.364 102.826 19.2943 102.571C19.1714 102.066 19.0476 101.573 18.9298 101.075C18.6996 100.085 18.5022 99.1088 17.8574 98.1864C17.9503 97.8874 18.038 97.5824 18.0991 97.3943C17.9746 96.4299 17.6664 95.6945 17.7698 94.7887C17.7918 94.4554 17.7211 94.0748 17.6175 93.68C17.5657 93.4826 17.5149 93.2739 17.4631 93.0765C17.4235 92.8688 17.4004 92.6681 17.3886 92.4684C17.3668 92.1826 17.4339 91.8531 17.4756 91.5556C17.5459 91.1184 17.5396 90.7147 17.5263 90.3274C17.5303 89.9359 17.4864 89.5744 17.3975 89.2093C17.5232 88.7881 17.6551 88.3617 17.787 87.9353C17.9415 87.5108 18.1349 87.0953 18.3129 86.6614C18.2745 85.9596 18.1303 85.2321 18.7053 84.462C18.8655 84.2424 18.9146 83.7183 19.0202 83.3352L19.1694 82.7683L19.3741 82.2173L19.7834 81.1154C20.0338 80.9033 20.2293 80.7378 20.3698 80.6188C20.6778 79.9174 20.9868 79.341 21.385 78.5108C21.3483 78.4055 21.2627 78.2054 21.1832 78C21.247 77.9144 21.3152 77.8462 21.3955 77.7677C21.6277 77.8437 21.8661 77.9146 22.1867 78.0207C22.1767 76.7705 23.6118 76.0375 23.9649 75.0672C23.9028 74.994 23.8459 74.9268 23.7941 74.8657C23.9552 74.4985 24.191 74.2568 24.4476 74.0396C24.5758 73.931 24.7093 73.8284 24.8427 73.7259C24.9865 73.6356 25.1312 73.534 25.2769 73.4211C25.4066 73.5 25.5425 73.5738 25.7052 73.6668C25.9889 73.2587 26.2655 72.867 26.5413 72.4866C26.6822 72.2939 26.818 72.095 26.9528 71.9074L27.4169 71.3779L28.0369 71.3669C28.5551 70.9385 29.0216 70.449 29.5751 70.0746C30.1183 69.688 30.6605 69.3127 31.1976 68.9312C31.903 68.8477 32.638 68.6133 33.3312 68.2676C34.0201 67.9044 34.763 67.6423 35.4755 67.5423C35.6995 67.1009 36.4589 66.7095 36.8467 66.7587C37.7868 66.7911 38.4658 66.342 39.2595 66.1522C40.1469 65.9986 40.9854 66.0226 41.9051 65.8206C42.728 65.69 43.5975 65.4781 44.5644 65.6662C45.1054 65.7848 45.9528 65.6336 46.5986 65.5167C47.0601 65.4301 47.3689 65.4727 47.8517 65.6093C48.4651 65.8134 49.1768 65.8611 49.8302 66.0629C50.4916 66.237 51.1642 66.412 51.8308 66.5922C51.9479 66.6189 52.0438 66.695 52.1312 66.7363C52.1679 66.8416 52.1995 66.9408 52.2456 67.0695C52.5117 67.1484 52.75 67.2192 53.0941 67.3159C53.5053 67.2194 53.9513 67.1144 54.473 66.9872C54.8618 67.2977 55.151 67.5773 55.5215 67.9033C56.0405 68.0826 56.6022 68.2257 57.1513 68.453C57.6995 68.6915 58.2589 68.9309 58.84 69.1835C58.84 69.3199 58.8406 69.5187 58.8336 69.8077C59.4039 69.9856 59.8444 70.2209 60.3286 70.4087C60.5482 70.7052 60.7782 71.0139 61.0383 71.3705C61.9798 71.4542 62.7214 72.4414 63.5742 72.8415C64.3829 73.3628 65.1896 73.9068 66.0726 74.4911C66.2079 74.2297 66.3281 74.0125 66.4239 73.816C66.1963 73.5472 66.0609 73.3997 65.884 73.2033C66.1419 72.7647 66.3866 72.3476 66.6444 71.909C66.4167 71.5039 66.2004 71.0998 65.9779 70.7009C65.7441 70.301 65.4727 69.9434 65.2103 69.5469C64.5577 69.0612 63.961 68.5176 63.2844 68.1151C63.2637 67.9544 63.2444 67.8449 63.201 67.546C62.6087 67.2924 62.1367 67.0943 61.7911 66.9464L61.7728 66.9619ZM52.2927 66.2954L52.4262 66.3292L52.4268 66.528L52.2994 66.489L52.2988 66.2902L52.2927 66.2954Z" fill="#FFA972"/>
</g>
<g id="lines">
<path id="Vector_5" d="M114.464 83.8898C114.214 83.8464 114.008 83.792 113.812 83.792C113.595 83.792 113.356 83.9332 113.171 83.8572C112.422 83.553 111.683 83.6183 110.934 83.7812C110.542 83.8681 110.162 83.9767 109.771 83.7486C109.402 83.5313 109 83.6074 108.609 83.6725C108.446 83.7051 108.272 83.5748 108.174 83.5422C107.816 83.7377 107.522 83.9007 107.24 84.0528C107.24 84.194 107.229 84.3135 107.218 84.4439C107.044 84.4765 106.903 84.4982 106.545 84.5634C106.523 84.4873 106.436 84.2374 106.36 84.0093C106.056 84.2266 105.849 84.3678 105.632 84.5307C105.567 84.3569 105.524 84.2157 105.469 84.0962C105.122 83.9333 104.796 83.7812 104.47 83.64C104.318 83.9985 104.133 83.8029 103.959 83.7595C103.731 83.7052 103.503 83.6726 103.286 83.6291C103.188 83.7486 103.101 83.8681 103.036 83.955C102.862 83.8572 102.721 83.7812 102.601 83.716C102.493 83.8463 102.395 83.955 102.275 84.0962C101.374 83.5748 100.353 84.1832 99.44 83.5748C99.1901 84.1071 98.7881 83.8029 98.4731 83.7703C98.4514 83.9985 98.4297 84.1179 98.4188 84.2048C97.9299 84.2918 97.4737 84.3787 96.9196 84.4764C96.6155 84.1505 96.2787 83.7812 95.8767 83.3684C95.7463 83.4553 95.5726 83.5856 95.377 83.7268C94.8447 83.3466 94.3124 83.7812 93.8344 83.7595C93.6932 83.9007 93.6062 84.0202 93.4976 84.0745C93.389 84.1288 93.2695 84.1288 93.1826 84.1397C93.1283 83.9224 93.0957 83.8029 93.0522 83.6508C92.7698 83.7051 92.4982 83.7486 92.1505 83.8138C92.0528 83.6508 91.9442 83.4444 91.8573 83.3032C91.3358 83.4988 90.8361 83.3358 90.4776 83.8464C89.9996 83.6834 89.5216 83.716 89.0327 83.8464C88.7829 83.9116 88.533 83.9441 88.218 83.9984C88.1202 83.8572 87.9898 83.6834 87.9355 83.6074C86.9686 83.5096 86.1322 84.1614 85.4152 83.8138C84.9481 83.9767 84.6113 84.1071 84.4266 84.1723C83.4054 83.4988 82.5581 83.4661 81.689 84.1288C81.5695 84.0527 81.4392 83.9767 81.3197 83.9007C81.2002 84.0528 81.1133 84.1614 81.059 84.2375C80.4941 84.1288 79.9726 84.031 79.462 83.9224C79.4185 83.7703 79.3751 83.6291 79.3099 83.4336C79.0166 83.6291 78.7776 83.7812 78.5277 83.9441C78.2344 83.8029 77.9302 83.6508 77.6804 83.5313C77.3219 83.8789 77.0177 84.1831 76.6809 84.5091C76.5614 84.2918 76.4311 84.0745 76.3116 83.8898C75.7467 83.3901 75.1384 83.8247 74.5409 83.64C73.9651 83.4662 73.3459 84.031 72.8462 83.7377C72.4659 83.8681 72.1508 84.118 71.9118 84.0202C71.1949 83.7595 70.4779 83.7703 69.7609 83.9441C69.5762 83.9876 69.4024 84.0093 69.2286 84.0419C69.1526 83.8464 69.0982 83.6943 69.0113 83.4661C68.6745 83.9659 68.2726 83.9876 67.8598 83.9984C67.8055 83.8246 67.7729 83.716 67.7077 83.4879C67.5339 83.6074 67.3601 83.716 67.1754 83.8246C67.0993 83.8681 67.0124 83.9007 66.9798 83.9116C66.7952 83.64 66.6431 83.4119 66.567 83.3032C66.1325 83.4553 65.7957 83.4879 65.5241 83.6834C65.2308 83.8898 64.9701 84.1614 64.6225 84.0202C64.5682 83.8572 64.5247 83.716 64.4813 83.5748C64.1336 83.64 63.8186 83.6943 63.5144 83.7486C63.384 83.6074 63.2537 83.477 63.1342 83.3467C63.0473 83.4336 62.9604 83.5965 62.8735 83.6074C62.2651 83.6508 61.6676 83.6725 61.0592 83.6725C60.9615 83.6725 60.8637 83.5096 60.7768 83.4336C60.516 83.6617 60.3423 83.9876 60.0164 83.7703C59.8643 83.6726 59.6578 83.6725 59.4949 83.716C58.4629 83.9332 57.3982 83.64 56.3662 84.0093C56.2684 84.0419 56.1381 83.955 56.0186 83.9333C55.6709 83.8681 55.3233 83.7378 54.9757 83.7703C54.7258 83.7921 54.4869 84.0093 54.1718 84.1723C54.0632 84.0202 53.9328 83.8355 53.7916 83.6182C53.5526 83.7921 53.3462 83.9333 53.1615 84.0636C52.9986 83.9984 52.8682 83.9224 52.727 83.9007C52.0317 83.7921 51.3147 83.8681 50.6194 83.5856C50.413 83.4987 50.1306 83.7268 49.9568 83.792C49.3158 83.7812 48.7292 83.7703 48.0773 83.7486C47.6971 84.118 47.2083 84.0419 46.5565 83.477C46.3501 83.5096 46.1763 83.5422 45.9916 83.5748C45.9481 83.7812 45.9155 83.955 45.8503 84.3244C45.5788 83.9442 45.405 83.7051 45.1986 83.4118C44.1013 83.8681 42.8955 83.4335 41.744 83.792C41.4072 83.9007 41.0596 83.9767 40.6685 83.792C40.386 83.6617 39.995 83.9768 39.5822 84.118C39.0172 83.5748 38.7456 84.6394 38.2785 84.7806C38.3437 85.3673 37.9526 85.5085 37.6702 85.8452C37.9743 86.1711 38.2024 86.4102 38.4523 86.6709C38.3002 86.8012 38.1807 86.8882 38.0286 87.0185C38.2459 87.5726 38.7239 87.5617 38.9194 88.0506C39.0824 88.4416 39.5604 88.0722 39.8102 88.5394C39.9732 88.8327 40.3426 88.333 40.5816 88.6915C41.1682 88.5828 41.744 88.4742 42.2111 88.3873C43.3192 89.0174 43.6342 89.05 44.2317 88.6154C44.5685 88.9631 44.9378 89.0391 45.3398 88.9414C46.0025 88.7893 46.6868 89.1369 47.3386 88.8327C47.8492 89.126 48.3598 88.8544 48.8704 88.8327C49.0986 88.8218 49.3375 88.8979 49.5765 88.9414C49.6526 88.8436 49.7286 88.7241 49.7829 88.648C50.4456 88.9088 51.054 89.1586 51.6515 89.3976C52.0317 88.7784 52.5531 89.05 52.9659 88.8327C53.1289 88.9957 53.281 89.1477 53.5091 89.3759C53.9762 89.1043 54.4977 88.811 55.0734 88.4851C55.1929 88.6697 55.3451 88.9088 55.5189 89.1803C55.9426 88.8327 56.4314 89.5714 56.8877 89.0825C56.8877 88.8435 56.8877 88.6154 56.8877 88.409C57.2245 88.6371 57.5177 88.8327 57.8762 89.0825C58.1804 88.3004 58.7019 88.5611 59.0604 88.8218C59.4732 89.1369 59.6687 88.8219 59.8751 88.6698C60.8529 88.8436 61.7654 89.4954 62.6996 88.7023C63.308 89.1043 63.9707 88.9848 64.818 88.7675C64.8506 88.8653 64.9484 89.1152 65.0462 89.3976C65.2635 89.1912 65.3938 89.0065 65.5567 88.9305C65.8609 88.7893 66.1434 88.2244 66.5236 88.735C67.1863 88.496 67.7946 89.1803 68.4464 88.9088C68.5224 89.1043 68.5768 89.2455 68.642 89.4193C68.957 89.2564 69.3372 88.8762 69.5436 89.0066C69.8804 89.213 70.152 89.0826 70.4453 89.05C70.9124 88.9957 71.3795 88.887 71.977 88.7784C72.0422 88.887 72.1509 89.1043 72.2595 89.2781C72.6506 88.9957 72.9874 88.7567 73.3133 88.5177C73.7044 88.9631 74.1063 88.4851 74.4865 88.5937C74.8776 88.7132 75.247 88.9957 75.6272 89.213C75.9857 88.974 76.2682 88.6155 76.7136 88.9196C76.9091 89.05 77.3436 89.0391 77.5174 88.5937C77.8108 88.8001 78.1041 88.9956 78.4191 89.2238C79.1904 88.6915 80.0921 89.6149 80.8417 88.7784C80.9069 89.0391 80.9612 89.2672 81.0481 89.6366C81.1893 89.3107 81.2762 89.0826 81.3631 88.887C82.3517 88.8001 83.2859 89.8865 84.2636 88.8436C84.394 89.0283 84.5244 89.2129 84.6113 89.3324C85.0784 89.3542 85.4369 89.1804 85.8606 89.3324C86.1756 89.4519 86.5885 89.05 86.9687 88.9305C87.0991 88.8871 87.262 88.9631 87.4032 89.0066C87.816 89.1369 88.1745 89.0065 88.5004 88.6372C88.9132 88.8327 89.3261 89.0391 89.7606 89.2455C90.0865 88.9848 90.3907 88.6046 90.8144 88.9848C90.9339 89.0934 91.1837 88.9413 91.3684 88.9088C91.7378 88.8436 92.0963 88.7784 92.4656 88.7023C92.6069 88.8979 92.7155 89.05 92.8024 89.1586C93.1609 89.0934 93.4759 89.0391 93.9104 88.9522C93.943 88.8327 94.0082 88.6046 94.0625 88.3765C94.106 88.3982 94.1603 88.4199 94.2038 88.4416C94.2363 88.7567 94.2689 89.0826 94.3124 89.5171C94.8012 88.5068 95.4748 89.604 95.9419 89.0066C95.9419 88.8871 95.9528 88.7567 95.9636 88.6589C96.3221 88.3439 96.5937 88.7566 96.9305 88.8218C96.9522 89.0174 96.974 89.2238 96.9957 89.4628C97.4628 89.1912 97.8865 88.9413 98.321 88.6806C98.397 88.8436 98.4731 89.0065 98.5492 89.1803C99.1901 89.0608 99.8093 88.9522 100.429 88.8327C101.048 89.6692 101.884 89.1043 102.547 89.528C102.721 89.05 103.112 88.9848 103.286 89.126C103.709 89.4737 104.079 89.1586 104.459 89.126C104.883 89.0826 105.274 89.3542 105.719 89.2021C106.11 89.0609 106.523 88.9196 106.979 89.1586C107.24 89.289 107.631 89.05 107.935 88.8653C108.152 88.735 108.294 88.6915 108.522 88.8001C108.815 88.9414 109.152 88.9631 109.467 89.0066C109.793 89.05 110.119 89.0608 110.445 89.0934C110.499 89.0934 110.553 89.1477 110.597 89.1695C110.629 89.289 110.662 89.4085 110.695 89.5497C110.825 89.5389 110.944 89.528 111.118 89.5062C111.281 89.2021 111.466 88.8762 111.683 88.4959C111.9 88.7023 112.074 88.8653 112.302 89.0717C112.824 88.9088 113.378 88.7349 113.964 88.5502C113.997 88.7132 114.051 88.9522 114.117 89.289C114.388 89.1151 114.627 88.963 114.866 88.811C115.029 88.9739 115.203 89.1369 115.409 89.3216C115.79 88.6263 116.344 88.9305 116.767 88.6045C117.202 88.3004 117.647 87.9962 118.114 87.6703C118.06 87.2901 118.027 86.9751 117.984 86.6926C117.832 86.6818 117.734 86.6709 117.625 86.66C117.56 85.9973 117.506 85.3673 117.441 84.7046C117.061 84.3895 116.702 84.0854 116.322 83.7703C115.985 83.8355 115.648 83.8898 115.333 83.955C115.29 83.8029 115.257 83.6834 115.17 83.3901C114.91 83.5748 114.703 83.7269 114.551 83.8355L114.464 83.8898ZM110.564 88.5829C110.564 88.5829 110.608 88.5829 110.629 88.572C110.629 88.6589 110.651 88.7458 110.651 88.8327C110.629 88.8327 110.608 88.8327 110.586 88.8436C110.586 88.7567 110.564 88.6698 110.564 88.5829Z" fill="#FFE4D5"/>
<path id="Vector_6" d="M51.282 103.216C51.5536 103.259 51.7709 103.314 51.9882 103.314C52.2163 103.314 52.4771 103.173 52.6835 103.249C53.4874 103.553 54.2913 103.488 55.106 103.325C55.5188 103.238 55.9425 103.129 56.3662 103.357C56.7681 103.575 57.1918 103.498 57.6264 103.433C57.8002 103.401 57.9957 103.531 58.1044 103.564C58.4846 103.368 58.8105 103.205 59.1146 103.053C59.1146 102.912 59.1255 102.792 59.1364 102.662C59.3211 102.629 59.484 102.608 59.8642 102.542C59.886 102.619 59.9837 102.868 60.0598 103.097C60.3857 102.879 60.6138 102.738 60.8528 102.575C60.918 102.749 60.9723 102.89 61.0266 103.01C61.396 103.173 61.7545 103.325 62.1021 103.466C62.2651 103.107 62.4606 103.303 62.6562 103.346C62.906 103.401 63.1559 103.433 63.384 103.477C63.4926 103.357 63.5795 103.238 63.6556 103.151C63.8511 103.249 63.9923 103.325 64.1227 103.39C64.2422 103.259 64.34 103.151 64.4703 103.01C65.4372 103.531 66.5453 102.923 67.5447 103.531C67.8163 102.999 68.2508 103.303 68.5876 103.336C68.6202 103.107 68.6311 102.988 68.642 102.901C69.1634 102.814 69.6631 102.727 70.2606 102.629C70.5865 102.955 70.9558 103.325 71.3904 103.737C71.5316 103.651 71.7163 103.52 71.9227 103.379C72.4984 103.759 73.0743 103.325 73.5957 103.346C73.7478 103.205 73.8455 103.086 73.965 103.031C74.0737 102.977 74.204 102.977 74.3127 102.966C74.3778 103.183 74.4104 103.303 74.4539 103.455C74.7581 103.401 75.0514 103.357 75.4316 103.292C75.5294 103.455 75.6598 103.661 75.7575 103.803C76.3224 103.607 76.8656 103.77 77.2567 103.259C77.7781 103.422 78.2996 103.39 78.821 103.259C79.0926 103.194 79.3642 103.162 79.701 103.107C79.8096 103.249 79.9508 103.422 80.0051 103.498C81.048 103.596 81.9497 102.944 82.7319 103.292C83.2316 103.129 83.6009 102.999 83.7965 102.934C84.9045 103.607 85.8171 103.64 86.7514 102.977C86.8817 103.053 87.023 103.129 87.1533 103.205C87.2837 103.053 87.3815 102.944 87.4358 102.868C88.0441 102.977 88.609 103.075 89.163 103.183C89.2174 103.336 89.2608 103.477 89.326 103.672C89.6411 103.477 89.9018 103.325 90.1733 103.162C90.4884 103.303 90.8143 103.455 91.0859 103.575C91.4661 103.227 91.8029 102.923 92.1614 102.597C92.2917 102.814 92.4329 103.031 92.5524 103.216C93.1608 103.716 93.8126 103.281 94.4644 103.466C95.0837 103.64 95.7572 103.075 96.3004 103.368C96.7132 103.238 97.0499 102.988 97.3107 103.086C98.0928 103.346 98.8533 103.336 99.6355 103.162C99.831 103.118 100.027 103.097 100.2 103.064C100.276 103.26 100.342 103.412 100.428 103.64C100.787 103.14 101.232 103.118 101.667 103.107C101.721 103.281 101.754 103.39 101.83 103.618C102.025 103.498 102.21 103.39 102.406 103.281C102.493 103.238 102.579 103.205 102.623 103.194C102.818 103.466 102.992 103.694 103.068 103.803C103.535 103.651 103.894 103.618 104.198 103.422C104.524 103.216 104.806 102.944 105.176 103.086C105.23 103.249 105.284 103.39 105.328 103.531C105.708 103.466 106.045 103.412 106.371 103.357C106.512 103.498 106.653 103.629 106.784 103.759C106.881 103.672 106.968 103.509 107.066 103.498C107.718 103.455 108.37 103.433 109.032 103.433C109.141 103.433 109.25 103.596 109.337 103.672C109.619 103.444 109.804 103.118 110.162 103.336C110.325 103.433 110.542 103.433 110.727 103.39C111.846 103.173 112.998 103.466 114.106 103.097C114.214 103.064 114.356 103.151 114.475 103.173C114.855 103.238 115.235 103.368 115.605 103.336C115.876 103.314 116.137 103.096 116.463 102.934C116.583 103.086 116.724 103.27 116.876 103.488C117.137 103.314 117.365 103.173 117.56 103.042C117.734 103.107 117.875 103.183 118.038 103.205C118.799 103.314 119.559 103.238 120.309 103.52C120.537 103.607 120.83 103.379 121.026 103.314C121.721 103.325 122.351 103.336 123.057 103.357C123.459 102.988 123.991 103.064 124.708 103.629C124.926 103.596 125.121 103.564 125.317 103.531C125.36 103.325 125.393 103.151 125.469 102.782C125.762 103.162 125.947 103.401 126.175 103.694C127.37 103.238 128.663 103.672 129.912 103.314C130.281 103.205 130.651 103.129 131.074 103.314C131.379 103.444 131.802 103.129 132.259 102.988C132.878 103.531 133.16 102.466 133.671 102.325C133.595 101.739 134.018 101.597 134.333 101.261C134.008 100.935 133.758 100.696 133.497 100.435C133.66 100.305 133.79 100.218 133.964 100.087C133.725 99.5333 133.215 99.5442 132.997 99.0553C132.823 98.6642 132.313 99.0336 132.03 98.5665C131.857 98.2731 131.455 98.7729 131.194 98.4144C130.564 98.523 129.934 98.6317 129.423 98.7186C128.228 98.0885 127.891 98.0559 127.24 98.4904C126.881 98.1428 126.479 98.0667 126.034 98.1645C125.317 98.3166 124.578 97.9689 123.872 98.2731C123.318 97.9798 122.764 98.2514 122.21 98.2731C121.96 98.284 121.71 98.208 121.449 98.1645C121.373 98.2623 121.286 98.3817 121.221 98.4578C120.504 98.1971 119.842 97.9472 119.201 97.7082C118.788 98.3274 118.223 98.0559 117.778 98.2731C117.604 98.1102 117.441 97.9581 117.191 97.73C116.68 98.0015 116.126 98.2949 115.496 98.6208C115.377 98.4361 115.203 98.1971 115.018 97.9255C114.562 98.2731 114.03 97.5344 113.541 98.0233C113.541 98.2623 113.541 98.4904 113.541 98.6968C113.171 98.4687 112.856 98.2731 112.476 98.0233C112.15 98.8055 111.585 98.5447 111.205 98.284C110.76 97.969 110.542 98.284 110.325 98.4361C109.261 98.2623 108.283 97.6104 107.273 98.4035C106.61 98.0015 105.904 98.121 104.98 98.3383C104.937 98.2405 104.839 97.9907 104.73 97.7082C104.491 97.9146 104.35 98.0993 104.187 98.1754C103.851 98.3166 103.557 98.8815 103.144 98.3709C102.427 98.6099 101.765 97.9255 101.069 98.1971C100.993 98.0015 100.939 97.8603 100.863 97.6865C100.526 97.8495 100.113 98.2297 99.8853 98.0993C99.5268 97.8929 99.2335 98.0233 98.9185 98.0558C98.4079 98.1102 97.9082 98.2188 97.2672 98.3274C97.2021 98.2188 97.0717 98.0016 96.963 97.8278C96.5393 98.1102 96.1809 98.3491 95.8224 98.5881C95.3987 98.1427 94.9642 98.6208 94.5622 98.5122C94.1386 98.3927 93.7366 98.1102 93.3238 97.8929C92.9436 98.1319 92.6285 98.4904 92.1505 98.1862C91.9441 98.0558 91.4661 98.0668 91.2814 98.5122C90.9664 98.3058 90.6514 98.1102 90.3038 97.8821C89.4673 98.4144 88.5004 97.4909 87.6856 98.3274C87.6204 98.0667 87.5552 97.8386 87.4683 97.4692C87.3163 97.7951 87.2185 98.0233 87.1316 98.2188C86.067 98.3057 85.0458 97.2194 83.992 98.2623C83.8508 98.0776 83.7096 97.8929 83.6227 97.7734C83.123 97.7517 82.7319 97.9255 82.2756 97.7734C81.9389 97.6539 81.4934 98.0559 81.0806 98.1754C80.9394 98.2188 80.7656 98.1428 80.6135 98.0993C80.1681 97.969 79.777 98.0993 79.4294 98.4687C78.984 98.2731 78.5386 98.0667 78.0715 97.8603C77.7238 98.121 77.3979 98.5012 76.9307 98.121C76.8004 98.0124 76.5397 98.1645 76.3333 98.1971C75.9422 98.2623 75.5403 98.3274 75.1492 98.4035C74.9971 98.2079 74.8776 98.0559 74.7907 97.9472C74.3996 98.0124 74.0628 98.0667 73.5957 98.1536C73.5631 98.2731 73.4979 98.5012 73.4327 98.7294C73.3784 98.7076 73.3349 98.6859 73.2806 98.6642C73.248 98.3492 73.2155 98.0233 73.172 97.5887C72.6506 98.599 71.9119 97.5018 71.4121 98.0993C71.4121 98.2188 71.4012 98.3492 71.3904 98.447C71.0102 98.762 70.7168 98.3492 70.3475 98.284C70.3257 98.0885 70.304 97.882 70.2823 97.643C69.7826 97.9146 69.3155 98.1645 68.8484 98.4252C68.7615 98.2623 68.6854 98.0993 68.5985 97.9255C67.9141 98.045 67.2405 98.1536 66.567 98.2731C65.8935 97.4366 65.0027 98.0015 64.2748 97.5778C64.0901 98.0558 63.6556 98.121 63.4818 97.9798C63.0255 97.6322 62.6235 97.9472 62.2107 97.9798C61.7544 98.0232 61.3308 97.7517 60.8419 97.9038C60.4182 98.045 59.9729 98.1862 59.4732 97.9472C59.1907 97.8169 58.767 98.0559 58.4411 98.2406C58.213 98.3709 58.0609 98.4144 57.811 98.3057C57.4851 98.1645 57.1266 98.1428 56.779 98.0993C56.4313 98.0559 56.0729 98.045 55.7252 98.0124C55.6601 98.0124 55.6057 97.9581 55.5514 97.9364C55.5188 97.8169 55.4862 97.6974 55.4428 97.5562C55.3016 97.567 55.1712 97.5779 54.9865 97.5996C54.8019 97.9038 54.6063 98.2297 54.3782 98.6099C54.1392 98.4035 53.9545 98.2406 53.7155 98.0342C53.1614 98.1971 52.5531 98.3709 51.923 98.5556C51.8904 98.3926 51.8361 98.1536 51.76 97.8169C51.4667 97.9907 51.206 98.1428 50.9562 98.2949C50.7715 98.1319 50.5868 97.9689 50.3695 97.7843C49.9567 98.4795 49.3592 98.1754 48.9029 98.5013C48.4249 98.8055 47.9578 99.1096 47.4473 99.4355C47.5016 99.8158 47.545 100.131 47.5885 100.413C47.7623 100.424 47.8492 100.435 47.9796 100.446C48.0447 101.108 48.1099 101.739 48.186 102.401C48.5879 102.716 48.9899 103.021 49.3918 103.336C49.7503 103.27 50.1197 103.216 50.4673 103.151C50.5216 103.303 50.5542 103.422 50.652 103.716C50.9345 103.531 51.1517 103.379 51.3147 103.27L51.282 103.216ZM55.4971 98.523C55.4971 98.523 55.4536 98.523 55.4319 98.5338C55.4319 98.4469 55.4102 98.36 55.4102 98.2731C55.4319 98.2731 55.4536 98.2731 55.4753 98.2623C55.4753 98.3492 55.4971 98.4361 55.4971 98.523Z" fill="#FFE4D5"/>
<path id="Vector_7" d="M62.1349 117.338C62.45 117.382 62.689 117.436 62.9389 117.436C63.1996 117.436 63.4929 117.295 63.7319 117.371C64.6553 117.675 65.5678 117.61 66.4912 117.447C66.9692 117.36 67.4364 117.251 67.9252 117.479C68.3815 117.697 68.8703 117.621 69.3483 117.555C69.5439 117.523 69.7611 117.653 69.8915 117.686C70.326 117.49 70.6954 117.327 71.043 117.175C71.043 117.034 71.0539 116.914 71.0648 116.784C71.2712 116.751 71.4559 116.73 71.8904 116.665C71.923 116.741 72.0207 116.99 72.1185 117.219C72.4879 117.001 72.7486 116.86 73.0202 116.697C73.0962 116.871 73.1614 117.012 73.2157 117.132C73.6394 117.295 74.0414 117.447 74.4433 117.588C74.628 117.229 74.8561 117.425 75.0734 117.468C75.3559 117.523 75.6383 117.555 75.899 117.599C76.0185 117.479 76.1272 117.36 76.2141 117.273C76.4313 117.371 76.5943 117.447 76.7464 117.512C76.8876 117.382 76.9962 117.273 77.1483 117.132C78.2564 117.653 79.5166 117.045 80.6464 117.653C80.9506 117.121 81.4502 117.425 81.8305 117.458C81.8631 117.229 81.8739 117.11 81.8956 117.023C82.4931 116.936 83.0581 116.849 83.7425 116.751C84.1118 117.077 84.5355 117.447 85.0243 117.86C85.1764 117.773 85.4046 117.642 85.6327 117.501C86.2845 117.881 86.9472 117.447 87.5338 117.468C87.7076 117.327 87.8163 117.208 87.9466 117.153C88.077 117.099 88.2291 117.099 88.3377 117.088C88.4029 117.306 88.4463 117.425 88.4898 117.577C88.8266 117.523 89.1634 117.479 89.6088 117.414C89.7283 117.577 89.8695 117.784 89.9781 117.925C90.619 117.729 91.2383 117.892 91.6837 117.382C92.2703 117.545 92.8678 117.512 93.4544 117.382C93.7586 117.316 94.0628 117.284 94.4538 117.229C94.5733 117.371 94.7363 117.544 94.8015 117.621C95.9965 117.718 97.0177 117.066 97.9085 117.414C98.4843 117.251 98.8971 117.121 99.1252 117.056C100.385 117.729 101.428 117.762 102.493 117.099C102.645 117.175 102.808 117.251 102.949 117.327C103.101 117.175 103.21 117.066 103.275 116.99C103.97 117.099 104.611 117.197 105.241 117.306C105.296 117.458 105.35 117.599 105.426 117.794C105.785 117.599 106.078 117.447 106.393 117.284C106.751 117.425 107.121 117.577 107.436 117.697C107.87 117.349 108.25 117.045 108.663 116.719C108.815 116.936 108.978 117.153 109.109 117.338C109.804 117.838 110.543 117.403 111.281 117.588C111.988 117.762 112.748 117.197 113.367 117.49C113.834 117.36 114.215 117.11 114.519 117.208C115.41 117.468 116.279 117.458 117.159 117.284C117.376 117.24 117.604 117.219 117.81 117.186C117.897 117.382 117.962 117.534 118.071 117.762C118.484 117.262 118.984 117.24 119.483 117.229C119.549 117.403 119.592 117.512 119.668 117.74C119.885 117.621 120.103 117.512 120.32 117.403C120.418 117.36 120.515 117.327 120.559 117.316C120.787 117.588 120.982 117.816 121.069 117.925C121.602 117.773 122.015 117.74 122.362 117.544C122.732 117.338 123.047 117.066 123.47 117.208C123.535 117.371 123.59 117.512 123.644 117.653C124.079 117.588 124.459 117.534 124.828 117.479C124.991 117.621 125.143 117.751 125.295 117.881C125.404 117.794 125.502 117.631 125.621 117.621C126.36 117.577 127.11 117.555 127.859 117.555C127.979 117.555 128.098 117.718 128.207 117.794C128.533 117.566 128.739 117.24 129.141 117.458C129.326 117.555 129.576 117.555 129.782 117.512C131.053 117.295 132.357 117.588 133.628 117.219C133.758 117.186 133.91 117.273 134.051 117.295C134.475 117.36 134.909 117.49 135.333 117.458C135.637 117.436 135.942 117.219 136.311 117.056C136.441 117.208 136.604 117.392 136.789 117.61C137.082 117.436 137.343 117.295 137.571 117.164C137.767 117.229 137.93 117.305 138.114 117.327C138.972 117.436 139.852 117.36 140.7 117.642C140.96 117.729 141.297 117.501 141.515 117.436C142.308 117.447 143.025 117.458 143.828 117.479C144.296 117.11 144.893 117.186 145.708 117.751C145.958 117.718 146.186 117.686 146.392 117.653C146.436 117.447 146.479 117.273 146.566 116.904C146.892 117.284 147.109 117.523 147.37 117.816C148.728 117.36 150.194 117.794 151.618 117.436C152.041 117.327 152.465 117.251 152.943 117.436C153.291 117.566 153.779 117.251 154.279 117.11C154.974 117.653 155.3 116.588 155.887 116.447C155.8 115.861 156.289 115.719 156.637 115.383C156.267 115.057 155.985 114.818 155.681 114.557C155.876 114.427 156.017 114.34 156.202 114.209C155.93 113.655 155.355 113.666 155.105 113.177C154.909 112.786 154.323 113.156 154.008 112.689C153.812 112.395 153.345 112.895 153.062 112.536C152.345 112.645 151.628 112.754 151.053 112.841C149.695 112.211 149.304 112.178 148.576 112.612C148.163 112.265 147.718 112.189 147.207 112.287C146.392 112.439 145.556 112.091 144.741 112.395C144.111 112.102 143.481 112.373 142.851 112.395C142.568 112.406 142.275 112.33 141.982 112.287C141.895 112.384 141.786 112.504 141.721 112.58C140.906 112.319 140.157 112.069 139.418 111.83C138.951 112.449 138.31 112.178 137.799 112.395C137.604 112.232 137.419 112.08 137.126 111.852C136.55 112.124 135.909 112.417 135.192 112.743C135.051 112.558 134.866 112.319 134.649 112.048C134.127 112.395 133.53 111.657 132.965 112.145C132.965 112.384 132.965 112.612 132.965 112.819C132.552 112.591 132.194 112.395 131.748 112.145C131.379 112.928 130.738 112.667 130.303 112.406C129.793 112.091 129.554 112.406 129.293 112.558C128.087 112.384 126.968 111.733 125.828 112.526C125.078 112.124 124.263 112.243 123.22 112.46C123.177 112.363 123.068 112.113 122.938 111.83C122.666 112.037 122.503 112.221 122.319 112.297C121.939 112.439 121.602 113.004 121.135 112.493C120.32 112.732 119.57 112.048 118.777 112.319C118.69 112.124 118.625 111.982 118.538 111.809C118.147 111.972 117.691 112.352 117.419 112.221C117.006 112.015 116.67 112.145 116.311 112.178C115.735 112.232 115.16 112.341 114.432 112.45C114.356 112.341 114.215 112.124 114.084 111.95C113.606 112.232 113.193 112.471 112.791 112.71C112.313 112.265 111.814 112.743 111.357 112.634C110.869 112.515 110.423 112.232 109.956 112.015C109.522 112.254 109.174 112.612 108.62 112.308C108.381 112.178 107.838 112.189 107.631 112.634C107.273 112.428 106.914 112.232 106.523 112.004C105.578 112.536 104.47 111.613 103.547 112.45C103.471 112.189 103.405 111.961 103.297 111.591C103.123 111.917 103.014 112.145 102.917 112.341C101.7 112.428 100.548 111.341 99.3424 112.384C99.1795 112.2 99.0166 112.015 98.9188 111.895C98.3539 111.874 97.9084 112.048 97.387 111.895C96.9959 111.776 96.4962 112.178 96.0291 112.297C95.8661 112.341 95.6706 112.265 95.4968 112.221C94.9862 112.091 94.5516 112.221 94.1497 112.591C93.65 112.395 93.1394 112.189 92.6071 111.982C92.2052 112.243 91.8358 112.623 91.3143 112.243C91.1623 112.134 90.8689 112.287 90.6408 112.319C90.1954 112.384 89.7391 112.45 89.2937 112.526C89.1199 112.33 88.9786 112.178 88.8809 112.069C88.4355 112.134 88.0552 112.189 87.5229 112.276C87.4795 112.395 87.4034 112.623 87.3383 112.851C87.2839 112.83 87.2188 112.808 87.1645 112.786C87.1319 112.471 87.0884 112.145 87.0341 111.711C86.4366 112.721 85.6001 111.624 85.0352 112.221C85.0352 112.341 85.0135 112.471 85.0135 112.569C84.5789 112.884 84.2422 112.471 83.8185 112.406C83.7968 112.211 83.775 112.004 83.7425 111.765C83.1667 112.037 82.6452 112.287 82.1129 112.547C82.0152 112.384 81.9282 112.221 81.8305 112.048C81.0483 112.167 80.2879 112.276 79.5274 112.395C78.767 111.559 77.7458 112.124 76.9202 111.7C76.7029 112.178 76.2249 112.243 76.0185 112.102C75.4971 111.754 75.0408 112.069 74.5737 112.102C74.0522 112.145 73.5634 111.874 73.0202 112.026C72.5313 112.167 72.0316 112.308 71.4667 112.069C71.1517 111.939 70.6628 112.178 70.2934 112.363C70.0327 112.493 69.8589 112.536 69.5656 112.428C69.1962 112.287 68.7943 112.265 68.3923 112.221C67.9904 112.178 67.5885 112.167 67.1974 112.134C67.1322 112.134 67.067 112.08 67.0018 112.058C66.9584 111.939 66.9257 111.819 66.8823 111.678C66.7193 111.689 66.5673 111.7 66.3609 111.722C66.1545 112.026 65.9263 112.352 65.6765 112.732C65.4049 112.526 65.1876 112.363 64.916 112.156C64.2859 112.319 63.6016 112.493 62.8737 112.678C62.8303 112.515 62.7759 112.276 62.689 111.939C62.3522 112.113 62.059 112.265 61.7765 112.417C61.5701 112.254 61.3636 112.091 61.1138 111.906C60.6466 112.602 59.9623 112.297 59.4408 112.623C58.8976 112.928 58.3653 113.232 57.7896 113.558C57.8547 113.938 57.8982 114.253 57.9417 114.535C58.1372 114.546 58.2459 114.557 58.3871 114.568C58.4631 115.231 58.5391 115.861 58.6152 116.523C59.0823 116.838 59.5277 117.143 59.9949 117.458C60.4077 117.392 60.8205 117.338 61.2116 117.273C61.2659 117.425 61.3094 117.545 61.418 117.838C61.733 117.653 61.9829 117.501 62.1784 117.392L62.1349 117.338ZM66.9367 112.645C66.9367 112.645 66.8823 112.645 66.8606 112.656C66.8606 112.569 66.8388 112.482 66.828 112.395C66.8497 112.395 66.8823 112.395 66.904 112.384C66.904 112.471 66.9258 112.558 66.9367 112.645Z" fill="#FFE4D5"/>
</g>
</g>
</svg>
