<svg width="181" height="157" viewBox="0 0 181 157" fill="none" xmlns="http://www.w3.org/2000/svg">
<g id="Graphic 08">
<g id="circle-dark">
<g id="Frame 43827">
<path id="Vector" d="M1.85807 -1.20367L23.9467 -1.20367C23.9467 27.7838 47.5325 51.3591 76.5095 51.3591C105.486 51.3591 129.072 27.7734 129.072 -1.20366L151.161 -1.20366C151.161 39.9588 117.672 73.4478 76.5095 73.4477C35.347 73.4477 1.85807 39.9588 1.85807 -1.20367Z" fill="#FF8241"/>
<path id="Vector_2" d="M2.64356 18.8649C3.02043 20.2677 3.21932 21.3983 3.60665 22.4765C4.01493 23.6386 4.52791 24.8843 4.87337 25.9312C6.07726 30.0453 8.01396 33.8768 10.317 37.5094C10.8823 38.4516 11.5104 39.3624 12.1281 40.2836C12.7248 41.2153 13.3006 42.1575 13.8763 43.131C14.9127 45.0049 16.3783 46.7427 17.8648 48.4386C18.493 49.1191 19.0583 49.9566 19.4142 50.4172C20.147 51.129 20.8798 51.7153 21.5288 52.3015C22.1884 52.8878 22.8165 53.4217 23.4551 53.9137C23.5807 53.8404 23.6854 53.7881 23.8006 53.7252C24.5438 54.3534 25.0987 54.971 26.6585 56.2063C26.7108 56.3424 26.9202 56.8449 27.0981 57.3055C28.5219 58.3 29.5583 58.8548 30.6365 59.5248C30.8145 59.8703 30.961 60.1634 31.0867 60.4147C32.5837 61.6604 34.0179 62.9062 35.5358 64.0054C36.4361 64.1729 37.2212 64.9162 38.0797 65.4291C39.1893 66.12 40.3095 66.8424 41.3668 67.3972C41.9112 67.5438 42.3927 67.6694 42.801 67.7741C43.6489 68.3394 44.3294 68.7058 44.9366 69.0512C45.5752 69.1978 46.0777 69.3234 46.7686 69.4805C47.8888 70.1086 49.1136 70.6111 50.3593 71.145C51.626 71.6265 52.9346 72.0453 54.2431 72.4849C55.5726 72.8618 56.9022 73.2491 58.2108 73.626C59.5403 73.961 60.8279 74.3693 62.0946 74.7566C63.6125 74.5054 65.8005 75.2172 67.5592 75.4266C67.7267 75.2277 67.8209 75.123 67.8942 75.0497C70.6474 75.301 73.2541 75.3847 76.4052 75.3429C77.2636 75.5418 78.1743 75.6464 79.1688 75.8139C80.1633 75.971 81.2207 76.1489 82.3618 76.2432C83.0736 76.0966 84.0891 75.8872 85.1674 75.6674C88.2137 75.6779 91.2077 74.7985 93.8772 74.2018C94.6519 73.8877 95.1125 73.6574 95.6883 73.469C96.2536 73.3015 96.9131 73.0921 97.426 72.9456C97.7924 73.0607 97.9914 73.1235 98.2531 73.1968C99.7815 72.7467 101.237 72.1918 103.131 71.4695C103.697 71.459 104.388 71.3753 104.901 71.3334C106.262 70.7053 107.622 70.1609 108.826 69.5433C110.041 68.957 111.129 68.3499 111.925 67.638C112.553 67.3553 113.181 67.0727 113.799 66.7691C114.406 66.455 115.003 66.1096 115.6 65.7641C116.803 65.0941 117.944 64.3299 119.065 63.5238C120.237 62.7387 121.357 61.8489 122.791 60.7811C123.346 60.5717 124.027 60.2262 124.299 60.1006C128.759 56.7716 131.711 52.9925 134.705 50.1555C135.511 49.0981 136.223 48.1978 136.767 47.4336C137.301 46.659 137.73 46.0413 138.034 45.6016C142.095 41.4037 144.681 37.1221 146.272 32.4426C146.66 31.8564 147.016 31.1969 147.351 30.6316C147.497 29.9407 147.602 29.4486 147.675 29.145C148.356 27.7004 148.952 26.2767 149.528 24.8843C150.041 23.4711 150.627 22.1102 151.046 20.6969C151.255 20.4875 151.454 20.2886 151.727 20.006C152.041 18.3415 152.187 16.991 152.355 15.515C152.91 13.9133 153.265 12.2278 153.663 10.846C153.663 9.80958 153.6 8.84647 153.569 7.91476C153.548 6.98306 153.485 6.06182 153.391 5.09871C153.653 4.40779 153.914 3.68547 154.145 3.06782L154.208 2.77469C154.229 2.65954 154.239 2.46064 154.26 2.30361L154.344 1.28815C154.396 0.597228 154.438 -0.104167 154.469 -0.805561C154.49 -1.50696 154.522 -2.21881 154.553 -2.94114C154.553 -3.27614 154.616 -3.69488 154.532 -3.96706L153.37 -3.96706C151.821 -3.94612 150.261 -3.93566 148.701 -3.92519C147.801 -3.92519 147.026 -3.92519 146.189 -3.96706C143.027 -4.13456 139.583 -3.5902 136.83 -3.87285C135.772 -3.7891 134.82 -3.71583 133.961 -3.65302C133.532 -3.62161 133.124 -3.5902 132.747 -3.57973C132.443 -3.57973 132.161 -3.57973 131.878 -3.57973C131.564 -3.57973 131.25 -3.5902 130.946 -3.60067C129.355 -3.46458 126.581 -4.50097 127.209 -1.93617C127.115 -0.449634 127.021 1.03691 126.926 2.52345L126.853 3.92624L126.654 5.31856C126.529 6.25026 126.424 7.18197 126.319 8.13461L126.236 8.84647C126.183 9.07678 126.131 9.30709 126.079 9.53739C125.974 9.99801 125.88 10.4377 125.775 10.8669C125.492 11.1914 125.293 11.4322 124.958 11.8091C125.084 13.6411 124.236 15.6615 123.545 17.6819C123.294 17.8704 123.147 17.996 122.802 18.2263C122.498 19.1161 122.195 19.9746 121.891 20.8539C121.755 21.2413 121.588 21.6495 121.514 21.817C120.897 22.5917 120.227 23.1465 119.965 23.4187C119.441 24.4028 118.96 25.2926 118.541 26.0882C118.122 26.8943 117.62 27.5329 117.274 28.1924C116.5 29.5533 115.914 30.8724 114.542 32.0972C114.228 32.2019 113.966 32.2961 113.715 32.3798C113.108 33.0708 112.595 33.7721 111.988 34.3479C111.391 34.9342 110.815 35.489 110.24 36.0438C109.632 36.4102 109.078 36.7662 108.491 37.0907C108.188 37.4257 107.926 37.813 107.549 38.1061C106.282 39.0483 105.089 40.1056 103.697 40.8803C102.325 41.6759 101.038 42.6286 99.5721 43.2462C99.1115 43.466 98.5776 43.5498 98.1588 43.6754C97.5935 44.0732 97.1329 44.4396 96.6095 44.7851C96.0756 45.0887 95.4579 45.3294 94.6205 45.5284C93.8562 45.7063 92.8513 46.0832 92.0138 46.4287C86.8528 48.2188 81.2521 48.6794 75.8398 48.9306C75.2955 48.9306 74.6464 48.8155 74.0393 48.7631L72.6679 48.6375L71.9874 48.5747L71.307 48.4386C70.4067 48.2607 69.5064 48.1036 68.6061 47.978C67.957 47.8733 67.2975 47.8838 66.6275 47.7791C65.947 47.6849 65.2247 47.5802 64.4186 47.465C63.9161 47.1824 63.2985 46.8474 62.5971 46.4496C61.3513 46.2402 60.294 45.9471 59.3204 45.7377C58.5667 45.3818 57.8967 45.1096 57.2267 44.7641C56.4102 44.3454 55.5832 43.9267 54.7562 43.5079C53.9291 43.0996 53.0916 42.7123 52.3274 42.1784C50.7781 41.1734 49.1659 40.2731 47.8364 38.996C47.0198 38.2527 45.6798 37.6141 44.947 37.0279C43.7222 35.8659 42.4765 34.8399 41.3563 33.6675C40.812 33.0603 40.2676 32.4636 39.7232 31.8459C39.1893 31.2178 38.5717 30.6525 38.0901 29.9302C37.3678 29.2497 36.6141 28.3704 35.8603 27.2816C35.1066 26.1929 34.5204 24.7587 33.8504 23.1779C33.2327 22.3195 32.8663 21.4297 32.4162 20.6341C32.1545 20.5399 31.9137 20.4456 31.4426 20.2677C31.2961 19.5558 31.1809 18.9696 31.0658 18.4147C30.9611 17.8704 30.9401 17.3365 30.8773 16.7816C30.5842 16.1326 30.2911 15.4626 30.0084 14.7821C29.7153 14.1017 29.4326 13.4212 29.2651 12.6884C28.8883 11.2438 28.4381 9.7991 28.1659 8.30209C27.9356 6.79462 27.7053 5.28714 27.475 3.77967C27.318 1.53939 27.1505 -0.711354 26.9935 -2.93069L26.9411 -3.5588L26.9411 -3.71584C26.9411 -3.71584 26.9411 -3.77864 26.9097 -3.78911L26.8259 -3.78911L26.491 -3.77864C26.0513 -3.77864 25.6116 -3.75771 25.172 -3.74724C24.3031 -3.73677 23.4237 -3.7263 22.5339 -3.71584C22.1465 -3.71584 21.7592 -3.71584 21.3719 -3.71584C21.1206 -3.71584 20.8693 -3.72629 20.6076 -3.73676C20.0946 -3.7577 19.5713 -3.77865 19.0269 -3.83099C17.4671 -3.95661 15.3001 -3.65302 13.0075 -3.51693C9.86691 -4.04036 8.40128 -3.01444 5.78414 -2.87835C6.15054 -2.31304 4.00451 -2.17696 2.41329 -1.85243C4.08826 -1.53837 5.35493 -1.30806 6.70538 -1.05681C5.84695 -0.931187 5.20836 -0.847447 4.33947 -0.721824C5.56429 -0.187926 8.15005 -0.198398 9.27019 0.272688C10.1496 0.649557 12.7876 0.293638 14.2008 0.743787C15.0907 1.02644 17.153 0.544884 18.4511 0.890347C19.2572 0.86941 20.0633 0.837997 20.8589 0.817059L21.4556 0.796118C21.5812 0.796118 21.6231 0.796118 21.644 0.796118L21.7487 0.796118L22.157 0.754251C22.3036 0.743782 22.4501 0.733315 22.5862 0.722846C22.6909 0.680972 22.649 0.80659 22.6699 0.848464L22.7013 1.03691C22.7327 1.31956 22.7746 1.59174 22.806 1.85345C22.7746 2.64907 22.7432 3.37139 22.7118 4.04138C22.6909 4.71137 22.7746 5.30809 22.806 5.86292C22.8898 6.98306 22.984 7.90429 23.0991 8.74177C23.1619 9.16051 23.2038 9.54786 23.298 9.92473C23.4027 10.3016 23.5074 10.6575 23.6226 11.0135C23.8529 11.7358 24.1146 12.4477 24.4391 13.2537C24.5124 15.2218 25.2975 17.2109 26.1664 19.4093C26.4909 20.3096 26.9935 21.1366 27.3808 22.0159C27.7891 22.8953 28.1973 23.7642 28.6056 24.6435C29.5373 26.3395 30.5528 27.9935 31.6834 29.5219C32.4476 30.7886 33.327 31.982 34.2482 33.144C34.6774 33.7407 35.2322 34.2432 35.7347 34.7771L37.2631 36.3788C38.132 37.3838 39.0847 38.326 40.0897 39.2891C40.4665 39.4984 40.8852 39.7392 41.1679 39.8858C43.8374 42.5762 46.6325 44.806 49.5114 46.7427C50.5792 47.0986 51.7935 47.5802 53.0079 48.1141C53.615 48.3863 54.2223 48.6689 54.819 48.9411C55.1226 49.0772 55.4156 49.2028 55.6983 49.3284C56.0019 49.4227 56.295 49.5169 56.5882 49.5902C57.4256 50.0612 58.1898 50.5009 59.3623 51.1709C60.6709 51.5792 62.126 51.7258 63.6125 51.9875C64.3558 52.1026 65.12 52.2282 65.9051 52.3434C66.7008 52.4167 67.5173 52.4481 68.3443 52.5004C68.9725 52.7726 69.81 53.139 70.7731 53.5578C71.9979 53.5787 73.3169 53.652 74.6569 53.8299C75.3269 53.9032 76.0073 53.966 76.6773 53.9974C77.3473 54.0288 78.0278 53.9032 78.6768 53.7671C78.6768 53.5368 78.6977 53.317 78.7082 53.1181C79.6818 53.1809 80.5821 53.2332 81.5034 53.296C81.964 53.317 82.435 53.3798 82.9166 53.3589C83.3981 53.3379 83.8901 53.3274 84.4031 53.3065C85.2301 52.804 86.3712 52.5004 87.5751 52.312C88.7685 52.1026 90.0038 51.8409 91.0297 51.7362C92.2127 51.5687 93.092 51.3908 93.762 51.0872C94.432 50.7836 94.945 50.4695 95.4789 50.1973C96.1489 49.9775 96.8189 49.7681 97.4784 49.5483C97.8134 49.4436 98.1379 49.3494 98.4625 49.2342L99.4151 48.8364C100.682 48.313 101.928 47.7791 103.163 47.2347C105.497 45.9157 107.853 44.5967 109.706 42.5972C110.459 42.147 111.224 41.6655 111.988 41.142C112.7 40.5558 113.422 39.9172 114.155 39.2472C114.521 38.9017 114.898 38.5563 115.275 38.2004C115.662 37.8444 116.039 37.4676 116.385 37.0383C117.097 36.2009 117.84 35.3215 118.625 34.3793C118.834 34.2746 119.389 34.0653 119.965 33.7617C120.572 32.6206 120.886 31.9087 121.368 31.1445C121.828 30.3803 122.247 29.6475 122.613 28.831C123.001 28.0249 123.472 27.2188 124.247 26.4232C125.21 24.7692 126.005 23.1256 126.906 21.5344L127.565 20.3305C127.785 19.9327 127.931 19.493 128.109 19.0743C128.444 18.2263 128.759 17.3574 129.01 16.4571C129.324 16.1221 129.565 15.8814 129.868 15.5673C130.256 13.7562 130.392 11.5474 130.831 10.3853C131.428 8.53241 131.47 6.94119 131.711 5.26621C131.826 4.59623 131.847 3.92623 131.857 3.23531C131.857 2.88984 131.878 2.54439 131.878 2.19893L131.878 1.93721L131.878 1.81158L131.878 1.78018L131.868 1.66502C131.857 1.48706 131.836 1.3091 131.826 1.12067C131.92 1.02645 132.14 1.04739 132.349 1.00551C132.412 1.05785 132.485 1.14159 132.538 1.22534C132.768 1.30909 133.092 1.40331 133.365 1.48706C135.511 1.21487 137.364 0.984569 139.185 0.754261C141.331 1.18347 143.592 0.722863 145.644 0.827549C146.189 0.869423 146.723 0.900814 147.246 0.942688L148.031 1.01598C148.261 1.03691 148.659 1.06832 148.628 1.09973C148.743 1.15207 148.837 1.21488 148.9 1.26723C148.931 1.29863 148.952 1.31957 148.973 1.35098C148.973 1.39285 149.026 1.36144 148.973 1.48706C149.088 1.63362 149.225 1.85346 149.298 2.17799C149.319 2.26174 149.329 2.34549 149.34 2.4397C149.34 2.57579 149.319 2.90032 149.298 3.13063C149.256 3.63312 149.183 4.17748 149.068 4.77419C148.91 5.80011 148.586 8.11367 148.91 9.07678C148.502 10.6052 148.01 12.1127 147.487 13.7144C147.162 17.8913 144.88 22.1834 144.074 26.1824C143.708 26.3918 143.425 26.5907 142.902 26.8734C142.891 27.669 142.881 28.2029 142.881 28.6635C141.844 31.1027 140.4 33.2592 138.997 35.3948C138.316 36.473 137.552 37.499 136.914 38.6191C136.233 39.7078 135.574 40.8175 135.019 42.0319C134.443 42.4715 133.867 42.9112 133.501 43.1939C132.747 44.1674 132.067 45.0259 131.365 45.8424C131.02 46.2507 130.674 46.6485 130.329 47.0568C129.952 47.4441 129.565 47.821 129.146 48.1978C127.931 49.3494 126.612 51.129 125.199 52.5737C124.686 53.0657 124.006 53.5682 123.409 54.0288C121.629 55.3269 120.227 56.6146 118.981 57.8917L117.557 58.7292C117.065 58.9909 116.573 59.2422 116.081 59.5039C115.097 60.0378 114.092 60.5508 113.024 61.0219C111.684 62.1211 110.376 63.1888 108.188 63.8902C107.549 64.0682 106.439 64.7277 105.539 65.1779C103.76 65.984 101.959 66.79 100.116 67.4391C99.3313 67.5019 98.7346 67.5647 98.3054 67.5856C96.4734 68.1719 94.9136 68.7058 92.6628 69.2606C92.5163 69.4072 92.2441 69.7003 91.9719 69.9934C91.7207 70.0353 91.4589 70.0458 91.2077 70.0772C90.9878 69.805 90.768 69.5328 90.4645 69.1559C89.292 69.8678 87.7531 70.1295 86.2142 70.2237C84.6858 70.3808 83.1574 70.3598 81.943 70.7367C81.9116 70.8623 81.8907 70.9775 81.8592 71.0821C80.9171 71.3229 80.0691 71.3125 79.2421 71.2601C78.4151 71.2078 77.5881 71.1554 76.6773 71.0926C76.5726 70.8937 76.4784 70.7053 76.3528 70.4645C75.1175 70.5482 73.9241 70.6948 72.7621 70.7262C71.5896 70.7471 70.4381 70.8204 69.2656 70.81L68.0931 70.1819C64.7118 69.9097 61.4351 69.3234 58.2212 68.5906C55.2482 67.0203 50.9246 66.0049 47.8259 64.1624C47.3129 64.1834 46.5697 63.9845 45.8579 63.7332C45.1669 63.4401 44.5074 63.0842 44.1305 62.812C43.6699 62.477 43.1988 62.1943 42.7382 61.9326C42.288 61.65 41.8274 61.3987 41.3773 61.1579C40.4665 60.6868 39.5453 60.2576 38.6869 59.7028C36.7502 58.5303 35.1799 57.1171 33.2223 55.798C31.474 54.6255 29.6943 53.3065 28.0717 51.485C27.6216 50.9615 26.9725 50.3858 26.2711 49.81C25.5907 49.2133 24.8893 48.6061 24.2612 48.0932C23.3714 47.3708 22.8583 46.795 22.1151 45.7901C21.152 44.5234 20.1052 43.0787 19.0897 41.7073C18.1266 40.2731 17.1006 38.8599 16.2213 37.3629C16.0642 37.1116 15.9491 36.8394 15.8339 36.6196C15.8444 36.4207 15.8549 36.2323 15.8654 36.0019C15.499 35.3948 15.164 34.8504 14.7034 34.0862C14.3579 33.7721 13.9915 33.4476 13.6041 33.0917C13.2377 32.7253 12.84 32.3379 12.4212 31.9192C12.0548 30.7781 11.7617 29.8778 11.4686 28.7053C11.144 28.0982 10.8195 27.4701 10.495 26.8315C10.1914 26.1824 9.88782 25.5229 9.58423 24.8529C8.92471 23.5234 8.41174 22.0787 7.80456 20.6236C7.89878 20.4038 8.03485 20.0897 8.24423 19.6396C7.71033 18.2891 7.15551 17.1376 6.75771 15.9232C6.70536 15.0124 6.64259 14.0912 6.60072 13.0025C6.09822 12.0812 5.77366 10.8669 5.51194 9.61066C5.30257 8.34397 5.11412 7.04586 4.84194 5.93619C4.61163 4.77418 4.37086 3.6017 4.13008 2.41875C3.95212 1.21486 3.76373 0.00051353 3.58576 -1.25572C3.22983 -0.983533 2.92624 -0.763689 2.66452 -0.564786C2.66452 0.304106 2.67495 0.785654 2.68542 1.42424C2.0573 1.80111 1.46064 2.16751 0.832522 2.54438C0.685961 4.6695 0.518433 6.76321 0.53937 8.95115C0.675462 9.89332 0.842949 10.8355 1.05232 11.7672C1.25122 12.6884 1.4292 13.6097 1.64904 14.51C1.56529 14.8031 1.50249 15.002 1.33499 15.5568C1.84795 16.9596 2.22482 18.0693 2.58075 18.8754L2.64356 18.8649ZM15.3105 36.8394L15.1221 36.5672L15.2582 36.3265L15.4466 36.5987L15.3105 36.8394Z" fill="#FF8241"/>
</g>
</g>
<g id="circle-light">
<path id="Vector_3" d="M174.766 107.793C186.563 97.802 188.027 80.1396 178.036 68.3428C168.045 56.546 150.383 55.0821 138.586 65.073C126.789 75.0639 125.325 92.7262 135.316 104.523C145.307 116.32 162.969 117.784 174.766 107.793Z" fill="#FFA972"/>
<path id="Vector_4" d="M172.842 61.9764C172.386 61.5938 171.992 61.3313 171.584 61.1005C171.146 60.8453 170.619 60.6648 170.253 60.3991C169.904 60.1184 169.522 59.9061 169.133 59.7097C168.744 59.5133 168.35 59.3219 167.948 59.1464C167.165 58.7585 166.3 58.561 165.449 58.3317C165.009 58.2296 164.577 58.0898 164.142 57.9935C163.696 57.8964 163.268 57.7733 162.84 57.5901C162.433 57.4195 161.995 57.2847 161.554 57.1934C161.099 57.1339 160.637 57.101 160.18 57.0632C159.805 57.0375 159.406 56.8896 159.17 56.8371C158.33 56.8715 157.629 57.0104 156.972 57.0818C156.953 57.1787 156.934 57.2648 156.921 57.3567C156.531 57.3845 156.19 57.329 155.382 57.4371C155.326 57.3941 155.127 57.219 154.937 57.0664C154.247 57.2665 153.782 57.3976 153.278 57.5418C153.123 57.4305 152.994 57.3377 152.884 57.2684C152.079 57.2837 151.3 57.2958 150.533 57.3089C150.235 57.6016 149.794 57.5814 149.388 57.6518C148.86 57.7558 148.325 57.8647 147.847 57.9564C147.655 58.0992 147.481 58.2161 147.34 58.3357C146.928 58.4111 146.617 58.4728 146.334 58.5205C146.122 58.7 145.951 58.8445 145.722 59.0389C143.606 59.4054 141.695 60.9326 139.659 61.7271C139.352 62.331 138.523 62.7603 137.925 63.1759C137.977 63.3335 138.003 63.4231 138.025 63.4852C137.141 64.1835 136.444 64.9959 135.553 65.9126C134.861 66.2055 134.178 66.6524 133.332 67.1569C133.19 67.4188 132.983 67.7957 132.769 68.1994C132.286 68.6081 131.942 69.1323 131.619 69.6583C131.307 70.1852 131.002 70.6963 130.732 71.1883C130.649 71.5316 130.625 71.754 130.54 71.9878C130.46 72.2166 130.314 72.4616 130.216 72.656C130.01 72.6991 129.909 72.7236 129.765 72.7554C129.449 73.3258 129.266 73.9454 128.961 74.7192C128.773 74.8787 128.522 75.0713 128.34 75.215C128.134 75.7944 127.97 76.3774 127.817 76.9119C127.674 77.4473 127.572 77.9479 127.616 78.4058C127.212 79.4558 126.988 80.5647 126.857 81.6867C126.815 82.2579 126.767 82.8449 126.717 83.5741C126.589 83.7934 126.417 84.0911 126.359 84.2011C126.276 85.3326 126.319 86.3979 126.397 87.373C126.535 88.3477 126.636 89.2426 126.575 90.1023C126.86 91.1548 127.066 91.9106 127.184 92.3363C127.149 93.5484 127.371 94.634 127.609 95.6552C127.948 96.652 128.41 97.5549 128.974 98.4007C129.05 98.6806 129.129 98.9773 129.2 99.2404C129.424 99.445 129.581 99.5949 129.678 99.685C130.134 100.916 130.737 101.962 131.3 103.021C131.266 103.171 131.238 103.306 131.2 103.511C131.672 104.02 132.141 104.371 132.582 104.785C132.927 105.383 133.239 106.038 133.583 106.516C134.329 106.955 134.972 107.32 135.671 107.729C135.754 108.053 135.876 108.364 135.98 108.63C136.355 109.192 136.864 109.65 137.402 110.094C137.922 110.553 138.562 110.88 139.088 111.345C140.089 112.276 141.606 112.588 142.505 113.363C143.342 113.695 144.084 113.795 144.568 114.092C145.286 114.546 146.071 114.84 146.859 115.103C147.253 115.234 147.653 115.36 148.048 115.48C148.456 115.58 148.867 115.636 149.283 115.709C149.698 115.781 150.114 115.854 150.491 115.918C150.641 116.095 150.74 116.223 150.903 116.429C151.739 116.186 152.683 116.286 153.62 116.402C153.729 116.542 153.798 116.636 153.943 116.795C154.364 116.732 154.775 116.667 155.191 116.598C155.373 116.575 155.572 116.558 155.649 116.554C156.08 116.765 156.449 116.937 156.606 117.016C157.62 116.865 158.41 116.783 159.054 116.601C159.741 116.433 160.301 116.091 161.117 116.077C161.262 116.176 161.387 116.252 161.506 116.333C162.323 116.188 163.01 115.949 163.685 115.731C164.012 115.747 164.322 115.768 164.639 115.783C164.817 115.672 164.973 115.51 165.186 115.451C166.505 114.92 167.865 114.496 169.119 113.828C169.324 113.725 169.581 113.73 169.781 113.692C170.27 113.278 170.53 112.916 171.242 112.636C171.575 112.516 171.985 112.26 172.311 112.024L173.065 111.507C173.315 111.336 173.545 111.131 173.785 110.948L175.235 109.831C175.734 109.479 176.14 109.014 176.585 108.597C177.009 108.167 177.444 107.738 177.807 107.259C177.943 107.062 178.182 106.89 178.368 106.692C178.92 106.103 179.572 105.572 180.027 104.903C180.357 104.422 180.556 103.869 180.867 103.222C181.093 103.071 181.395 102.915 181.699 102.689C181.87 102.139 182.024 101.665 182.163 101.244C182.385 100.945 182.592 100.7 182.774 100.414C183.55 98.9784 184.185 97.4495 184.84 95.955C185.053 95.502 185.124 94.8456 185.153 94.4267C185.323 93.6965 185.49 92.9989 185.657 92.3013C185.798 91.596 185.869 90.8686 185.981 90.1171C185.886 89.2172 185.912 88.1029 186.385 86.5605C186.364 86.0827 186.29 85.6606 186.253 85.247C186.101 85.1633 185.97 85.0923 185.703 84.9443C185.926 84.3114 186.093 83.8765 186.244 83.3746C185.856 82.1165 185.737 80.7714 185.348 79.4639C185.167 78.8086 185.043 78.1252 184.795 77.4863C184.547 76.8473 184.282 76.2124 183.988 75.6024C183.832 75.2392 183.625 74.8883 183.437 74.5224C183.254 74.1515 183.079 73.7539 182.94 73.3156C182.835 73.0004 182.651 72.6512 182.378 72.3058C182.1 71.9653 181.785 71.6053 181.494 71.2255C181.302 70.5692 180.989 70.1876 180.596 69.9033C180.192 69.629 179.767 69.4132 179.4 69.0161C179.161 69.3903 178.547 68.7483 177.974 68.3944C178.198 69.0642 178.369 69.5764 178.554 70.1171C178.281 69.903 178.07 69.7486 177.792 69.5286C177.774 70.151 178.387 70.9352 178.364 71.4805C178.335 71.8995 179.057 72.6325 179.061 73.2457C179.062 73.6289 179.777 74.115 179.741 74.6812C180.036 75.2092 180.338 75.7322 180.619 76.2317C180.889 76.7411 181.081 77.2551 181.286 77.6989C181.508 78.8447 181.54 79.5861 181.672 80.1717C181.782 80.7555 182.031 81.1811 182.256 81.7689C182.114 82.496 182.195 83.236 182.367 84.0603C182.459 84.7301 182.473 85.4263 182.487 86.1116C182.502 86.7968 182.423 87.4799 182.519 88.1665C182.459 88.4297 182.427 88.6897 182.4 88.9447C182.357 89.2038 182.324 89.4638 182.303 89.7247C182.259 90.2465 182.243 90.776 182.194 91.3027C182.127 91.7734 181.936 92.2282 181.804 92.7043C181.84 92.866 181.885 93.0503 181.907 93.1726C181.689 93.8222 181.383 94.4152 181.095 94.9824C180.797 95.5487 180.574 96.1213 180.22 96.6337C180.266 97.0699 180.13 97.5183 179.967 97.9591C179.878 98.1761 179.794 98.399 179.705 98.616C179.6 98.8262 179.501 99.0314 179.429 99.2334C179.159 99.4627 178.916 99.678 178.539 100.008C178.465 100.243 178.385 100.482 178.299 100.727C178.192 100.959 178.084 101.202 177.977 101.444C177.754 101.946 177.514 102.473 177.265 103.027C177.031 103.145 176.677 103.263 176.287 103.411C175.886 104.215 174.903 104.654 174.44 105.491C174.549 105.621 174.66 105.739 174.76 105.846C174.129 106.199 173.619 106.54 172.941 106.861C172.793 107.664 171.813 108.19 171.133 108.473C170.291 108.732 170.066 109.135 169.755 109.448C167.946 110.415 166.09 110.682 164.467 111.845C163.836 111.935 163.179 111.995 162.501 112.196C162.155 112.277 161.809 112.418 161.425 112.501C161.045 112.59 160.643 112.688 160.213 112.789C160.131 112.728 159.918 112.584 159.686 112.417C159.268 112.64 159.018 112.811 158.702 112.866C158.088 113.002 157.532 113.443 156.737 113.125C155.359 113.252 154.128 112.777 152.807 112.744C152.677 112.591 152.582 112.48 152.469 112.333C151.818 112.389 151.012 112.475 150.607 112.283C149.976 111.968 149.399 111.991 148.834 111.813C148.375 111.677 147.914 111.551 147.416 111.427C147.169 111.363 146.906 111.303 146.645 111.221C146.384 111.129 146.114 111.024 145.833 110.919C145.745 110.791 145.589 110.559 145.458 110.357C145.059 110.28 144.675 110.232 144.32 110.148C143.967 110.053 143.63 109.954 143.299 109.86C143.026 109.526 142.669 109.332 142.296 109.153C141.921 108.985 141.572 108.776 141.275 108.532C140.67 107.973 140.14 107.431 139.674 106.774C139.036 106.426 138.382 106.251 137.885 105.449C137.674 105.093 137.065 104.446 136.587 104.406C136.258 103.886 136.01 103.307 135.749 102.7C135.124 102.189 134.629 101.485 134.255 100.721C133.858 99.9657 133.389 99.2811 132.824 98.698C132.939 98.4995 133.036 98.3269 133.185 98.0492C132.853 97.8958 132.626 97.7949 132.43 97.7076C132.312 97.4844 132.205 97.2511 132.11 97.0188C132.031 96.7824 131.975 96.5369 131.907 96.2906C131.789 95.8046 131.67 95.3296 131.556 94.8495C131.334 93.8953 131.144 92.9546 130.523 92.0658C130.612 91.7777 130.697 91.4837 130.756 91.3025C130.636 90.3732 130.339 89.6644 130.438 88.7916C130.46 88.4705 130.391 88.1036 130.292 87.7232C130.242 87.533 130.193 87.3319 130.143 87.1417C130.105 86.9415 130.082 86.7481 130.071 86.5556C130.05 86.2803 130.115 85.9627 130.155 85.676C130.223 85.2548 130.217 84.8657 130.204 84.4925C130.208 84.1152 130.165 83.7669 130.08 83.415C130.201 83.0091 130.328 82.5983 130.455 82.1874C130.604 81.7783 130.79 81.3778 130.962 80.9597C130.925 80.2835 130.786 79.5824 131.34 78.8403C131.494 78.6287 131.542 78.1236 131.643 77.7545L131.787 77.2082L131.984 76.6772L132.379 75.6154C132.62 75.411 132.808 75.2515 132.944 75.1368C133.241 74.4609 133.538 73.9055 133.922 73.1055C133.887 73.004 133.804 72.8111 133.728 72.6132C133.789 72.5308 133.855 72.465 133.932 72.3894C134.156 72.4626 134.386 72.5309 134.695 72.6332C134.685 71.4284 136.068 70.7221 136.408 69.7871C136.348 69.7165 136.294 69.6517 136.244 69.5928C136.399 69.239 136.626 69.0061 136.873 68.7968C136.997 68.6921 137.126 68.5933 137.254 68.4945C137.393 68.4075 137.532 68.3096 137.673 68.2008C137.798 68.2768 137.929 68.3479 138.085 68.4375C138.359 68.0443 138.625 67.6668 138.891 67.3003C139.027 67.1145 139.158 66.9229 139.287 66.7421L139.735 66.2319L140.332 66.2212C140.832 65.8084 141.281 65.3367 141.815 64.9759C142.338 64.6034 142.86 64.2417 143.378 63.8741C144.058 63.7937 144.766 63.5678 145.434 63.2346C146.098 62.8846 146.814 62.632 147.5 62.5357C147.716 62.1103 148.448 61.7331 148.822 61.7805C149.728 61.8118 150.382 61.379 151.147 61.1961C152.002 61.0481 152.81 61.0713 153.696 60.8766C154.489 60.7507 155.327 60.5466 156.259 60.7278C156.78 60.8421 157.597 60.6964 158.219 60.5838C158.664 60.5002 158.961 60.5413 159.427 60.6729C160.018 60.8697 160.704 60.9156 161.333 61.11C161.971 61.2778 162.619 61.4465 163.261 61.6201C163.374 61.6459 163.466 61.7192 163.551 61.759C163.586 61.8605 163.616 61.956 163.661 62.0801C163.917 62.1561 164.147 62.2244 164.479 62.3175C164.875 62.2245 165.305 62.1233 165.807 62.0008C166.182 62.3 166.461 62.5694 166.818 62.8836C167.318 63.0563 167.859 63.1943 168.388 63.4132C168.916 63.6431 169.456 63.8738 170.016 64.1173C170.016 64.2486 170.016 64.4402 170.009 64.7188C170.559 64.8902 170.983 65.1169 171.45 65.2979C171.662 65.5836 171.883 65.8811 172.134 66.2247C173.041 66.3054 173.756 67.2567 174.578 67.6422C175.357 68.1446 176.134 68.6688 176.985 69.2319C177.116 68.98 177.231 68.7707 177.324 68.5813C177.104 68.3223 176.974 68.1802 176.804 67.9909C177.052 67.5682 177.288 67.1663 177.536 66.7436C177.317 66.3533 177.108 65.9639 176.894 65.5795C176.669 65.1941 176.407 64.8495 176.154 64.4674C175.525 63.9993 174.95 63.4756 174.298 63.0877C174.278 62.9328 174.26 62.8273 174.218 62.5392C173.647 62.2949 173.192 62.1039 172.859 61.9614L172.842 61.9764ZM163.706 61.3341L163.835 61.3667L163.835 61.5582L163.713 61.5207L163.712 61.3291L163.706 61.3341Z" fill="#FFA972"/>
</g>
<g id="lines">
<path id="Vector_5" d="M131.494 58.3983C131.253 58.3564 131.054 58.304 130.866 58.304C130.656 58.304 130.426 58.4401 130.248 58.3669C129.526 58.0737 128.814 58.1366 128.092 58.2936C127.715 58.3774 127.348 58.482 126.971 58.2622C126.615 58.0528 126.228 58.1261 125.851 58.1889C125.694 58.2203 125.527 58.0947 125.432 58.0633C125.087 58.2517 124.804 58.4088 124.532 58.5553C124.532 58.6914 124.522 58.8066 124.511 58.9322C124.344 58.9636 124.208 58.9845 123.862 59.0473C123.841 58.9741 123.758 58.7333 123.684 58.5134C123.391 58.7228 123.192 58.8589 122.983 59.0159C122.92 58.8484 122.878 58.7123 122.826 58.5972C122.491 58.4402 122.177 58.2936 121.863 58.1575C121.716 58.503 121.538 58.3145 121.371 58.2727C121.151 58.2203 120.931 58.1889 120.722 58.1471C120.627 58.2622 120.544 58.3773 120.481 58.4611C120.313 58.3669 120.177 58.2936 120.062 58.2308C119.957 58.3564 119.863 58.4611 119.748 58.5972C118.879 58.0947 117.895 58.681 117.016 58.0947C116.775 58.6077 116.388 58.3146 116.084 58.2831C116.063 58.503 116.042 58.6181 116.032 58.7019C115.561 58.7856 115.121 58.8694 114.587 58.9636C114.294 58.6495 113.969 58.2936 113.582 57.8958C113.456 57.9796 113.289 58.1051 113.101 58.2412C112.588 57.8748 112.075 58.2936 111.614 58.2727C111.478 58.4088 111.394 58.5239 111.289 58.5762C111.185 58.6286 111.07 58.6286 110.986 58.639C110.934 58.4297 110.902 58.3145 110.86 58.1679C110.588 58.2203 110.326 58.2622 109.991 58.325C109.897 58.168 109.792 57.9691 109.709 57.833C109.206 58.0214 108.725 57.8644 108.379 58.3564C107.919 58.1994 107.458 58.2308 106.987 58.3564C106.746 58.4192 106.505 58.4506 106.202 58.5029C106.107 58.3669 105.982 58.1994 105.93 58.1261C104.998 58.0319 104.192 58.66 103.501 58.325C103.051 58.482 102.726 58.6077 102.548 58.6705C101.564 58.0214 100.748 57.99 99.9101 58.6286C99.7949 58.5553 99.6693 58.482 99.5542 58.4088C99.439 58.5553 99.3553 58.66 99.3029 58.7333C98.7586 58.6286 98.2561 58.5343 97.764 58.4297C97.7222 58.2831 97.6803 58.1471 97.6175 57.9586C97.3348 58.1471 97.1045 58.2936 96.8638 58.4506C96.5811 58.3145 96.288 58.168 96.0472 58.0528C95.7017 58.3878 95.4086 58.6809 95.0841 58.995C94.9689 58.7856 94.8433 58.5763 94.7282 58.3983C94.1838 57.9167 93.5976 58.3355 93.0218 58.1575C92.467 57.99 91.8703 58.5344 91.3887 58.2517C91.0223 58.3773 90.7187 58.6181 90.4884 58.5239C89.7974 58.2727 89.1065 58.2831 88.4156 58.4506C88.2376 58.4925 88.0702 58.5135 87.9027 58.5449C87.8294 58.3564 87.777 58.2098 87.6933 57.99C87.3687 58.4716 86.9814 58.4925 86.5836 58.5029C86.5313 58.3355 86.4998 58.2308 86.437 58.011C86.2695 58.1261 86.102 58.2308 85.9241 58.3355C85.8508 58.3774 85.7671 58.4088 85.7357 58.4192C85.5577 58.1575 85.4111 57.9377 85.3378 57.833C84.9191 57.9796 84.5945 58.0109 84.3328 58.1994C84.0502 58.3983 83.799 58.66 83.464 58.5239C83.4116 58.3669 83.3698 58.2308 83.3279 58.0947C82.9929 58.1575 82.6893 58.2098 82.3962 58.2622C82.2706 58.1261 82.145 58.0005 82.0298 57.8749C81.9461 57.9586 81.8623 58.1156 81.7786 58.1261C81.1923 58.168 80.6165 58.1889 80.0303 58.1889C79.936 58.1889 79.8418 58.0319 79.7581 57.9586C79.5068 58.1785 79.3394 58.4925 79.0253 58.2831C78.8788 58.1889 78.6798 58.1889 78.5228 58.2308C77.5283 58.4401 76.5023 58.1575 75.5078 58.5134C75.4136 58.5448 75.288 58.4611 75.1728 58.4401C74.8378 58.3773 74.5029 58.2517 74.1679 58.2831C73.9271 58.3041 73.6968 58.5135 73.3932 58.6705C73.2885 58.5239 73.1629 58.3459 73.0268 58.1366C72.7965 58.3041 72.5976 58.4401 72.4197 58.5658C72.2626 58.5029 72.137 58.4297 72.0009 58.4088C71.3309 58.3041 70.64 58.3773 69.97 58.1051C69.7711 58.0214 69.4989 58.2412 69.3314 58.304C68.7138 58.2936 68.1484 58.2831 67.5203 58.2622C67.1539 58.6181 66.6829 58.5448 66.0547 58.0005C65.8558 58.0319 65.6883 58.0633 65.5104 58.0947C65.4685 58.2936 65.4371 58.4611 65.3743 58.8171C65.1125 58.4507 64.9451 58.2203 64.7462 57.9377C63.6888 58.3773 62.5268 57.9586 61.4172 58.304C61.0926 58.4087 60.7577 58.482 60.3808 58.304C60.1086 58.1784 59.7317 58.4821 59.3339 58.6182C58.7896 58.0947 58.5278 59.1206 58.0777 59.2567C58.1405 59.822 57.7636 59.9581 57.4915 60.2826C57.7846 60.5967 58.0044 60.827 58.2452 61.0782C58.0986 61.2039 57.9834 61.2876 57.8369 61.4132C58.0462 61.9471 58.5069 61.9367 58.6953 62.4078C58.8523 62.7846 59.313 62.4287 59.5537 62.8788C59.7108 63.1615 60.0667 62.6799 60.297 63.0254C60.8623 62.9207 61.4172 62.816 61.8673 62.7323C62.9351 63.3395 63.2387 63.3708 63.8145 62.9521C64.139 63.2871 64.4949 63.3604 64.8823 63.2662C65.5209 63.1196 66.1803 63.4546 66.8084 63.1615C67.3005 63.4441 67.7925 63.1824 68.2846 63.1615C68.5044 63.151 68.7347 63.2243 68.965 63.2662C69.0383 63.172 69.1115 63.0568 69.1639 62.9835C69.8025 63.2348 70.3887 63.4756 70.9645 63.7059C71.3309 63.1092 71.8334 63.3708 72.2312 63.1615C72.3882 63.3185 72.5348 63.4651 72.7546 63.6849C73.2047 63.4232 73.7072 63.1405 74.2621 62.8265C74.3772 63.0044 74.5238 63.2348 74.6913 63.4965C75.0996 63.1615 75.5707 63.8733 76.0104 63.4022C76.0104 63.1719 76.0104 62.9521 76.0104 62.7532C76.3349 62.973 76.6175 63.1615 76.963 63.4022C77.2561 62.6485 77.7586 62.8998 78.1041 63.151C78.5019 63.4546 78.6903 63.151 78.8892 63.0045C79.8314 63.172 80.7107 63.8001 81.611 63.0359C82.1973 63.4232 82.8359 63.308 83.6524 63.0987C83.6838 63.1929 83.7781 63.4337 83.8723 63.7059C84.0817 63.507 84.2072 63.329 84.3643 63.2557C84.6574 63.1196 84.9296 62.5753 85.296 63.0673C85.9346 62.837 86.5208 63.4965 87.1489 63.2348C87.2222 63.4232 87.2746 63.5593 87.3374 63.7268C87.641 63.5697 88.0073 63.2034 88.2062 63.329C88.5307 63.5279 88.7925 63.4023 89.0751 63.3709C89.5253 63.3185 89.9754 63.2138 90.5512 63.1091C90.614 63.2138 90.7187 63.4232 90.8234 63.5907C91.2002 63.3185 91.5248 63.0882 91.8389 62.8579C92.2157 63.2871 92.603 62.8265 92.9694 62.9312C93.3463 63.0464 93.7023 63.3185 94.0687 63.5279C94.4141 63.2976 94.6863 62.9521 95.1155 63.2452C95.304 63.3709 95.7227 63.3604 95.8902 62.9312C96.1728 63.1301 96.4555 63.3185 96.7591 63.5383C97.5024 63.0254 98.3712 63.9152 99.0936 63.1091C99.1564 63.3604 99.2087 63.5802 99.2925 63.9361C99.4286 63.6221 99.5123 63.4022 99.596 63.2138C100.549 63.1301 101.449 64.1769 102.391 63.172C102.517 63.3499 102.642 63.5279 102.726 63.6431C103.176 63.664 103.522 63.4965 103.93 63.6431C104.234 63.7582 104.631 63.3709 104.998 63.2557C105.123 63.2138 105.28 63.2871 105.417 63.329C105.814 63.4546 106.16 63.329 106.474 62.9731C106.872 63.1615 107.27 63.3604 107.688 63.5593C108.002 63.308 108.295 62.9417 108.704 63.3081C108.819 63.4127 109.06 63.2662 109.238 63.2348C109.594 63.172 109.939 63.1091 110.295 63.0359C110.431 63.2243 110.536 63.3708 110.619 63.4755C110.965 63.4127 111.268 63.3604 111.687 63.2766C111.719 63.1615 111.781 62.9417 111.834 62.7218C111.876 62.7428 111.928 62.7637 111.97 62.7846C112.001 63.0882 112.033 63.4023 112.075 63.821C112.546 62.8474 113.195 63.9048 113.645 63.329C113.645 63.2139 113.655 63.0882 113.666 62.994C114.011 62.6904 114.273 63.0882 114.598 63.151C114.618 63.3394 114.639 63.5384 114.66 63.7687C115.11 63.507 115.519 63.2661 115.937 63.0149C116.011 63.1719 116.084 63.329 116.157 63.4965C116.775 63.3813 117.372 63.2766 117.968 63.1615C118.565 63.9676 119.371 63.4232 120.01 63.8315C120.177 63.3709 120.554 63.3081 120.722 63.4441C121.13 63.7791 121.486 63.4756 121.852 63.4441C122.261 63.4023 122.637 63.664 123.067 63.5174C123.443 63.3813 123.841 63.2452 124.281 63.4755C124.532 63.6011 124.909 63.3709 125.202 63.1929C125.412 63.0673 125.548 63.0254 125.767 63.1301C126.05 63.2662 126.375 63.2871 126.678 63.329C126.992 63.3709 127.306 63.3813 127.62 63.4127C127.673 63.4127 127.725 63.4651 127.767 63.486C127.798 63.6012 127.83 63.7163 127.861 63.8524C127.987 63.842 128.102 63.8315 128.269 63.8105C128.427 63.5174 128.604 63.2034 128.814 62.837C129.023 63.0359 129.191 63.1929 129.411 63.3918C129.913 63.2348 130.447 63.0672 131.012 62.8893C131.044 63.0463 131.096 63.2766 131.159 63.6011C131.421 63.4336 131.651 63.2871 131.881 63.1405C132.038 63.2975 132.206 63.4546 132.405 63.6326C132.771 62.9626 133.305 63.2557 133.713 62.9416C134.132 62.6485 134.561 62.3554 135.011 62.0413C134.959 61.6749 134.928 61.3714 134.886 61.0992C134.739 61.0887 134.645 61.0782 134.54 61.0678C134.477 60.4292 134.425 59.822 134.362 59.1834C133.996 58.8798 133.65 58.5867 133.284 58.2831C132.959 58.346 132.635 58.3983 132.331 58.4611C132.289 58.3145 132.258 58.1994 132.174 57.9167C131.923 58.0947 131.724 58.2413 131.578 58.346L131.494 58.3983ZM127.736 62.9207C127.736 62.9207 127.777 62.9207 127.798 62.9102C127.798 62.994 127.819 63.0777 127.819 63.1615C127.798 63.1615 127.777 63.1615 127.757 63.172C127.757 63.0882 127.736 63.0045 127.736 62.9207Z" fill="#FFE4D5"/>
<path id="Vector_6" d="M70.6085 77.0217C70.8702 77.0636 71.0796 77.116 71.2889 77.116C71.5088 77.116 71.76 76.9799 71.9589 77.0532C72.7336 77.3463 73.5083 77.2835 74.2934 77.1265C74.6912 77.0427 75.0995 76.938 75.5077 77.1578C75.8951 77.3672 76.3034 77.2939 76.7221 77.2311C76.8896 77.1997 77.0781 77.3253 77.1828 77.3567C77.5492 77.1683 77.8632 77.0113 78.1563 76.8648C78.1563 76.7287 78.1668 76.6135 78.1773 76.4878C78.3552 76.4564 78.5123 76.4355 78.8787 76.3727C78.8996 76.446 78.9938 76.6868 79.0671 76.9066C79.3811 76.6972 79.601 76.5612 79.8313 76.4041C79.8941 76.5716 79.9465 76.7077 79.9988 76.8228C80.3547 76.9799 80.7002 77.1265 81.0352 77.2626C81.1922 76.9171 81.3807 77.1055 81.5691 77.1474C81.8099 77.1997 82.0506 77.2311 82.2705 77.273C82.3752 77.1578 82.4589 77.0427 82.5322 76.9589C82.7206 77.0531 82.8567 77.1265 82.9823 77.1893C83.0975 77.0637 83.1917 76.9589 83.3173 76.8228C84.249 77.3253 85.3168 76.7391 86.28 77.3254C86.5417 76.8124 86.9604 77.1055 87.2849 77.1369C87.3163 76.9171 87.3268 76.8019 87.3373 76.7182C87.8398 76.6344 88.3213 76.5507 88.8971 76.4565C89.2112 76.7705 89.5671 77.1265 89.9858 77.5243C90.1219 77.4405 90.2999 77.3149 90.4988 77.1788C91.0536 77.5452 91.6085 77.1264 92.111 77.1474C92.2575 77.0113 92.3517 76.8961 92.4669 76.8438C92.5715 76.7914 92.6972 76.7915 92.8019 76.781C92.8647 76.9904 92.8961 77.1055 92.938 77.2521C93.2311 77.1997 93.5137 77.1578 93.8801 77.095C93.9744 77.2521 94.1 77.451 94.1942 77.5871C94.7386 77.3987 95.262 77.5557 95.6389 77.0637C96.1414 77.2207 96.6438 77.1893 97.1463 77.0637C97.4081 77.0008 97.6698 76.9694 97.9943 76.9171C98.099 77.0532 98.235 77.2207 98.2874 77.2939C99.2924 77.3882 100.161 76.76 100.915 77.095C101.397 76.938 101.752 76.8124 101.941 76.7495C103.009 77.3986 103.888 77.43 104.788 76.7915C104.914 76.8647 105.05 76.938 105.176 77.0113C105.301 76.8647 105.396 76.76 105.448 76.6867C106.034 76.7914 106.578 76.8857 107.112 76.9904C107.165 77.1369 107.207 77.273 107.269 77.4615C107.573 77.273 107.824 77.1264 108.086 76.9694C108.39 77.1055 108.704 77.2521 108.965 77.3672C109.332 77.0322 109.656 76.7391 110.002 76.425C110.127 76.6344 110.263 76.8438 110.379 77.0217C110.965 77.5033 111.593 77.0846 112.221 77.2626C112.818 77.4301 113.467 76.8857 113.99 77.1683C114.388 77.0427 114.713 76.8019 114.964 76.8961C115.718 77.1474 116.45 77.1369 117.204 76.9694C117.393 76.9275 117.581 76.9066 117.748 76.8752C117.822 77.0637 117.885 77.2102 117.968 77.43C118.314 76.9485 118.743 76.9275 119.162 76.9171C119.214 77.0846 119.245 77.1892 119.319 77.4091C119.507 77.2939 119.685 77.1892 119.874 77.0845C119.957 77.0427 120.041 77.0113 120.083 77.0008C120.271 77.2626 120.439 77.4824 120.512 77.5871C120.962 77.4405 121.308 77.4091 121.601 77.2206C121.915 77.0217 122.187 76.76 122.543 76.8961C122.595 77.0532 122.648 77.1893 122.69 77.3254C123.056 77.2626 123.381 77.2102 123.695 77.1578C123.831 77.2939 123.967 77.4195 124.092 77.5452C124.187 77.4614 124.27 77.3044 124.365 77.2939C124.993 77.2521 125.621 77.2311 126.259 77.2311C126.364 77.2311 126.469 77.3882 126.553 77.4615C126.825 77.2416 127.003 76.9276 127.348 77.1369C127.505 77.2312 127.715 77.2311 127.893 77.1893C128.971 76.9799 130.08 77.2625 131.148 76.9066C131.253 76.8752 131.389 76.959 131.504 76.9799C131.871 77.0427 132.237 77.1683 132.593 77.1369C132.855 77.116 133.106 76.9066 133.42 76.7495C133.535 76.8961 133.671 77.0741 133.818 77.2835C134.069 77.116 134.289 76.9799 134.477 76.8543C134.645 76.9171 134.781 76.9903 134.938 77.0113C135.671 77.1159 136.404 77.0427 137.126 77.3149C137.346 77.3986 137.628 77.1788 137.817 77.116C138.487 77.1265 139.094 77.1369 139.774 77.1578C140.162 76.8019 140.675 76.8752 141.366 77.4196C141.575 77.3881 141.763 77.3568 141.952 77.3254C141.994 77.1265 142.025 76.959 142.098 76.603C142.381 76.9694 142.559 77.1997 142.779 77.4824C143.93 77.0427 145.176 77.4614 146.38 77.116C146.736 77.0113 147.092 76.938 147.5 77.116C147.793 77.2416 148.202 76.938 148.641 76.8019C149.238 77.3254 149.51 76.2994 150.002 76.1633C149.929 75.598 150.337 75.4619 150.641 75.1374C150.327 74.8234 150.086 74.593 149.835 74.3418C149.992 74.2162 150.117 74.1324 150.285 74.0068C150.054 73.4729 149.562 73.4834 149.353 73.0123C149.186 72.6355 148.694 72.9914 148.421 72.5412C148.254 72.2586 147.867 72.7401 147.615 72.3946C147.008 72.4993 146.401 72.604 145.909 72.6878C144.757 72.0806 144.433 72.0492 143.805 72.4679C143.459 72.1329 143.072 72.0597 142.643 72.1539C141.952 72.3005 141.24 71.9654 140.559 72.2586C140.026 71.9759 139.492 72.2376 138.958 72.2586C138.717 72.269 138.476 72.1958 138.225 72.1539C138.152 72.2481 138.068 72.3632 138.005 72.4365C137.314 72.1853 136.676 71.9445 136.058 71.7142C135.66 72.3109 135.116 72.0492 134.687 72.2586C134.519 72.1015 134.362 71.955 134.121 71.7351C133.629 71.9968 133.095 72.2795 132.488 72.5936C132.373 72.4156 132.206 72.1853 132.028 71.9235C131.588 72.2585 131.075 71.5467 130.604 72.0178C130.604 72.2481 130.604 72.4679 130.604 72.6668C130.248 72.447 129.944 72.2586 129.578 72.0178C129.264 72.7715 128.72 72.5203 128.353 72.269C127.924 71.9654 127.715 72.269 127.505 72.4156C126.479 72.2481 125.537 71.62 124.564 72.3842C123.925 71.9968 123.244 72.112 122.355 72.3214C122.313 72.2271 122.219 71.9863 122.114 71.7142C121.884 71.9131 121.747 72.0911 121.59 72.1644C121.266 72.3005 120.983 72.8448 120.585 72.3528C119.895 72.5831 119.256 71.9235 118.586 72.1853C118.513 71.9968 118.46 71.8608 118.387 71.6933C118.063 71.8503 117.665 72.2167 117.445 72.0911C117.099 71.8922 116.817 72.0178 116.513 72.0492C116.021 72.1015 115.54 72.2062 114.922 72.3109C114.859 72.2062 114.733 71.9969 114.629 71.8294C114.221 72.1016 113.875 72.3318 113.53 72.5621C113.121 72.1329 112.703 72.5936 112.315 72.4889C111.907 72.3737 111.52 72.1015 111.122 71.8922C110.755 72.1225 110.452 72.4679 109.991 72.1748C109.792 72.0492 109.332 72.0597 109.154 72.4889C108.85 72.29 108.547 72.1015 108.212 71.8817C107.406 72.3947 106.474 71.5048 105.689 72.3109C105.626 72.0596 105.563 71.8398 105.479 71.4839C105.333 71.7979 105.239 72.0178 105.155 72.2062C104.129 72.29 103.145 71.2431 102.129 72.2481C101.993 72.0701 101.857 71.8921 101.773 71.777C101.292 71.756 100.915 71.9235 100.475 71.777C100.151 71.6618 99.7216 72.0492 99.3238 72.1644C99.1877 72.2062 99.0202 72.133 98.8736 72.0911C98.4444 71.9655 98.0676 72.091 97.7326 72.447C97.3034 72.2585 96.8742 72.0596 96.424 71.8607C96.089 72.112 95.7749 72.4784 95.3248 72.112C95.1991 72.0073 94.9479 72.1539 94.749 72.1853C94.3721 72.2481 93.9848 72.3109 93.608 72.3842C93.4614 72.1957 93.3462 72.0492 93.2625 71.9445C92.8856 72.0073 92.5611 72.0597 92.111 72.1434C92.0796 72.2586 92.0167 72.4784 91.9539 72.6982C91.9016 72.6773 91.8597 72.6563 91.8073 72.6354C91.7759 72.3318 91.7445 72.0178 91.7027 71.599C91.2002 72.5726 90.4883 71.5153 90.0068 72.0911C90.0068 72.2062 89.9963 72.3319 89.9858 72.4261C89.6194 72.7297 89.3367 72.3318 88.9808 72.269C88.9599 72.0806 88.9389 71.8817 88.918 71.6514C88.4364 71.9131 87.9863 72.1539 87.5362 72.4051C87.4524 72.2481 87.3791 72.091 87.2954 71.9235C86.6359 72.0387 85.9868 72.1434 85.3378 72.2586C84.6887 71.4525 83.8303 71.9968 83.1289 71.5885C82.9509 72.0492 82.5322 72.112 82.3647 71.9759C81.925 71.6409 81.5377 71.9445 81.1398 71.9759C80.7002 72.0178 80.2919 71.7561 79.8208 71.9027C79.4125 72.0387 78.9834 72.1748 78.5018 71.9445C78.2296 71.8189 77.8213 72.0492 77.5073 72.2272C77.2874 72.3528 77.1409 72.3947 76.9001 72.29C76.586 72.1539 76.2406 72.133 75.9056 72.0911C75.5706 72.0492 75.2251 72.0387 74.8901 72.0073C74.8273 72.0073 74.7749 71.955 74.7226 71.934C74.6912 71.8189 74.6598 71.7037 74.6179 71.5677C74.4819 71.5781 74.3562 71.5886 74.1783 71.6095C74.0003 71.9026 73.8119 72.2167 73.592 72.5831C73.3617 72.3842 73.1837 72.2272 72.9534 72.0283C72.4195 72.1853 71.8333 72.3528 71.2261 72.5307C71.1947 72.3737 71.1424 72.1434 71.0691 71.8189C70.7864 71.9864 70.5352 72.1329 70.2944 72.2795C70.1164 72.1225 69.9385 71.9654 69.7291 71.7875C69.3313 72.4574 68.7555 72.1644 68.3158 72.4784C67.8552 72.7715 67.4051 73.0646 66.9131 73.3787C66.9654 73.7451 67.0073 74.0487 67.0492 74.3209C67.2167 74.3314 67.3004 74.3418 67.426 74.3523C67.4888 74.9908 67.5517 75.598 67.6249 76.2366C68.0123 76.5402 68.3996 76.8334 68.7869 77.1369C69.1324 77.0741 69.4883 77.0217 69.8233 76.9589C69.8757 77.1055 69.9071 77.2207 70.0013 77.5033C70.2735 77.3254 70.4829 77.1788 70.6399 77.0741L70.6085 77.0217ZM74.6703 72.4993C74.6703 72.4993 74.6284 72.4993 74.6075 72.5098C74.6075 72.426 74.5865 72.3423 74.5865 72.2586C74.6074 72.2586 74.6284 72.2585 74.6493 72.2481C74.6493 72.3318 74.6703 72.4156 74.6703 72.4993Z" fill="#FFE4D5"/>
<path id="Vector_7" d="M81.0668 90.6306C81.3704 90.6725 81.6008 90.7249 81.8416 90.7249C82.0928 90.7249 82.3754 90.5888 82.6057 90.6621C83.4956 90.9552 84.3749 90.8924 85.2647 90.7354C85.7254 90.6516 86.1755 90.5469 86.6466 90.7667C87.0863 90.9761 87.5574 90.9028 88.018 90.84C88.2064 90.8086 88.4158 90.9342 88.5414 90.9656C88.9601 90.7772 89.3161 90.6202 89.6511 90.4736C89.6511 90.3375 89.6616 90.2223 89.672 90.0967C89.8709 90.0653 90.0489 90.0444 90.4676 89.9816C90.4991 90.0549 90.5932 90.2956 90.6874 90.5155C91.0434 90.3061 91.2946 90.17 91.5564 90.013C91.6296 90.1805 91.6924 90.3166 91.7448 90.4317C92.1531 90.5888 92.5404 90.7354 92.9277 90.8714C93.1057 90.526 93.3256 90.7144 93.5349 90.7562C93.8071 90.8086 94.0793 90.84 94.3306 90.8819C94.4457 90.7667 94.5504 90.6516 94.6341 90.5678C94.8435 90.662 95.0005 90.7353 95.1471 90.7982C95.2832 90.6725 95.3878 90.5678 95.5344 90.4317C96.6022 90.9342 97.8166 90.348 98.9053 90.9343C99.1984 90.4213 99.68 90.7144 100.046 90.7458C100.078 90.526 100.088 90.4108 100.109 90.3271C100.685 90.2433 101.229 90.1596 101.889 90.0653C102.245 90.3794 102.653 90.7354 103.124 91.1332C103.271 91.0494 103.491 90.9238 103.71 90.7877C104.338 91.1541 104.977 90.7353 105.542 90.7562C105.71 90.6202 105.815 90.505 105.94 90.4527C106.066 90.4003 106.212 90.4003 106.317 90.3899C106.38 90.5992 106.422 90.7144 106.464 90.861C106.788 90.8086 107.113 90.7667 107.542 90.7039C107.657 90.8609 107.793 91.0599 107.898 91.196C108.515 91.0075 109.112 91.1646 109.541 90.6725C110.107 90.8296 110.682 90.7982 111.248 90.6725C111.541 90.6097 111.834 90.5783 112.211 90.526C112.326 90.6621 112.483 90.8295 112.546 90.9028C113.697 90.997 114.681 90.3689 115.54 90.7039C116.095 90.5469 116.493 90.4212 116.712 90.3584C117.927 91.0075 118.932 91.0389 119.958 90.4003C120.104 90.4736 120.261 90.5469 120.397 90.6201C120.544 90.4736 120.649 90.3689 120.711 90.2956C121.381 90.4003 121.999 90.4946 122.606 90.5993C122.659 90.7458 122.711 90.8819 122.784 91.0704C123.13 90.8819 123.412 90.7353 123.716 90.5783C124.061 90.7144 124.417 90.861 124.721 90.9761C125.14 90.6411 125.506 90.348 125.904 90.0339C126.05 90.2433 126.207 90.4527 126.333 90.6306C127.003 91.1122 127.715 90.6935 128.427 90.8714C129.107 91.0389 129.84 90.4946 130.437 90.7772C130.887 90.6516 131.253 90.4108 131.546 90.505C132.405 90.7563 133.242 90.7458 134.09 90.5783C134.3 90.5364 134.519 90.5155 134.718 90.4841C134.802 90.6725 134.865 90.8191 134.97 91.0389C135.367 90.5574 135.849 90.5364 136.33 90.526C136.393 90.6935 136.435 90.7981 136.508 91.018C136.718 90.9028 136.927 90.7981 137.137 90.6934C137.231 90.6516 137.325 90.6202 137.367 90.6097C137.587 90.8714 137.775 91.0913 137.859 91.196C138.372 91.0494 138.77 91.018 139.105 90.8295C139.461 90.6306 139.764 90.3689 140.172 90.505C140.235 90.662 140.288 90.7982 140.34 90.9343C140.759 90.8714 141.125 90.8191 141.481 90.7667C141.638 90.9028 141.785 91.0284 141.931 91.1541C142.036 91.0703 142.13 90.9133 142.245 90.9028C142.957 90.8609 143.679 90.84 144.402 90.84C144.517 90.84 144.632 90.9971 144.737 91.0704C145.051 90.8505 145.25 90.5365 145.637 90.7458C145.815 90.84 146.056 90.84 146.255 90.7982C147.479 90.5888 148.736 90.8714 149.961 90.5155C150.086 90.4841 150.233 90.5678 150.369 90.5888C150.777 90.6516 151.196 90.7772 151.604 90.7458C151.897 90.7249 152.19 90.5155 152.546 90.3584C152.672 90.505 152.829 90.683 153.007 90.8923C153.29 90.7248 153.541 90.5888 153.761 90.4632C153.949 90.526 154.106 90.5992 154.284 90.6201C155.111 90.7248 155.959 90.6516 156.776 90.9238C157.027 91.0075 157.351 90.7877 157.561 90.7249C158.325 90.7353 159.016 90.7458 159.791 90.7667C160.241 90.4108 160.816 90.4841 161.602 91.0284C161.842 90.997 162.062 90.9657 162.261 90.9343C162.303 90.7354 162.345 90.5679 162.429 90.2119C162.743 90.5783 162.952 90.8086 163.203 91.0912C164.512 90.6516 165.925 91.0703 167.296 90.7249C167.705 90.6202 168.113 90.5469 168.574 90.7249C168.909 90.8505 169.38 90.5469 169.861 90.4108C170.531 90.9343 170.845 89.9083 171.411 89.7722C171.327 89.2069 171.798 89.0708 172.133 88.7463C171.777 88.4322 171.505 88.2019 171.212 87.9507C171.4 87.8251 171.536 87.7413 171.714 87.6157C171.453 87.0818 170.898 87.0923 170.657 86.6212C170.468 86.2443 169.903 86.6003 169.6 86.1501C169.411 85.8675 168.961 86.349 168.689 86.0035C167.998 86.1082 167.307 86.2129 166.752 86.2967C165.444 85.6895 165.067 85.6581 164.365 86.0768C163.967 85.7418 163.538 85.6686 163.046 85.7628C162.261 85.9093 161.455 85.5743 160.67 85.8674C160.063 85.5848 159.456 85.8465 158.848 85.8674C158.576 85.8779 158.294 85.8047 158.011 85.7628C157.927 85.857 157.822 85.9721 157.76 86.0454C156.974 85.7941 156.252 85.5534 155.54 85.3231C155.09 85.9198 154.472 85.6581 153.98 85.8674C153.792 85.7104 153.614 85.5638 153.331 85.344C152.777 85.6057 152.159 85.8884 151.468 86.2024C151.332 86.0245 151.154 85.7942 150.945 85.5324C150.442 85.8674 149.866 85.1556 149.322 85.6267C149.322 85.857 149.322 86.0768 149.322 86.2757C148.924 86.0559 148.579 85.8675 148.149 85.6267C147.794 86.3804 147.176 86.1292 146.757 85.8779C146.265 85.5743 146.035 85.8779 145.784 86.0245C144.622 85.857 143.543 85.2288 142.444 85.9931C141.722 85.6057 140.937 85.7209 139.932 85.9302C139.89 85.836 139.785 85.5952 139.659 85.3231C139.398 85.522 139.241 85.7 139.063 85.7733C138.696 85.9093 138.372 86.4537 137.922 85.9617C137.137 86.192 136.414 85.5324 135.65 85.7942C135.566 85.6057 135.503 85.4697 135.42 85.3022C135.043 85.4592 134.603 85.8256 134.341 85.7C133.944 85.5011 133.619 85.6266 133.274 85.6581C132.719 85.7104 132.164 85.8151 131.463 85.9198C131.389 85.8151 131.253 85.6058 131.128 85.4383C130.667 85.7104 130.269 85.9407 129.882 86.171C129.421 85.7418 128.94 86.2025 128.5 86.0978C128.029 85.9826 127.6 85.7104 127.15 85.5011C126.731 85.7314 126.396 86.0768 125.862 85.7837C125.632 85.658 125.108 85.6686 124.909 86.0978C124.564 85.8989 124.218 85.7104 123.841 85.4906C122.931 86.0035 121.863 85.1137 120.973 85.9198C120.9 85.6685 120.837 85.4487 120.732 85.0928C120.565 85.4068 120.46 85.6267 120.366 85.8151C119.193 85.8989 118.084 84.852 116.922 85.857C116.765 85.679 116.608 85.501 116.513 85.3859C115.969 85.3649 115.54 85.5324 115.037 85.3859C114.66 85.2707 114.179 85.6581 113.729 85.7733C113.572 85.8151 113.383 85.7418 113.216 85.7C112.724 85.5743 112.305 85.6999 111.918 86.0559C111.436 85.8674 110.944 85.6685 110.431 85.4696C110.044 85.7209 109.688 86.0873 109.185 85.7209C109.039 85.6162 108.756 85.7627 108.536 85.7942C108.107 85.857 107.667 85.9198 107.238 85.9931C107.071 85.8046 106.935 85.6581 106.84 85.5534C106.411 85.6162 106.045 85.6686 105.532 85.7523C105.49 85.8675 105.417 86.0873 105.354 86.3071C105.302 86.2862 105.239 86.2652 105.186 86.2443C105.155 85.9407 105.113 85.6267 105.061 85.2079C104.485 86.1815 103.679 85.1242 103.135 85.7C103.135 85.8151 103.114 85.9408 103.114 86.035C102.695 86.3386 102.37 85.9407 101.962 85.8779C101.941 85.6895 101.92 85.4906 101.889 85.2602C101.334 85.522 100.832 85.7628 100.319 86.014C100.224 85.857 100.141 85.6999 100.046 85.5324C99.2926 85.6476 98.5598 85.7523 97.827 85.8674C97.0942 85.0614 96.1102 85.6057 95.3146 85.1974C95.1052 85.6581 94.6446 85.7209 94.4457 85.5848C93.9432 85.2498 93.5035 85.5534 93.0534 85.5848C92.5509 85.6266 92.0798 85.365 91.5564 85.5115C91.0853 85.6476 90.6037 85.7837 90.0594 85.5534C89.7558 85.4278 89.2847 85.6581 88.9287 85.8361C88.6775 85.9617 88.51 86.0036 88.2274 85.8989C87.8714 85.7628 87.4841 85.7418 87.0967 85.7C86.7094 85.6581 86.3221 85.6476 85.9452 85.6162C85.8824 85.6162 85.8196 85.5639 85.7568 85.5429C85.7149 85.4278 85.6835 85.3126 85.6416 85.1765C85.4846 85.187 85.338 85.1975 85.1391 85.2184C84.9402 85.5115 84.7204 85.8256 84.4796 86.192C84.2179 85.9931 84.0085 85.8361 83.7468 85.6372C83.1396 85.7942 82.4801 85.9617 81.7787 86.1396C81.7369 85.9826 81.6845 85.7523 81.6007 85.4278C81.2762 85.5953 80.9936 85.7418 80.7214 85.8884C80.5225 85.7314 80.3236 85.5743 80.0828 85.3963C79.6326 86.0663 78.9731 85.7732 78.4706 86.0873C77.9472 86.3804 77.4342 86.6735 76.8794 86.9876C76.9422 87.354 76.9841 87.6576 77.026 87.9298C77.2144 87.9402 77.3191 87.9507 77.4552 87.9612C77.5285 88.5997 77.6017 89.2069 77.675 89.8455C78.1252 90.1491 78.5544 90.4422 79.0045 90.7458C79.4024 90.683 79.8002 90.6306 80.177 90.5678C80.2294 90.7144 80.2712 90.8296 80.3759 91.1122C80.6795 90.9342 80.9203 90.7876 81.1087 90.683L81.0668 90.6306ZM85.694 86.1082C85.694 86.1082 85.6416 86.1082 85.6207 86.1187C85.6207 86.0349 85.5997 85.9512 85.5893 85.8674C85.6102 85.8674 85.6416 85.8674 85.6625 85.857C85.6625 85.9407 85.6835 86.0244 85.694 86.1082Z" fill="#FFE4D5"/>
</g>
</g>
</svg>
