<svg width="132" height="157" viewBox="0 0 132 157" fill="none" xmlns="http://www.w3.org/2000/svg">
<g id="Graphic 02">
<g id="circle-dark">
<path id="Vector" d="M70.5096 62.203V-5.4707C33.1378 -5.4707 2.83582 24.8313 2.83582 62.203" fill="#FF8241"/>
<path id="Vector_2" d="M5.58104 54.7577C5.68699 54.2376 5.79296 53.8234 5.84112 53.4093C5.89891 52.9662 5.82183 52.4557 5.96631 52.0704C6.51533 50.5775 6.68871 49.046 6.9295 47.4857C7.04509 46.6862 7.10289 45.8675 7.54596 45.1355C7.9505 44.442 8.10461 43.6329 8.26835 42.8238C8.35504 42.4963 8.57656 42.1881 8.67288 41.9955C8.74993 41.2442 8.80773 40.6085 8.86553 40.0017C8.74994 39.9439 8.65362 39.8957 8.5573 39.8476C8.63435 39.4912 8.74032 39.2022 8.96185 38.4895C9.03891 38.4702 9.31824 38.3835 9.56866 38.3064C9.62646 37.6418 9.66497 37.1891 9.7035 36.7076C9.89613 36.6498 10.0502 36.592 10.1851 36.5534C10.6089 35.9563 11.0134 35.388 11.418 34.8197C11.2639 34.4055 11.5721 34.1166 11.7647 33.8084C12.0152 33.4038 12.2752 32.9896 12.5064 32.614C12.5064 32.3828 12.4968 32.1806 12.4871 32.0072C12.7279 31.7182 12.9206 31.4967 13.0843 31.2944C13.0843 31.0247 13.1036 30.8225 13.1228 30.5431C13.7971 29.84 14.2594 28.9539 14.7795 28.087C15.3189 27.2394 15.8679 26.3725 16.6192 25.7272C16.5325 25.0337 17.2453 24.5039 17.6402 23.9934C17.515 23.8297 17.4379 23.7526 17.3898 23.6852C17.9003 22.7895 18.4685 22.0093 19.1139 21.0268C19.7207 20.6993 20.4334 20.3526 21.2618 19.9866C21.3677 19.7361 21.5315 19.3798 21.6952 18.9945C22.6488 18.3684 23.1689 17.3378 23.8624 16.6154C23.978 16.3072 24.0358 16.1049 24.1514 15.9026C24.2669 15.71 24.4596 15.5463 24.5944 15.3922C24.8159 15.4499 24.9315 15.4788 25.0856 15.5174C25.4709 15.0839 25.8562 14.6601 26.3474 14.1111C26.5882 14.0822 26.8868 14.0437 27.1084 14.0341C27.8115 13.1961 28.688 12.6278 28.9673 11.7802C29.8438 11.2697 30.6143 10.6244 31.3367 9.92123C31.7124 9.56485 32.1362 9.247 32.6371 8.8232C32.8778 8.80393 33.1957 8.77504 33.3113 8.76541C34.1396 8.19713 34.8813 7.61921 35.5652 7.06056C36.2394 6.50191 36.904 6.01068 37.6457 5.77951C38.4162 5.16307 38.9748 4.72001 39.2831 4.46958C40.3811 4.24805 41.3154 3.93982 42.1534 3.52565C43.001 3.14038 43.7619 2.64915 44.465 2.00381C44.7251 1.96528 45.0044 1.90749 45.2549 1.8786C45.4379 1.65706 45.5727 1.50295 45.6498 1.40664C46.7863 1.07915 47.8169 0.713132 48.8765 0.481967C49.0113 0.578285 49.1365 0.66498 49.3099 0.790195C49.8396 0.433814 50.2634 0.144857 50.7258 -0.172996C51.3518 -0.250051 51.9972 -0.278948 52.5269 -0.317476C53.153 -0.808703 53.702 -1.2614 54.3185 -1.70447C54.6171 -1.57926 54.9349 -1.45405 55.195 -1.33846C56.4375 -1.17472 57.5837 -1.84895 58.8455 -1.87785C59.4427 -1.90674 60.0398 -2.10901 60.6274 -2.28238C61.2149 -2.42686 61.7928 -2.56171 62.3226 -2.49429C63.1028 -2.69656 63.7192 -3.02404 64.2393 -2.97588C65.0002 -2.91809 65.7515 -2.91809 66.4932 -2.97588L67.0518 -3.02404L67.1963 -3.04331H67.283C67.3986 -3.08183 67.5238 -3.11073 67.6683 -3.14926C67.8128 -3.18778 67.9572 -3.21668 68.1017 -3.24557C68.015 -3.06257 67.938 -2.93735 67.7839 -2.72545C68.0921 -2.97588 68.1499 -2.98552 68.2269 -2.94699C68.2847 -2.90846 68.2944 -2.80251 68.304 -2.70619C68.1499 -2.6484 68.0536 -2.6195 67.8513 -2.58097C67.8802 -2.58097 67.8995 -2.58097 67.9284 -2.56171C67.9573 -2.51355 67.9765 -2.38834 68.0054 -2.30165L68.1499 -1.73337C68.1884 -1.56962 68.2173 -1.38662 68.2269 -1.30956C67.9861 -0.914652 67.7839 -0.567906 67.6876 -0.423427C67.8224 0.501235 67.8513 1.23326 68.0247 1.84007C68.2077 2.48541 68.4485 3.05369 68.3233 3.79534C68.1788 3.91093 68.0536 4.01688 67.9284 4.1132C67.9862 4.87412 68.0343 5.54835 68.0825 6.20332C67.9573 6.49228 67.8417 6.76197 67.7261 7.03166C67.8032 7.21467 67.9476 7.39768 67.9573 7.59995C67.9958 8.90989 68.015 10.2198 68.015 11.5298C68.015 11.7417 67.8706 11.9536 67.8031 12.1366C68.0054 12.7049 68.2944 13.0805 68.1017 13.7836C68.015 14.1111 68.0151 14.5542 68.0536 14.9202C68.2462 17.1644 67.9861 19.4568 68.3136 21.6914C68.3425 21.913 68.2655 22.1826 68.2462 22.4331C68.1884 23.1844 68.0728 23.9453 68.1017 24.6966C68.121 25.236 68.3136 25.7657 68.4581 26.4207C68.3233 26.6518 68.1595 26.9312 67.9669 27.2587C68.121 27.7788 68.2462 28.2315 68.3618 28.6264C68.304 28.9731 68.2366 29.2621 68.2173 29.5703C68.121 31.0825 68.1884 32.6236 67.938 34.1262C67.8609 34.5789 68.0632 35.1761 68.121 35.571C68.1114 36.958 68.1017 38.2294 68.0825 39.6453C68.41 40.4544 68.3425 41.5235 67.8417 42.9394C67.8706 43.3728 67.8995 43.7677 67.9284 44.153C68.1114 44.2397 68.2655 44.3071 68.593 44.4612C68.2558 45.0392 68.0439 45.4244 67.7839 45.8675C68.1884 48.2562 67.8031 50.8376 68.121 53.3419C68.2173 54.0835 68.2847 54.8252 68.121 55.6728C68.0054 56.2892 68.2847 57.1368 68.41 58.0326C67.9284 59.2655 68.8723 59.8337 68.9975 60.8644C69.5176 60.7199 69.6428 61.5675 69.9414 62.1839C70.2304 61.529 70.4423 61.0281 70.6735 60.4983C70.789 60.8355 70.8661 61.0859 70.9817 61.423C71.4729 60.9414 71.4633 59.9301 71.8967 59.487C72.2434 59.1403 71.916 58.1096 72.3301 57.551C72.5902 57.2042 72.1471 56.3952 72.465 55.8847C72.3687 54.6229 72.2723 53.3611 72.1953 52.3498C72.7539 49.9514 72.7828 49.2772 72.3975 47.9865C72.7058 47.2641 72.7732 46.4743 72.6865 45.5785C72.5517 44.1434 72.8599 42.6697 72.5902 41.2442C72.8503 40.1365 72.6095 39.0288 72.5902 37.9212C72.5806 37.4203 72.648 36.9195 72.6865 36.3993C72.5998 36.2452 72.4939 36.0622 72.4264 35.9466C72.6576 34.5211 72.8791 33.1919 73.091 31.9012C72.542 31.0825 72.7828 29.946 72.5902 29.0502C72.7347 28.6938 72.8695 28.376 73.0718 27.8751C72.831 26.8541 72.5709 25.7368 72.282 24.4847C72.4457 24.2342 72.6576 23.9068 72.8984 23.5215C72.5902 22.6065 73.2452 21.5469 72.8117 20.5645C72.5998 20.5645 72.3975 20.5549 72.2145 20.5452C72.4168 19.8132 72.5902 19.1775 72.8117 18.4166C72.1182 17.7616 72.3494 16.625 72.5806 15.8641C72.8599 14.978 72.5806 14.5349 72.4457 14.0918C72.5998 11.9728 73.1777 10.0079 72.4746 7.98522C72.831 6.66565 72.725 5.24013 72.5324 3.41007C72.6191 3.33301 72.8406 3.13074 73.091 2.90921C72.908 2.43725 72.7443 2.15792 72.6769 1.81117C72.5517 1.14657 72.0508 0.549391 72.5035 -0.26932C72.3976 -0.991713 72.5035 -1.67558 72.5902 -2.35944C72.5998 -2.45576 72.6095 -2.50392 72.6287 -2.63877L72.6576 -3.09147L72.7058 -4.01613C72.725 -4.63257 72.7154 -5.25864 72.6576 -5.83656C72.831 -6.22183 72.9562 -6.53006 73.1103 -6.93459C73.0718 -7.23318 73.0236 -7.54141 72.9755 -7.83036L72.9562 -7.93631C72.9562 -7.93631 72.9562 -8.023 72.8984 -7.9941L72.6287 -7.94594C72.4554 -7.91705 72.282 -7.88815 72.1086 -7.85926C71.4344 -7.75331 70.8757 -7.68588 70.529 -7.73404C69.402 -7.88815 68.3136 -7.73404 67.2541 -7.68588L66.9363 -7.66662C66.8303 -7.66662 66.7918 -7.64736 66.7244 -7.63772L66.3295 -7.57993C66.0694 -7.5414 65.7997 -7.50288 65.5204 -7.46435C64.9714 -7.37766 64.3838 -7.29097 63.7288 -7.18502C63.5747 -7.27171 63.305 -7.44509 63.0642 -7.5703C62.2359 -7.21392 61.5135 -6.9057 60.8104 -6.60711C59.8953 -6.9057 59.0574 -6.30852 58.229 -6.26036C57.3525 -6.20257 56.4857 -6.33742 55.6188 -6.30852C54.8868 -5.92324 54.3474 -5.47054 53.3071 -5.50907C52.8544 -5.52833 51.9105 -5.22975 51.6601 -4.75778C50.9762 -4.75778 50.302 -4.74815 49.57 -4.73852C48.0866 -3.74644 45.8906 -3.88128 44.5999 -2.54245C44.3784 -2.70619 44.1954 -2.85067 43.8871 -3.0722C43.7138 -2.68692 43.5982 -2.42686 43.4922 -2.20533C42.4905 -1.73336 41.431 -1.48294 40.3908 -1.14582C39.3698 -0.78944 38.4066 -0.278947 37.6553 0.61682C37.3182 0.607188 36.9714 0.597552 36.7691 0.597552C35.8541 1.09841 35.228 1.6378 34.3323 1.98455C33.6677 2.25424 33.0801 3.07295 32.4348 3.61233C32.2036 3.80497 31.8761 3.93982 31.5872 4.07467C30.7588 4.48884 30.1809 5.07638 29.7764 5.75062C28.9191 6.12626 28.0908 6.55007 27.2047 7.0124C26.7905 7.65774 26.4341 8.29344 25.5191 8.67872C25.2494 8.78467 24.9315 9.247 24.6329 9.53596C24.055 10.1139 23.4675 10.6918 22.9281 11.3082C22.5814 11.4045 22.3117 11.472 22.119 11.5298C21.5796 12.1366 21.0884 12.6278 20.4912 13.3887C20.5201 13.5139 20.5683 13.7547 20.6261 13.9955L20.366 14.1785C20.1156 14.0341 19.8651 13.8896 19.5088 13.6873C19.4606 14.3904 18.9887 14.8431 18.5071 15.2766C18.0351 15.7196 17.5342 16.1338 17.3898 16.7021C17.4668 16.7888 17.5342 16.8658 17.6017 16.9333C17.2934 17.7134 16.6192 17.9253 16.1087 18.5033C15.945 18.4262 15.7812 18.3491 15.579 18.2528C15.1359 19.2353 14.6928 20.0925 14.3172 21.0172L13.6622 21.1809C13.2962 21.7877 12.9302 22.3945 12.5642 22.9917C12.2271 23.6082 11.8996 24.215 11.5624 24.8218C10.1562 25.5731 9.68425 27.4802 8.60547 28.5975C8.79811 29.1465 8.45134 29.9556 8.16239 30.2349C7.45926 30.9477 7.30515 31.8049 6.99693 32.6044C6.64055 33.4809 6.04337 34.184 5.7833 35.1568C5.5714 36.0237 5.34988 36.9291 4.77197 37.8056C4.44448 38.2968 4.38669 39.2311 4.31927 39.9053C4.28074 40.3966 4.21331 40.7048 3.95325 41.1671C3.61613 41.7547 3.42351 42.4771 3.18271 43.1513C2.95154 43.8448 2.71073 44.5287 2.53736 45.2414C2.50846 45.3666 2.44105 45.4726 2.39289 45.5689C2.26767 45.6074 2.16172 45.6556 2.01724 45.7038C1.95945 46.0023 1.9113 46.2624 1.84387 46.638C2.01725 47.0522 2.20987 47.5145 2.44103 48.0443C2.16171 48.4874 1.95945 48.8437 1.68976 49.2964C1.63197 50.4619 1.54528 51.7044 1.56454 53.024C1.41043 53.0818 1.1889 53.1588 0.871043 53.2744C0.948099 53.9005 1.01552 54.4302 1.08295 54.9793C0.909572 55.3356 0.736205 55.7113 0.533936 56.1447C1.09259 57.0405 0.697675 58.2638 0.967368 59.2173C1.2178 60.1901 1.45859 61.1726 1.71866 62.2032C2.05577 62.0972 2.34472 62.0106 2.59515 61.9335C2.61441 61.5964 2.63369 61.4037 2.64332 61.1533C3.23087 61.0281 3.79915 60.9125 4.3867 60.7873C4.69492 59.9975 4.95498 59.2462 5.2921 58.466C5.2921 57.7629 5.2921 57.0598 5.2921 56.3855C5.43658 56.2988 5.54252 56.2411 5.82184 56.0869C5.68699 55.5379 5.62919 55.0948 5.5714 54.777L5.58104 54.7577ZM2.96116 45.7519L2.94191 45.8868H2.71075L2.73001 45.7519H2.96116Z" fill="#FF8241"/>
</g>
<g id="circle-light">
<path id="Vector_3" d="M157.483 144.511C180.88 124.695 183.784 89.6633 163.968 66.2655C144.152 42.8678 109.12 39.9642 85.7227 59.7802C62.3249 79.5961 59.4213 114.628 79.2373 138.026C99.0533 161.423 134.085 164.327 157.483 144.511Z" fill="#FFA972"/>
<path id="Vector_4" d="M153.665 53.6391C152.762 52.8804 151.98 52.3598 151.172 51.902C150.302 51.3957 149.257 51.0377 148.53 50.5107C147.838 49.954 147.08 49.533 146.31 49.1435C145.539 48.754 144.756 48.3743 143.96 48.0261C142.406 47.2569 140.691 46.8651 139.003 46.4104C138.13 46.2077 137.273 45.9306 136.41 45.7396C135.525 45.5468 134.677 45.3028 133.828 44.9394C133.02 44.6011 132.152 44.3337 131.277 44.1527C130.375 44.0345 129.458 43.9693 128.552 43.8942C127.808 43.8434 127.018 43.55 126.549 43.446C124.882 43.5141 123.492 43.7896 122.188 43.9312C122.151 44.1235 122.115 44.2942 122.089 44.4766C121.314 44.5317 120.639 44.4215 119.036 44.636C118.924 44.5507 118.53 44.2033 118.153 43.9007C116.785 44.2975 115.862 44.5575 114.862 44.8436C114.555 44.6228 114.298 44.4387 114.082 44.3014C112.484 44.3317 110.94 44.3557 109.419 44.3816C108.828 44.9622 107.952 44.9222 107.148 45.0618C106.1 45.2679 105.04 45.484 104.091 45.6659C103.709 45.9491 103.364 46.181 103.084 46.4183C102.269 46.5678 101.651 46.6902 101.089 46.7848C100.669 47.1407 100.33 47.4274 99.8752 47.813C95.6793 48.5398 91.8896 51.569 87.8514 53.1447C87.2419 54.3424 85.5974 55.1939 84.411 56.0183C84.5154 56.3308 84.5658 56.5087 84.6098 56.6317C82.856 58.0169 81.4741 59.6282 79.7061 61.4463C78.3337 62.0273 76.9794 62.9137 75.3008 63.9143C75.019 64.4337 74.6097 65.1813 74.1851 65.9819C73.2278 66.7926 72.5446 67.8323 71.9046 68.8755C71.2861 69.9206 70.6811 70.9342 70.1443 71.9101C69.9793 72.5911 69.9319 73.0322 69.7632 73.4958C69.6062 73.9496 69.3162 74.4357 69.1215 74.8212C68.7127 74.9067 68.5133 74.9553 68.2259 75.0183C67.6002 76.1496 67.2378 77.3787 66.633 78.9133C66.2595 79.2297 65.7611 79.6117 65.401 79.8967C64.9909 81.0458 64.6671 82.2022 64.3622 83.2624C64.0788 84.3243 63.8771 85.3171 63.9646 86.2253C63.1624 88.308 62.7196 90.5074 62.4592 92.7327C62.3761 93.8655 62.2796 95.0298 62.1814 96.4762C61.9283 96.9111 61.5863 97.5015 61.4705 97.7199C61.3062 99.964 61.3916 102.077 61.5461 104.011C61.82 105.944 62.0203 107.719 61.9006 109.424C62.4657 111.512 62.8733 113.011 63.1073 113.855C63.0383 116.259 63.4786 118.412 63.9511 120.438C64.623 122.415 65.5383 124.206 66.6584 125.883C66.8078 126.439 66.9653 127.027 67.1065 127.549C67.5505 127.955 67.8624 128.252 68.0538 128.431C68.9586 130.872 70.1543 132.947 71.2719 135.047C71.2038 135.346 71.1491 135.612 71.072 136.018C72.0086 137.03 72.9386 137.725 73.8149 138.547C74.4982 139.732 75.1177 141.032 75.7991 141.979C77.2791 142.85 78.5541 143.575 79.9415 144.384C80.1053 145.028 80.3473 145.645 80.5532 146.172C81.2967 147.286 82.3068 148.195 83.3735 149.076C84.4052 149.986 85.6758 150.634 86.7174 151.557C88.7026 153.404 91.7124 154.022 93.4954 155.559C95.1558 156.218 96.6265 156.416 97.5871 157.006C99.0105 157.905 100.569 158.49 102.132 159.01C102.914 159.271 103.707 159.521 104.49 159.76C105.299 159.957 106.115 160.068 106.939 160.212C107.762 160.356 108.586 160.501 109.336 160.628C109.632 160.978 109.828 161.233 110.153 161.64C111.81 161.159 113.682 161.357 115.541 161.587C115.757 161.866 115.893 162.051 116.182 162.368C117.017 162.241 117.831 162.114 118.656 161.976C119.018 161.93 119.412 161.897 119.565 161.888C120.42 162.306 121.151 162.649 121.464 162.805C123.475 162.505 125.041 162.342 126.319 161.981C127.682 161.649 128.791 160.97 130.411 160.942C130.698 161.139 130.946 161.29 131.183 161.451C132.802 161.162 134.166 160.689 135.504 160.257C136.153 160.289 136.768 160.329 137.395 160.359C137.75 160.139 138.059 159.817 138.481 159.7C141.098 158.647 143.794 157.807 146.281 156.483C146.689 156.278 147.198 156.287 147.595 156.212C148.564 155.391 149.079 154.674 150.493 154.118C151.153 153.88 151.966 153.372 152.613 152.904L154.109 151.878C154.604 151.539 155.061 151.132 155.536 150.77L158.411 148.555C159.403 147.855 160.206 146.934 161.089 146.106C161.931 145.254 162.794 144.402 163.513 143.453C163.784 143.063 164.257 142.722 164.626 142.329C165.722 141.161 167.014 140.106 167.916 138.781C168.571 137.826 168.965 136.73 169.582 135.445C170.03 135.146 170.631 134.838 171.233 134.388C171.573 133.298 171.878 132.358 172.154 131.523C172.594 130.93 173.003 130.443 173.365 129.876C174.904 127.029 176.164 123.997 177.463 121.033C177.885 120.134 178.025 118.832 178.083 118.001C178.42 116.553 178.752 115.169 179.084 113.786C179.363 112.387 179.504 110.944 179.725 109.454C179.537 107.669 179.59 105.459 180.527 102.399C180.486 101.452 180.339 100.614 180.265 99.7943C179.964 99.6283 179.705 99.4873 179.175 99.1938C179.616 97.9386 179.948 97.076 180.248 96.0805C179.477 93.5853 179.243 90.9173 178.47 88.3241C178.111 87.0243 177.865 85.6689 177.373 84.4015C176.881 83.1342 176.356 81.8749 175.772 80.6651C175.463 79.9448 175.054 79.2487 174.68 78.523C174.318 77.7874 173.97 76.9989 173.695 76.1294C173.486 75.5042 173.121 74.8118 172.58 74.1266C172.028 73.4512 171.404 72.7373 170.826 71.9838C170.445 70.6823 169.824 69.9253 169.046 69.3615C168.244 68.8174 167.401 68.3893 166.673 67.6018C166.199 68.344 164.981 67.0707 163.845 66.3687C164.288 67.6972 164.627 68.713 164.994 69.7855C164.454 69.3608 164.035 69.0547 163.485 68.6183C163.448 69.8527 164.665 71.4081 164.618 72.4897C164.56 73.3207 165.992 74.7745 166 75.9909C166.002 76.7509 167.42 77.715 167.349 78.838C167.935 79.8852 168.533 80.9225 169.091 81.9132C169.626 82.9236 170.008 83.943 170.413 84.8232C170.854 87.0959 170.917 88.5664 171.179 89.7279C171.397 90.8857 171.892 91.73 172.338 92.8958C172.056 94.3378 172.216 95.8057 172.558 97.4405C172.741 98.7691 172.768 100.15 172.796 101.509C172.825 102.868 172.669 104.223 172.86 105.585C172.741 106.107 172.676 106.622 172.624 107.128C172.538 107.642 172.473 108.158 172.43 108.675C172.345 109.71 172.312 110.76 172.214 111.805C172.083 112.739 171.704 113.641 171.441 114.585C171.512 114.906 171.601 115.271 171.646 115.514C171.214 116.802 170.606 117.978 170.035 119.103C169.443 120.227 169.002 121.362 168.299 122.379C168.39 123.244 168.121 124.133 167.799 125.008C167.622 125.438 167.455 125.88 167.278 126.31C167.07 126.727 166.873 127.134 166.732 127.535C166.195 127.99 165.714 128.417 164.965 129.071C164.818 129.536 164.659 130.012 164.489 130.497C164.277 130.957 164.063 131.439 163.85 131.92C163.409 132.915 162.932 133.961 162.439 135.06C161.975 135.293 161.271 135.527 160.498 135.821C159.704 137.416 157.754 138.286 156.835 139.947C157.052 140.203 157.271 140.439 157.471 140.651C156.219 141.35 155.208 142.026 153.863 142.664C153.568 144.256 151.626 145.3 150.277 145.861C148.606 146.374 148.16 147.173 147.544 147.795C143.955 149.712 140.275 150.243 137.055 152.548C135.803 152.727 134.501 152.847 133.155 153.245C132.468 153.406 131.783 153.685 131.02 153.85C130.268 154.026 129.47 154.221 128.618 154.422C128.454 154.299 128.033 154.015 127.572 153.684C126.743 154.125 126.248 154.464 125.62 154.575C124.404 154.843 123.3 155.718 121.724 155.088C118.99 155.339 116.549 154.398 113.928 154.333C113.671 154.029 113.483 153.808 113.257 153.517C111.967 153.628 110.368 153.799 109.564 153.418C108.313 152.793 107.17 152.839 106.048 152.486C105.137 152.215 104.225 151.966 103.235 151.721C102.747 151.593 102.225 151.474 101.706 151.312C101.19 151.128 100.653 150.921 100.095 150.712C99.9208 150.458 99.6116 149.998 99.3518 149.597C98.5612 149.445 97.7984 149.349 97.0958 149.182C96.395 148.994 95.7275 148.797 95.0698 148.612C94.5278 147.949 93.8216 147.565 93.0803 147.21C92.3372 146.877 91.6443 146.462 91.0548 145.979C89.855 144.87 88.8044 143.795 87.8812 142.492C86.6142 141.8 85.3186 141.454 84.3324 139.864C83.9135 139.156 82.7064 137.873 81.7578 137.794C81.1051 136.763 80.6141 135.615 80.0952 134.411C78.8551 133.396 77.8743 132.002 77.1316 130.486C76.344 128.987 75.4145 127.63 74.2946 126.473C74.5227 126.079 74.7138 125.737 75.0092 125.186C74.3505 124.882 73.9004 124.682 73.5131 124.509C73.2784 124.066 73.0671 123.603 72.8774 123.143C72.7209 122.674 72.6092 122.187 72.4761 121.698C72.2412 120.734 72.0045 119.792 71.7795 118.84C71.3393 116.947 70.9621 115.082 69.7297 113.319C69.9073 112.747 70.075 112.164 70.1916 111.805C69.9536 109.961 69.3646 108.556 69.5624 106.825C69.6043 106.188 69.4692 105.46 69.2713 104.706C69.1723 104.328 69.0751 103.929 68.9761 103.552C68.9005 103.155 68.8563 102.772 68.8337 102.39C68.7921 101.844 68.9203 101.214 69 100.645C69.1344 99.8096 69.1223 99.038 69.0968 98.2977C69.1046 97.5494 69.0207 96.8586 68.8506 96.1607C69.091 95.3556 69.3431 94.5407 69.5952 93.7258C69.8904 92.9144 70.2602 92.1201 70.6003 91.2908C70.5269 89.9496 70.2514 88.5591 71.3503 87.0871C71.6565 86.6674 71.7503 85.6657 71.9521 84.9335L72.2373 83.85L72.6285 82.7969L73.4109 80.6909C73.8896 80.2855 74.2632 79.9691 74.5317 79.7417C75.1204 78.4011 75.711 77.2995 76.4721 75.7126C76.4019 75.5114 76.2383 75.1288 76.0863 74.7363C76.2084 74.5728 76.3386 74.4424 76.4922 74.2924C76.936 74.4377 77.3915 74.5732 78.0043 74.7759C77.9853 72.3863 80.7282 70.9854 81.4029 69.131C81.2843 68.9909 81.1755 68.8624 81.0767 68.7457C81.3845 68.0439 81.8352 67.582 82.3255 67.1668C82.5707 66.9592 82.8257 66.7632 83.0808 66.5672C83.3556 66.3946 83.6322 66.2004 83.9106 65.9847C84.1586 66.1355 84.4183 66.2765 84.7292 66.4542C85.2715 65.6742 85.8002 64.9256 86.3273 64.1986C86.5966 63.8302 86.8561 63.4501 87.1137 63.0915L88.0008 62.0796L89.1858 62.0584C90.1763 61.2396 91.0679 60.304 92.1258 59.5884C93.164 58.8495 94.2004 58.1322 95.2269 57.4032C96.5752 57.2436 97.98 56.7956 99.3048 56.1347C100.621 55.4406 102.042 54.9396 103.403 54.7485C103.831 53.9048 105.283 53.1567 106.024 53.2507C107.821 53.3128 109.119 52.4543 110.636 52.0916C112.332 51.798 113.934 51.844 115.692 51.4578C117.265 51.2082 118.927 50.8032 120.775 51.1626C121.809 51.3895 123.429 51.1004 124.663 50.877C125.545 50.7114 126.135 50.7929 127.058 51.0539C128.23 51.4441 129.591 51.5351 130.839 51.9209C132.104 52.2536 133.389 52.5881 134.663 52.9325C134.887 52.9836 135.07 53.1291 135.237 53.208C135.308 53.4092 135.368 53.5988 135.456 53.8449C135.965 53.9956 136.42 54.131 137.078 54.3158C137.864 54.1313 138.716 53.9306 139.713 53.6876C140.456 54.2811 141.009 54.8153 141.717 55.4385C142.709 55.7812 143.783 56.0547 144.832 56.489C145.88 56.9449 146.949 57.4026 148.06 57.8854C148.06 58.1459 148.061 58.5259 148.048 59.0784C149.138 59.4184 149.98 59.8681 150.905 60.227C151.325 60.7937 151.764 61.3838 152.261 62.0654C154.061 62.2254 155.478 64.1122 157.108 64.8768C158.654 65.8733 160.196 66.9129 161.884 68.0297C162.142 67.5301 162.372 67.115 162.555 66.7394C162.12 66.2257 161.861 65.9438 161.523 65.5684C162.016 64.73 162.484 63.933 162.977 63.0946C162.541 62.3204 162.128 61.5481 161.703 60.7855C161.256 60.0212 160.737 59.3378 160.235 58.5798C158.988 57.6515 157.848 56.6126 156.555 55.8433C156.515 55.5361 156.478 55.3268 156.395 54.7555C155.263 54.2709 154.361 53.8922 153.7 53.6095L153.665 53.6391ZM135.546 52.3653L135.801 52.4298L135.802 52.8098L135.559 52.7354L135.558 52.3554L135.546 52.3653Z" fill="#FFA972"/>
</g>
<g id="lines">
<path id="Vector_5" d="M50.9374 92.8364C50.9759 92.6149 51.0241 92.4319 51.0241 92.2585C51.0241 92.0659 50.8989 91.854 50.9663 91.6902C51.236 91.0257 51.1782 90.3707 51.0337 89.7061C50.9567 89.3593 50.8604 89.0222 51.0626 88.6755C51.2553 88.348 51.1879 87.9916 51.1301 87.6448C51.1012 87.5004 51.2167 87.3462 51.2456 87.2595C51.0723 86.9417 50.9278 86.6816 50.7929 86.4312C50.6677 86.4312 50.5618 86.4216 50.4462 86.4119C50.4173 86.2578 50.398 86.1326 50.3402 85.8148C50.4077 85.7955 50.6292 85.7185 50.8315 85.651C50.6388 85.3813 50.5136 85.1983 50.3692 85.0057C50.5233 84.9479 50.6485 84.9094 50.7544 84.8612C50.8989 84.553 51.0337 84.264 51.1589 83.9751C50.8411 83.8402 51.0145 83.6765 51.053 83.5224C51.1012 83.3201 51.13 83.1178 51.1686 82.9252C51.0626 82.8385 50.9567 82.7615 50.8796 82.7037C50.9663 82.5496 51.0338 82.4243 51.0916 82.3184C50.976 82.222 50.8796 82.1354 50.7544 82.0294C51.2167 81.23 50.6773 80.3246 51.2167 79.5155C50.7448 79.294 51.0145 78.9376 51.0434 78.6583C50.8411 78.639 50.7352 78.6197 50.6581 78.6101C50.5811 78.1767 50.504 77.7721 50.4173 77.2809C50.7063 77.0112 51.0337 76.7126 51.3997 76.3562C51.3227 76.2406 51.2071 76.0866 51.0819 75.9132C51.419 75.4412 51.0337 74.9693 51.053 74.5455C50.9278 74.4203 50.8218 74.3432 50.7737 74.2468C50.7255 74.1505 50.7255 74.0446 50.7159 73.9675C50.9085 73.9194 51.0145 73.8905 51.1493 73.8519C51.1012 73.6015 51.0626 73.3607 51.0048 73.0525C51.1493 72.9658 51.3323 72.8695 51.4575 72.7925C51.2841 72.3301 51.4286 71.887 50.9759 71.5692C51.1204 71.1454 51.0915 70.7216 50.9759 70.2881C50.9181 70.0666 50.8893 69.8451 50.8411 69.5657C50.9663 69.4791 51.1204 69.3635 51.1879 69.3153C51.2745 68.4581 50.6966 67.7165 51.0048 67.0808C50.8604 66.6666 50.7448 66.368 50.687 66.2042C51.2842 65.2988 51.3131 64.5475 50.7255 63.777C50.793 63.671 50.8604 63.5555 50.9278 63.4495C50.7929 63.3436 50.6966 63.2665 50.6292 63.2184C50.7255 62.7175 50.8122 62.2551 50.9086 61.8024C51.0434 61.7639 51.1686 61.7254 51.3419 61.6676C51.1686 61.4075 51.0337 61.1956 50.8893 60.9741C51.0145 60.714 51.1493 60.4443 51.2553 60.2228C50.9471 59.9049 50.6773 59.6353 50.3884 59.3367C50.581 59.2307 50.7737 59.1152 50.9374 59.0092C51.3805 58.5084 50.9952 57.969 51.1589 57.4392C51.313 56.9287 50.8122 56.3797 51.0723 55.9366C50.9567 55.5995 50.7352 55.3202 50.8218 55.1082C51.053 54.4725 51.0434 53.8369 50.8893 53.2012C50.8507 53.0374 50.8315 52.8833 50.8026 52.7292C50.9759 52.6618 51.1108 52.6136 51.3131 52.5365C50.87 52.238 50.8508 51.8816 50.8411 51.5156C50.9952 51.4674 51.0915 51.4385 51.2938 51.3807C51.1878 51.2266 51.0915 51.0725 50.9952 50.9088C50.9567 50.8413 50.9278 50.7643 50.9181 50.7354C51.1589 50.5716 51.3612 50.4368 51.4575 50.3694C51.3227 49.9841 51.2938 49.6855 51.1204 49.4447C50.9374 49.1846 50.6966 48.9535 50.8218 48.6453C50.9663 48.5971 51.0915 48.5586 51.2167 48.5201C51.1589 48.2118 51.1108 47.9325 51.0626 47.6628C51.1879 47.5472 51.3034 47.4317 51.419 47.3257C51.342 47.2487 51.1975 47.1716 51.1879 47.0946C51.1493 46.5552 51.1301 46.0254 51.1301 45.486C51.1301 45.3993 51.2745 45.3126 51.3419 45.2355C51.1397 45.0044 50.8507 44.8503 51.0434 44.5614C51.13 44.4265 51.1301 44.2435 51.0916 44.099C50.8989 43.184 51.159 42.24 50.8315 41.325C50.8026 41.2383 50.8796 41.1227 50.8989 41.0168C50.9567 40.7086 51.0722 40.4004 51.0434 40.0921C51.0241 39.8706 50.8315 39.6587 50.687 39.3794C50.8218 39.2831 50.9856 39.1675 51.1782 39.0422C51.0241 38.8303 50.8989 38.6474 50.7833 38.4836C50.8411 38.3392 50.9085 38.2236 50.9278 38.0983C51.0241 37.4819 50.9567 36.8462 51.2071 36.2297C51.2842 36.0467 51.0819 35.7963 51.0241 35.6422C51.0338 35.0739 51.0434 34.5538 51.0626 33.9759C50.7352 33.6387 50.8026 33.2053 51.3034 32.6274C51.2745 32.4444 51.2456 32.2903 51.2167 32.1265C51.0337 32.088 50.8796 32.0591 50.5521 32.0013C50.8892 31.7605 51.1012 31.6064 51.3612 31.4234C50.9567 30.4506 51.342 29.3815 51.0241 28.3605C50.9278 28.0619 50.8604 27.7537 51.0241 27.4069C51.1397 27.1565 50.8603 26.8098 50.7351 26.4438C51.2167 25.9429 50.2728 25.7021 50.1476 25.2879C49.6275 25.3457 49.5023 24.999 49.2037 24.7485C48.9147 25.0182 48.7028 25.2205 48.4717 25.442C48.3561 25.3072 48.279 25.2012 48.1634 25.0663C47.6722 25.259 47.6818 25.6828 47.2484 25.8562C46.9016 26.0006 47.2292 26.4245 46.815 26.646C46.5549 26.7905 46.998 27.118 46.6801 27.3299C46.7765 27.85 46.8727 28.3605 46.9498 28.7747C46.3911 29.7571 46.3623 30.0364 46.7476 30.5662C46.4393 30.8648 46.3719 31.1923 46.4586 31.5487C46.5934 32.1362 46.2852 32.743 46.5549 33.3209C46.2949 33.7736 46.5357 34.2263 46.5549 34.679C46.5645 34.8813 46.4971 35.0932 46.4586 35.3051C46.5452 35.3725 46.6512 35.4399 46.7186 35.4881C46.4875 36.0756 46.2659 36.615 46.054 37.1448C46.6031 37.4819 46.3623 37.9442 46.5549 38.3102C46.4104 38.4547 46.2756 38.5895 46.0733 38.7918C46.3141 39.206 46.5742 39.6683 46.8631 40.1788C46.6994 40.2848 46.4875 40.4196 46.2467 40.5737C46.5549 40.9494 45.9 41.3828 46.3334 41.7874C46.5453 41.7874 46.7476 41.7874 46.9306 41.7874C46.7283 42.086 46.5549 42.346 46.3334 42.6638C47.0269 42.9335 46.7957 43.3959 46.5646 43.7138C46.2852 44.0798 46.5645 44.2531 46.6994 44.4361C46.5452 45.303 45.9674 46.1121 46.6705 46.9404C46.3141 47.4798 46.4201 48.0674 46.6127 48.8186C46.526 48.8475 46.3045 48.9343 46.054 49.0209C46.237 49.2136 46.4008 49.3291 46.4682 49.4736C46.5934 49.7433 47.0943 49.9937 46.6416 50.3309C46.8535 50.9184 46.2467 51.4578 46.4875 52.0357C46.3141 52.1031 46.1889 52.1513 46.0348 52.2091C46.1793 52.4884 46.5164 52.8255 46.4008 53.0085C46.2178 53.3071 46.3334 53.5479 46.3623 53.808C46.4104 54.2221 46.5067 54.6363 46.6031 55.166C46.5067 55.2238 46.3141 55.3202 46.16 55.4165C46.4104 55.7632 46.6223 56.0618 46.8342 56.3508C46.4393 56.6975 46.8631 57.0539 46.7668 57.391C46.6608 57.7378 46.4104 58.0653 46.2178 58.4024C46.4297 58.7203 46.7475 58.9707 46.4778 59.3656C46.3623 59.539 46.3719 59.9242 46.7668 60.0783C46.5838 60.3384 46.4104 60.5985 46.2082 60.8778C46.6801 61.5617 45.8614 62.3611 46.6031 63.0257C46.3719 63.0835 46.1696 63.1317 45.8422 63.2087C46.1311 63.3339 46.3334 63.411 46.5068 63.488C46.5838 64.3645 45.6206 65.1928 46.5453 66.0597C46.3815 66.1753 46.2178 66.2909 46.1118 66.3679C46.0926 66.7821 46.2467 67.1 46.1118 67.4756C46.0059 67.755 46.3622 68.121 46.4682 68.4581C46.5067 68.5737 46.4393 68.7181 46.4008 68.8433C46.2852 69.2094 46.4008 69.5272 46.7283 69.8162C46.5549 70.1822 46.3719 70.5482 46.1889 70.9335C46.4201 71.2225 46.7572 71.4921 46.4201 71.8678C46.3237 71.9737 46.4586 72.1953 46.4875 72.359C46.5453 72.6865 46.6031 73.0044 46.6705 73.3318C46.4971 73.4571 46.3623 73.5534 46.266 73.6304C46.3238 73.9483 46.3719 74.2276 46.449 74.6128C46.5549 74.6417 46.7572 74.6996 46.9594 74.7477C46.9402 74.7862 46.9209 74.8344 46.9016 74.8729C46.6223 74.9018 46.3334 74.9307 45.9481 74.9692C46.8439 75.4027 45.871 75.9998 46.4008 76.414C46.5067 76.414 46.6223 76.4237 46.709 76.4333C46.9883 76.7511 46.6223 76.992 46.5646 77.2905C46.3912 77.3098 46.2081 77.3291 45.9962 77.3483C46.237 77.7625 46.4586 78.1381 46.6898 78.5234C46.5453 78.5908 46.4008 78.6583 46.2467 78.7257C46.3526 79.294 46.449 79.843 46.5549 80.392C45.8133 80.941 46.3141 81.6827 45.9385 82.2702C46.3623 82.4243 46.42 82.7711 46.2948 82.9252C45.9866 83.3008 46.2659 83.6283 46.2948 83.9654C46.3334 84.3411 46.0926 84.6878 46.2274 85.0827C46.3526 85.4295 46.4779 85.7955 46.266 86.2001C46.1504 86.4312 46.3622 86.778 46.526 87.0477C46.6416 87.2403 46.6801 87.3655 46.5838 87.5678C46.4586 87.8278 46.4393 88.1264 46.4008 88.4057C46.3622 88.6947 46.3527 88.9837 46.3238 89.2726C46.3238 89.3208 46.2756 89.369 46.2563 89.4075C46.1504 89.4364 46.0444 89.4653 45.9192 89.4941C45.9288 89.6097 45.9385 89.7157 45.9577 89.8698C46.2274 90.0143 46.5164 90.178 46.8535 90.3707C46.6705 90.5633 46.526 90.7174 46.343 90.9197C46.4875 91.382 46.6416 91.8732 46.8054 92.3934C46.6609 92.4223 46.449 92.4704 46.1504 92.5282C46.3045 92.769 46.4393 92.9809 46.5742 93.1928C46.4297 93.3373 46.2852 93.4914 46.1215 93.6744C46.7379 94.0115 46.4682 94.5028 46.7572 94.8784C47.0269 95.2637 47.2966 95.6586 47.5855 96.0728C47.9226 96.0246 48.2019 95.9957 48.4524 95.9572C48.462 95.8223 48.4717 95.7356 48.4813 95.6393C49.0688 95.5815 49.6275 95.5334 50.215 95.4756C50.4943 95.1385 50.764 94.8206 51.0434 94.4835C50.9856 94.1849 50.9374 93.8863 50.8796 93.607C51.0145 93.5685 51.1204 93.5395 51.3805 93.4625C51.2168 93.2313 51.0819 93.0483 50.9856 92.9135L50.9374 92.8364ZM46.7764 89.3786C46.7764 89.3786 46.7764 89.4171 46.7861 89.4364C46.709 89.4364 46.632 89.4556 46.5549 89.4556C46.5549 89.4364 46.5549 89.4171 46.5453 89.3978C46.6223 89.3978 46.6994 89.3786 46.7764 89.3786Z" fill="#FFE4D5"/>
<path id="Vector_6" d="M33.8026 36.8175C33.764 37.0583 33.7159 37.251 33.7159 37.4436C33.7159 37.6459 33.8411 37.8771 33.7736 38.0601C33.504 38.7728 33.5617 39.4856 33.7062 40.208C33.7833 40.574 33.8796 40.9496 33.6774 41.3252C33.4847 41.6816 33.5521 42.0573 33.6099 42.4426C33.6388 42.5967 33.5232 42.7701 33.4943 42.8664C33.6677 43.2035 33.8122 43.4924 33.947 43.7621C34.0722 43.7621 34.1782 43.7718 34.2938 43.7814C34.3227 43.9452 34.342 44.0896 34.3997 44.4267C34.3323 44.446 34.1108 44.5327 33.9085 44.6001C34.1011 44.8891 34.2263 45.0913 34.3708 45.3032C34.2167 45.361 34.0915 45.4092 33.9856 45.4574C33.8411 45.7848 33.7062 46.1027 33.581 46.4109C33.8989 46.5554 33.7255 46.7288 33.687 46.9021C33.6388 47.1237 33.6099 47.3452 33.5714 47.5475C33.6774 47.6438 33.7833 47.7208 33.8604 47.7883C33.7737 47.9616 33.7062 48.0868 33.6484 48.2024C33.764 48.3084 33.8604 48.3951 33.9856 48.5107C33.5232 49.3679 34.0626 50.3504 33.5232 51.2365C33.9952 51.4773 33.7255 51.8625 33.6966 52.1611C33.8988 52.19 34.0048 52.1997 34.0819 52.2093C34.1589 52.6717 34.236 53.1147 34.3227 53.6445C34.0337 53.9334 33.7062 54.2609 33.3402 54.6462C33.4173 54.7714 33.5329 54.9351 33.6581 55.1181C33.321 55.6286 33.7063 56.1391 33.687 56.6015C33.8122 56.7363 33.9181 56.823 33.9663 56.9289C34.0145 57.0252 34.0145 57.1408 34.0241 57.2372C33.8314 57.2949 33.7255 57.3238 33.5906 57.3624C33.6388 57.6321 33.6773 57.8922 33.7351 58.2293C33.5907 58.316 33.4076 58.4315 33.2824 58.5182C33.4558 59.0191 33.3113 59.5007 33.764 59.8474C33.6195 60.3098 33.6484 60.7721 33.764 61.2344C33.8218 61.4752 33.8507 61.716 33.8989 62.0146C33.7737 62.1109 33.6196 62.2361 33.5521 62.2843C33.4654 63.2089 34.0434 64.0084 33.7351 64.7019C33.8796 65.1449 33.9952 65.4724 34.053 65.6458C33.4558 66.6282 33.4269 67.4374 34.0144 68.2657C33.947 68.3813 33.8796 68.5065 33.8122 68.6221C33.9471 68.7377 34.0434 68.8243 34.1108 68.8725C34.0145 69.4119 33.9278 69.9127 33.8314 70.4039C33.6966 70.4521 33.5714 70.4907 33.398 70.5485C33.5714 70.8278 33.7062 71.0589 33.8507 71.2997C33.7255 71.579 33.5907 71.868 33.4847 72.1088C33.7929 72.4459 34.0626 72.7445 34.3516 73.0624C34.159 73.1779 33.9663 73.3031 33.8026 73.4091C33.3595 73.9485 33.7447 74.5264 33.581 75.1043C33.4269 75.6533 33.9278 76.2505 33.6677 76.7321C33.7833 77.0981 34.0048 77.3967 33.9181 77.6279C33.687 78.3214 33.6966 78.9956 33.8507 79.6891C33.8892 79.8625 33.9085 80.0359 33.9374 80.19C33.764 80.2574 33.6292 80.3152 33.4269 80.3922C33.87 80.7101 33.8892 81.105 33.8989 81.4903C33.7448 81.5384 33.6485 81.5674 33.4462 81.6348C33.5521 81.8082 33.6485 81.9719 33.7448 82.1452C33.7833 82.2223 33.8122 82.2994 33.8218 82.3379C33.581 82.5113 33.3787 82.6654 33.2824 82.7328C33.4173 83.147 33.4462 83.4648 33.6196 83.7345C33.8026 84.0235 34.0434 84.2739 33.9181 84.6014C33.7737 84.6495 33.6484 84.6977 33.5232 84.7362C33.581 85.0733 33.6292 85.372 33.6774 85.6609C33.5521 85.7861 33.4366 85.9113 33.321 86.0269C33.398 86.1136 33.5425 86.1907 33.5521 86.2774C33.5907 86.8553 33.6099 87.4332 33.6099 88.0207C33.6099 88.1171 33.4654 88.2133 33.398 88.2904C33.6003 88.5408 33.8892 88.7046 33.6966 89.0224C33.6099 89.1669 33.6099 89.3596 33.6484 89.5233C33.8411 90.5154 33.581 91.5364 33.9085 92.5188C33.9374 92.6151 33.8603 92.7404 33.8411 92.8463C33.7833 93.1834 33.6677 93.5205 33.6966 93.848C33.7158 94.0888 33.9085 94.32 34.053 94.6089C33.9182 94.7149 33.7544 94.8401 33.5618 94.9749C33.7159 95.2061 33.8411 95.4084 33.9567 95.5818C33.8989 95.7359 33.8315 95.8611 33.8122 96.0056C33.7159 96.6798 33.7833 97.3541 33.5328 98.0187C33.4558 98.2209 33.6581 98.481 33.7159 98.6543C33.7062 99.2708 33.6966 99.8294 33.6774 100.455C34.0048 100.812 33.9374 101.284 33.4366 101.92C33.4654 102.112 33.4943 102.286 33.5232 102.459C33.7062 102.497 33.8603 102.526 34.1878 102.594C33.8507 102.854 33.6388 103.018 33.3788 103.22C33.7833 104.279 33.398 105.426 33.7159 106.533C33.8122 106.861 33.8796 107.188 33.7159 107.564C33.6003 107.834 33.8796 108.209 34.0048 108.614C33.5232 109.163 34.4672 109.413 34.5924 109.866C35.1125 109.798 35.2377 110.174 35.5363 110.453C35.8253 110.164 36.0372 109.943 36.2683 109.712C36.3839 109.856 36.461 109.972 36.5766 110.126C37.0678 109.914 37.0581 109.461 37.4915 109.269C37.8383 109.115 37.5108 108.662 37.925 108.411C38.1851 108.257 37.742 107.901 38.0599 107.67C37.9635 107.111 37.8672 106.552 37.7901 106.1C38.3488 105.04 38.3777 104.742 37.9924 104.164C38.3006 103.846 38.3681 103.49 38.2814 103.095C38.1465 102.459 38.4548 101.804 38.1851 101.178C38.4451 100.687 38.2043 100.195 38.1851 99.7042C38.1754 99.4827 38.2428 99.2612 38.2814 99.03C38.1947 98.9626 38.0888 98.8855 38.0213 98.8277C38.2525 98.192 38.474 97.6045 38.686 97.0362C38.1369 96.6702 38.3777 96.1693 38.1851 95.7744C38.3296 95.6203 38.4644 95.4758 38.6667 95.2543C38.4259 94.8016 38.1658 94.3103 37.8768 93.7517C38.0406 93.6457 38.2525 93.4917 38.4933 93.3279C38.1851 92.9234 38.84 92.4514 38.4066 92.0179C38.1947 92.0179 37.9924 92.0179 37.8094 92.0179C38.0117 91.6905 38.1851 91.4111 38.4066 91.074C37.7131 90.7851 37.9443 90.2842 38.1754 89.9471C38.4548 89.5522 38.1754 89.3596 38.0406 89.1669C38.1947 88.223 38.7726 87.3561 38.0695 86.4604C38.4259 85.8728 38.3199 85.2467 38.1273 84.428C38.214 84.3895 38.4355 84.3028 38.686 84.2065C38.5029 83.9946 38.3392 83.8694 38.2717 83.7249C38.1465 83.4263 37.6457 83.1662 38.0984 82.8002C37.8865 82.1645 38.4933 81.577 38.2525 80.9605C38.4259 80.8931 38.5511 80.8449 38.7052 80.7775C38.5607 80.4789 38.2236 80.1129 38.3392 79.9106C38.5222 79.5928 38.4066 79.3328 38.3777 79.0534C38.3296 78.6007 38.2332 78.1576 38.1369 77.5894C38.2332 77.5316 38.4258 77.416 38.58 77.3196C38.3295 76.944 38.1177 76.6262 37.9058 76.3083C38.3007 75.9327 37.8768 75.5474 37.9731 75.191C38.0791 74.8154 38.3295 74.459 38.5222 74.093C38.3103 73.7559 37.9925 73.4765 38.2621 73.0527C38.3777 72.8697 38.368 72.4459 37.9731 72.2822C38.1561 72.0029 38.3295 71.7236 38.5318 71.4153C38.0598 70.6737 38.8786 69.8164 38.1369 69.094C38.3681 69.0362 38.5703 68.9784 38.8978 68.9014C38.6089 68.7665 38.4066 68.6798 38.2332 68.6028C38.1562 67.6589 39.1194 66.7534 38.1947 65.8192C38.3585 65.6939 38.5222 65.5688 38.6282 65.4917C38.6474 65.0486 38.4933 64.7019 38.6282 64.2974C38.7341 63.9988 38.3777 63.6038 38.2717 63.2378C38.2332 63.1126 38.3006 62.9585 38.3392 62.8236C38.4547 62.4287 38.3392 62.082 38.0117 61.7738C38.1851 61.3789 38.3681 60.984 38.5511 60.5698C38.3199 60.2616 37.9828 59.9726 38.3199 59.5584C38.4163 59.4428 38.2814 59.2117 38.2525 59.0287C38.1947 58.6819 38.1369 58.3256 38.0695 57.9788C38.2429 57.844 38.3777 57.738 38.474 57.661C38.4162 57.3142 38.3681 57.0156 38.291 56.6015C38.1851 56.5726 37.9828 56.5148 37.7806 56.457C37.7998 56.4088 37.8191 56.3703 37.8383 56.3221C38.1177 56.2932 38.4066 56.2643 38.7919 56.2258C37.8961 55.7635 38.8689 55.1085 38.3392 54.6655C38.2332 54.6655 38.1176 54.6558 38.0309 54.6462C37.7516 54.3091 38.1176 54.049 38.1754 53.7215C38.3488 53.7022 38.5318 53.683 38.7437 53.6637C38.5029 53.2206 38.2814 52.8065 38.0502 52.3923C38.1947 52.3153 38.3392 52.2478 38.4933 52.1708C38.3874 51.564 38.291 50.9668 38.1851 50.3696C38.9267 49.7724 38.4259 48.9826 38.8015 48.3373C38.3777 48.1735 38.3199 47.7883 38.4452 47.6342C38.7534 47.2296 38.4741 46.8732 38.4452 46.5072C38.4066 46.1027 38.6474 45.727 38.5125 45.2936C38.3873 44.9179 38.2621 44.5231 38.474 44.08C38.5896 43.8296 38.3777 43.4539 38.2139 43.165C38.0984 42.9627 38.0598 42.8278 38.1562 42.6063C38.2814 42.3173 38.3006 41.9995 38.3392 41.6913C38.3777 41.383 38.3873 41.0652 38.4162 40.757C38.4162 40.6992 38.4644 40.651 38.4837 40.6028C38.5896 40.5739 38.6955 40.5451 38.8208 40.5065C38.8111 40.3813 38.8015 40.2658 38.7822 40.102C38.5126 39.9383 38.2236 39.7649 37.8865 39.5626C38.0695 39.3507 38.2139 39.1869 38.3969 38.975C38.2525 38.4838 38.0984 37.9445 37.9346 37.3858C38.0791 37.3569 38.291 37.3087 38.5896 37.2413C38.4355 36.9813 38.3006 36.7501 38.1658 36.5286C38.3103 36.3648 38.4548 36.2011 38.6185 36.0085C38.0021 35.6425 38.2717 35.1127 37.9828 34.7081C37.7131 34.2843 37.4434 33.8702 37.1545 33.4175C36.8173 33.4656 36.538 33.5042 36.2876 33.5427C36.2779 33.6968 36.2683 33.7739 36.2587 33.8894C35.6711 33.9472 35.1125 34.005 34.525 34.0724C34.2456 34.4288 33.9759 34.7852 33.6966 35.1416C33.7544 35.4594 33.8026 35.7869 33.8604 36.0951C33.7255 36.1433 33.6195 36.1722 33.3595 36.2589C33.5232 36.5093 33.6581 36.702 33.7544 36.8464L33.8026 36.8175ZM37.9636 40.5547C37.9636 40.5547 37.9636 40.5162 37.9539 40.4969C38.031 40.4969 38.108 40.4776 38.1851 40.4776C38.1851 40.4969 38.1851 40.5161 38.1947 40.5354C38.1177 40.5354 38.0406 40.5547 37.9636 40.5547Z" fill="#FFE4D5"/>
<path id="Vector_7" d="M21.281 46.4397C21.2424 46.719 21.1943 46.931 21.1943 47.1525C21.1943 47.3837 21.3195 47.6437 21.252 47.8556C20.9823 48.6743 21.0401 49.4834 21.1846 50.3021C21.2617 50.7259 21.358 51.1401 21.1557 51.5735C20.9631 51.978 21.0305 52.4115 21.0883 52.8353C21.1172 53.0086 21.0016 53.2013 20.9727 53.3169C21.1461 53.7021 21.2906 54.0296 21.4254 54.3378C21.5506 54.3378 21.6566 54.3475 21.7722 54.3571C21.8011 54.5401 21.8203 54.7039 21.8781 55.0892C21.8107 55.1181 21.5892 55.2047 21.3869 55.2914C21.5795 55.6189 21.7047 55.8501 21.8492 56.0909C21.6951 56.1583 21.5699 56.2161 21.464 56.2642C21.3195 56.6399 21.1846 56.9963 21.0594 57.3526C21.3772 57.5164 21.2039 57.7187 21.1654 57.9113C21.1172 58.1617 21.0883 58.4122 21.0498 58.6433C21.1558 58.7493 21.2617 58.8456 21.3388 58.9226C21.2521 59.1153 21.1846 59.2597 21.1268 59.3946C21.2424 59.5198 21.3388 59.6161 21.464 59.751C21.0016 60.7334 21.541 61.8508 21.0016 62.8525C21.4736 63.1222 21.2039 63.5652 21.175 63.9023C21.3772 63.9312 21.4832 63.9408 21.5603 63.9601C21.6373 64.4899 21.7144 64.9907 21.8011 65.5975C21.5121 65.925 21.1846 66.3007 20.8186 66.7341C20.8956 66.8689 21.0112 67.0712 21.1365 67.2735C20.7993 67.8514 21.1847 68.4389 21.1654 68.9591C21.2906 69.1132 21.3965 69.2095 21.4447 69.3251C21.4929 69.4407 21.4928 69.5755 21.5025 69.6718C21.3098 69.7296 21.2039 69.7682 21.069 69.8067C21.1172 70.1053 21.1557 70.4039 21.2135 70.7988C21.0691 70.9047 20.886 71.0299 20.7608 71.1262C20.9342 71.6945 20.7897 72.2436 21.2424 72.6385C21.0979 73.1586 21.1268 73.6883 21.2424 74.2085C21.3002 74.4782 21.3291 74.7478 21.3773 75.0946C21.252 75.2005 21.0979 75.345 21.0305 75.4028C20.9438 76.4623 21.5218 77.3678 21.2135 78.1576C21.358 78.6681 21.4736 79.0341 21.5314 79.2363C20.9342 80.3536 20.9053 81.2783 21.4928 82.2222C21.4254 82.3571 21.358 82.5015 21.2906 82.6267C21.4255 82.7616 21.5218 82.8579 21.5892 82.9157C21.4929 83.5321 21.4061 84.1005 21.3098 84.6591C21.175 84.7073 21.0498 84.7554 20.8764 84.8228C21.0498 85.1407 21.1846 85.4008 21.3291 85.6801C21.2039 85.9979 21.069 86.3254 20.9631 86.6047C21.2713 86.99 21.541 87.3271 21.83 87.6931C21.6374 87.828 21.4447 87.9725 21.281 88.0881C20.8379 88.7045 21.2231 89.3595 21.0594 90.0144C20.9053 90.6405 21.4062 91.3147 21.1461 91.8638C21.2617 92.2779 21.4832 92.615 21.3965 92.8847C21.1654 93.6746 21.175 94.4451 21.3291 95.2253C21.3676 95.4179 21.3869 95.6202 21.4158 95.8032C21.2424 95.8802 21.1076 95.9381 20.9053 96.0344C21.3484 96.4004 21.3676 96.8435 21.3773 97.2865C21.2231 97.3443 21.1269 97.3828 20.9246 97.4502C21.0305 97.6429 21.1269 97.8355 21.2232 98.0281C21.2617 98.1148 21.2906 98.2015 21.3002 98.2401C21.0594 98.4423 20.8571 98.6157 20.7608 98.6927C20.8957 99.1647 20.9246 99.5307 21.098 99.8389C21.281 100.166 21.5218 100.446 21.3965 100.821C21.2521 100.879 21.1268 100.927 21.0016 100.975C21.0594 101.361 21.1076 101.698 21.1557 102.025C21.0305 102.17 20.915 102.305 20.7994 102.44C20.8764 102.536 21.0209 102.623 21.0305 102.729C21.0691 103.383 21.0883 104.048 21.0883 104.713C21.0883 104.819 20.9438 104.925 20.8764 105.021C21.0787 105.31 21.3676 105.493 21.175 105.849C21.0883 106.013 21.0883 106.235 21.1268 106.418C21.3195 107.544 21.0594 108.7 21.3869 109.827C21.4158 109.943 21.3387 110.078 21.3195 110.203C21.2617 110.579 21.1461 110.964 21.175 111.339C21.1942 111.609 21.3869 111.879 21.5314 112.206C21.3966 112.322 21.2328 112.466 21.0402 112.63C21.1943 112.89 21.3195 113.121 21.435 113.324C21.3773 113.497 21.3099 113.641 21.2906 113.805C21.1943 114.566 21.2617 115.346 21.0112 116.098C20.9342 116.329 21.1365 116.627 21.1943 116.82C21.1846 117.523 21.175 118.159 21.1557 118.872C21.4832 119.286 21.4158 119.816 20.9149 120.538C20.9438 120.759 20.9727 120.962 21.0016 121.145C21.1846 121.183 21.3387 121.222 21.6662 121.299C21.3291 121.588 21.1172 121.78 20.8572 122.012C21.2617 123.216 20.8764 124.516 21.1942 125.778C21.2906 126.153 21.358 126.529 21.1942 126.953C21.0787 127.261 21.358 127.694 21.4832 128.137C21.0016 128.754 21.9456 129.043 22.0708 129.563C22.5909 129.486 22.7161 129.919 23.0147 130.228C23.3036 129.9 23.5156 129.65 23.7467 129.38C23.8623 129.553 23.9394 129.679 24.055 129.842C24.5462 129.602 24.5365 129.091 24.9699 128.87C25.3167 128.696 24.9892 128.176 25.4034 127.897C25.6634 127.723 25.2204 127.309 25.5382 127.059C25.4419 126.423 25.3456 125.787 25.2685 125.277C25.8272 124.073 25.8561 123.726 25.4708 123.081C25.779 122.715 25.8464 122.32 25.7598 121.867C25.6249 121.145 25.9332 120.403 25.6635 119.681C25.9235 119.122 25.6827 118.563 25.6635 118.005C25.6538 117.754 25.7212 117.494 25.7598 117.234C25.6731 117.157 25.5672 117.061 25.4997 117.003C25.7309 116.281 25.9524 115.616 26.1643 114.961C25.6153 114.547 25.8561 113.979 25.6635 113.526C25.8079 113.353 25.9428 113.189 26.1451 112.929C25.9043 112.418 25.6442 111.85 25.3552 111.214C25.519 111.089 25.7309 110.925 25.9717 110.733C25.6635 110.27 26.3184 109.741 25.885 109.24C25.6731 109.24 25.4708 109.24 25.2878 109.24C25.4901 108.874 25.6634 108.556 25.885 108.161C25.1915 107.833 25.4227 107.265 25.6538 106.88C25.9332 106.427 25.6538 106.215 25.519 105.984C25.6731 104.915 26.251 103.923 25.5479 102.912C25.9043 102.247 25.7983 101.525 25.6057 100.6C25.6924 100.561 25.9139 100.465 26.1643 100.349C25.9813 100.109 25.8175 99.9642 25.7501 99.8004C25.6249 99.4633 25.1241 99.1647 25.5768 98.7505C25.3649 98.0281 25.9717 97.3636 25.7309 96.6604C25.9043 96.5834 26.0295 96.5256 26.1836 96.4486C26.0391 96.1018 25.702 95.6972 25.8176 95.4564C26.0006 95.0904 25.885 94.7918 25.8561 94.474C25.808 93.9635 25.7116 93.453 25.6153 92.8077C25.7116 92.7402 25.9042 92.615 26.0583 92.4994C25.8079 92.0756 25.5961 91.7096 25.3842 91.3532C25.7791 90.9294 25.3552 90.4864 25.4515 90.0818C25.5575 89.6484 25.8079 89.2535 26.0006 88.8393C25.7887 88.4541 25.4708 88.1458 25.7405 87.6546C25.8561 87.4427 25.8464 86.9611 25.4515 86.7781C25.6345 86.4602 25.8079 86.1424 26.0102 85.7957C25.5382 84.9577 26.357 83.9752 25.6153 83.1565C25.8465 83.0891 26.0487 83.0313 26.3762 82.935C26.0873 82.7809 25.885 82.6846 25.7116 82.5979C25.6346 81.5191 26.5978 80.4981 25.6731 79.4289C25.8369 79.2845 26.0006 79.14 26.1066 79.0533C26.1258 78.5525 25.9717 78.1575 26.1066 77.6952C26.2125 77.3485 25.8561 76.9054 25.7501 76.4912C25.7116 76.3467 25.779 76.1734 25.8176 76.0193C25.9331 75.5666 25.8176 75.1813 25.4901 74.8249C25.6635 74.3819 25.8465 73.9292 26.0295 73.4572C25.7983 73.1008 25.4612 72.7733 25.7983 72.311C25.8946 72.1762 25.7598 71.9161 25.7309 71.7138C25.6731 71.3189 25.6153 70.9143 25.5479 70.5194C25.7213 70.3653 25.8561 70.2401 25.9524 70.1534C25.8946 69.7585 25.8465 69.4214 25.7694 68.9494C25.6635 68.9109 25.4612 68.8435 25.2589 68.7857C25.2782 68.7375 25.2975 68.6798 25.3167 68.6316C25.5961 68.6027 25.885 68.5642 26.2703 68.516C25.3745 67.9863 26.3473 67.2446 25.8176 66.7437C25.7116 66.7437 25.596 66.7245 25.5093 66.7245C25.23 66.3392 25.596 66.0406 25.6538 65.665C25.8272 65.6457 26.0102 65.6264 26.2221 65.5975C25.9813 65.0871 25.7598 64.6247 25.5286 64.1528C25.6731 64.0661 25.8176 63.989 25.9717 63.9023C25.8657 63.2088 25.7694 62.5346 25.6635 61.8604C26.4051 61.1861 25.9043 60.2808 26.2799 59.5487C25.8561 59.3561 25.7983 58.9323 25.9235 58.7493C26.2318 58.2869 25.9524 57.8824 25.9235 57.4682C25.885 57.0059 26.1258 56.5725 25.9909 56.0909C25.8657 55.6574 25.7405 55.2144 25.9524 54.7135C26.068 54.4342 25.8561 54.0007 25.6923 53.6732C25.5768 53.4421 25.5382 53.288 25.6345 53.0279C25.7598 52.7004 25.779 52.344 25.8176 51.9877C25.8561 51.6313 25.8657 51.2749 25.8946 50.9282C25.8946 50.8704 25.9428 50.8126 25.9621 50.7548C26.068 50.7163 26.1739 50.6873 26.2991 50.6488C26.2895 50.5043 26.2799 50.3695 26.2606 50.1865C25.9909 50.0035 25.702 49.8012 25.3649 49.5797C25.5479 49.3389 25.6923 49.1462 25.8753 48.9054C25.7309 48.3468 25.5768 47.74 25.413 47.0947C25.5575 47.0562 25.7694 47.008 26.068 46.9309C25.9139 46.6323 25.779 46.3723 25.6442 46.1219C25.7887 45.9389 25.9332 45.7558 26.0969 45.5343C25.4805 45.1201 25.7501 44.5133 25.4612 44.051C25.1915 43.5694 24.9218 43.0974 24.6328 42.5869C24.2957 42.6447 24.0164 42.6832 23.766 42.7218C23.7563 42.8951 23.7467 42.9915 23.7371 43.1167C23.1495 43.1841 22.5909 43.2515 22.0034 43.3189C21.724 43.7331 21.4543 44.128 21.175 44.5422C21.2328 44.9082 21.281 45.2742 21.3388 45.621C21.2039 45.6691 21.0979 45.7077 20.8379 45.804C21.0016 46.0833 21.1365 46.3049 21.2328 46.4782L21.281 46.4397ZM25.442 50.697C25.442 50.697 25.4419 50.6489 25.4323 50.6296C25.5094 50.6296 25.5864 50.6103 25.6635 50.6007C25.6635 50.6199 25.6635 50.6488 25.6731 50.6681C25.5961 50.6681 25.519 50.6874 25.442 50.697Z" fill="#FFE4D5"/>
</g>
</g>
</svg>
